<?xml version="1.0" encoding="UTF-8" standalone="no"?>
<!-- Created with Inkscape (http://www.inkscape.org/) -->

<svg
   xmlns:dc="http://purl.org/dc/elements/1.1/"
   xmlns:cc="http://creativecommons.org/ns#"
   xmlns:rdf="http://www.w3.org/1999/02/22-rdf-syntax-ns#"
   xmlns:svg="http://www.w3.org/2000/svg"
   xmlns="http://www.w3.org/2000/svg"
   xmlns:sodipodi="http://sodipodi.sourceforge.net/DTD/sodipodi-0.dtd"
   xmlns:inkscape="http://www.inkscape.org/namespaces/inkscape"
   width="173.92862mm"
   height="70.095795mm"
   viewBox="0 0 173.92862 70.095795"
   version="1.1"
   id="svg995"
   inkscape:version="0.92.3 (2405546, 2018-03-11)"
   sodipodi:docname="sas-logo-gray-with-text.svg">
  <defs
     id="defs989" />
  <sodipodi:namedview
     id="base"
     pagecolor="#ffffff"
     bordercolor="#666666"
     borderopacity="1.0"
     inkscape:pageopacity="0.0"
     inkscape:pageshadow="2"
     inkscape:zoom="0.49497475"
     inkscape:cx="-479.02579"
     inkscape:cy="285.96467"
     inkscape:document-units="mm"
     inkscape:current-layer="layer1"
     showgrid="false"
     fit-margin-top="5"
     fit-margin-left="5"
     fit-margin-right="5"
     fit-margin-bottom="5"
     inkscape:window-width="1920"
     inkscape:window-height="1020"
     inkscape:window-x="0"
     inkscape:window-y="34"
     inkscape:window-maximized="1" />
  <metadata
     id="metadata992">
    <rdf:RDF>
      <cc:Work
         rdf:about="">
        <dc:format>image/svg+xml</dc:format>
        <dc:type
           rdf:resource="http://purl.org/dc/dcmitype/StillImage" />
        <dc:title></dc:title>
      </cc:Work>
    </rdf:RDF>
  </metadata>
  <g
     inkscape:label="Layer 1"
     inkscape:groupmode="layer"
     id="layer1"
     transform="translate(94.846944,25.320066)">
    <g
       transform="matrix(0.35277777,0,0,-0.35277777,-621.585,-128.8367)"
       id="g2922">
      <path
         d="m 1592.4641,-477.95649 c 47.0408,0 85.1747,38.13434 85.1747,85.17513 0,47.0408 -38.1339,85.17514 -85.1747,85.17514 -47.0408,0 -85.1751,-38.13434 -85.1751,-85.17514 0,-47.04079 38.1343,-85.17513 85.1751,-85.17513"
         style="fill:#191919;fill-opacity:1;fill-rule:nonzero;stroke:none;stroke-width:0.04533703"
         id="path2197"
         inkscape:connector-curvature="0" />
      <path
         inkscape:connector-curvature="0"
         id="path2203"
         d="m 1591.5801,-453.96484 v 122.36523 h 1.7676 v -122.36523 z"
         style="color:#000000;font-style:normal;font-variant:normal;font-weight:normal;font-stretch:normal;font-size:medium;line-height:normal;font-family:sans-serif;font-variant-ligatures:normal;font-variant-position:normal;font-variant-caps:normal;font-variant-numeric:normal;font-variant-alternates:normal;font-feature-settings:normal;text-indent:0;text-align:start;text-decoration:none;text-decoration-line:none;text-decoration-style:solid;text-decoration-color:#000000;letter-spacing:normal;word-spacing:normal;text-transform:none;writing-mode:lr-tb;direction:ltr;text-orientation:mixed;dominant-baseline:auto;baseline-shift:baseline;text-anchor:start;white-space:normal;shape-padding:0;clip-rule:nonzero;display:inline;overflow:visible;visibility:visible;opacity:1;isolation:auto;mix-blend-mode:normal;color-interpolation:sRGB;color-interpolation-filters:linearRGB;solid-color:#000000;solid-opacity:1;vector-effect:none;fill:#ffffff;fill-opacity:1;fill-rule:nonzero;stroke:none;stroke-width:1.76814425;stroke-linecap:butt;stroke-linejoin:miter;stroke-miterlimit:4;stroke-dasharray:none;stroke-dashoffset:0;stroke-opacity:1;color-rendering:auto;image-rendering:auto;shape-rendering:auto;text-rendering:auto;enable-background:accumulate" />
      <path
         inkscape:connector-curvature="0"
         id="path2205"
         d="m 1531.2812,-393.66602 v 1.76954 h 122.3653 v -1.76954 z"
         style="color:#000000;font-style:normal;font-variant:normal;font-weight:normal;font-stretch:normal;font-size:medium;line-height:normal;font-family:sans-serif;font-variant-ligatures:normal;font-variant-position:normal;font-variant-caps:normal;font-variant-numeric:normal;font-variant-alternates:normal;font-feature-settings:normal;text-indent:0;text-align:start;text-decoration:none;text-decoration-line:none;text-decoration-style:solid;text-decoration-color:#000000;letter-spacing:normal;word-spacing:normal;text-transform:none;writing-mode:lr-tb;direction:ltr;text-orientation:mixed;dominant-baseline:auto;baseline-shift:baseline;text-anchor:start;white-space:normal;shape-padding:0;clip-rule:nonzero;display:inline;overflow:visible;visibility:visible;opacity:1;isolation:auto;mix-blend-mode:normal;color-interpolation:sRGB;color-interpolation-filters:linearRGB;solid-color:#000000;solid-opacity:1;vector-effect:none;fill:#ffffff;fill-opacity:1;fill-rule:nonzero;stroke:none;stroke-width:1.76814425;stroke-linecap:butt;stroke-linejoin:miter;stroke-miterlimit:4;stroke-dasharray:none;stroke-dashoffset:0;stroke-opacity:1;color-rendering:auto;image-rendering:auto;shape-rendering:auto;text-rendering:auto;enable-background:accumulate" />
      <path
         inkscape:connector-curvature="0"
         id="path2207"
         d="m 1635.1016,-436.66992 -86.5254,86.52539 1.25,1.25 86.5254,-86.52344 z"
         style="color:#000000;font-style:normal;font-variant:normal;font-weight:normal;font-stretch:normal;font-size:medium;line-height:normal;font-family:sans-serif;font-variant-ligatures:normal;font-variant-position:normal;font-variant-caps:normal;font-variant-numeric:normal;font-variant-alternates:normal;font-feature-settings:normal;text-indent:0;text-align:start;text-decoration:none;text-decoration-line:none;text-decoration-style:solid;text-decoration-color:#000000;letter-spacing:normal;word-spacing:normal;text-transform:none;writing-mode:lr-tb;direction:ltr;text-orientation:mixed;dominant-baseline:auto;baseline-shift:baseline;text-anchor:start;white-space:normal;shape-padding:0;clip-rule:nonzero;display:inline;overflow:visible;visibility:visible;opacity:1;isolation:auto;mix-blend-mode:normal;color-interpolation:sRGB;color-interpolation-filters:linearRGB;solid-color:#000000;solid-opacity:1;vector-effect:none;fill:#ffffff;fill-opacity:1;fill-rule:nonzero;stroke:none;stroke-width:1.76814425;stroke-linecap:butt;stroke-linejoin:miter;stroke-miterlimit:4;stroke-dasharray:none;stroke-dashoffset:0;stroke-opacity:1;color-rendering:auto;image-rendering:auto;shape-rendering:auto;text-rendering:auto;enable-background:accumulate" />
      <path
         inkscape:connector-curvature="0"
         id="path2209"
         d="m 1549.8262,-436.66992 -1.25,1.25195 86.5254,86.52344 1.25,-1.25 z"
         style="color:#000000;font-style:normal;font-variant:normal;font-weight:normal;font-stretch:normal;font-size:medium;line-height:normal;font-family:sans-serif;font-variant-ligatures:normal;font-variant-position:normal;font-variant-caps:normal;font-variant-numeric:normal;font-variant-alternates:normal;font-feature-settings:normal;text-indent:0;text-align:start;text-decoration:none;text-decoration-line:none;text-decoration-style:solid;text-decoration-color:#000000;letter-spacing:normal;word-spacing:normal;text-transform:none;writing-mode:lr-tb;direction:ltr;text-orientation:mixed;dominant-baseline:auto;baseline-shift:baseline;text-anchor:start;white-space:normal;shape-padding:0;clip-rule:nonzero;display:inline;overflow:visible;visibility:visible;opacity:1;isolation:auto;mix-blend-mode:normal;color-interpolation:sRGB;color-interpolation-filters:linearRGB;solid-color:#000000;solid-opacity:1;vector-effect:none;fill:#ffffff;fill-opacity:1;fill-rule:nonzero;stroke:none;stroke-width:1.76814425;stroke-linecap:butt;stroke-linejoin:miter;stroke-miterlimit:4;stroke-dasharray:none;stroke-dashoffset:0;stroke-opacity:1;color-rendering:auto;image-rendering:auto;shape-rendering:auto;text-rendering:auto;enable-background:accumulate" />
      <path
         inkscape:connector-curvature="0"
         id="path2211"
         d="m 1592.4648,-456.27344 -13.1503,31.7461 -31.7461,-13.15039 13.1504,31.74609 -31.7481,13.15039 31.7481,13.15039 -13.1504,31.74609 1.9707,-0.8164 29.7754,-12.33399 13.1503,31.7461 13.1485,-31.7461 31.7461,13.15039 -13.1485,-31.74609 31.7461,-13.15039 -31.7461,-13.15039 13.1485,-31.74609 -31.7461,13.15039 z m 0,4.6211 11.5137,27.80078 -11.5137,4.76953 -11.5156,-4.76953 z m -41.6308,17.24218 27.8047,11.51563 -4.7696,11.51562 -11.5175,4.77149 z m 83.2598,0 -11.5176,27.80274 -11.5157,-4.77149 -4.7695,-11.51562 z m -53.8223,12.19336 9.8808,4.0918 -13.9746,5.78906 z m 24.3847,0 4.0938,9.88086 -13.9746,-5.78906 z m -12.1914,5.04883 17.2422,7.14258 7.1426,17.24414 -7.1426,17.24414 -17.2422,7.14258 -17.2441,-7.14258 -7.1426,-17.24414 7.1426,-17.24414 z m -19.5527,8.09961 -5.791,13.97852 -4.0938,-9.88477 z m 39.1055,0 9.8828,4.09375 -4.0938,9.88281 z m -50.6231,4.76953 4.7715,11.51758 -4.7715,11.51758 -27.8047,-11.51758 z m 62.1387,0.002 27.8047,11.51563 -27.8047,11.51563 -4.7695,-11.51563 z m -56.4121,13.82422 5.791,13.97852 -9.8848,-4.09375 z m 50.6855,0.002 4.0938,9.88281 -9.8828,4.09375 z m -55.455,11.51562 11.5175,4.77149 4.7696,11.51562 -27.8047,11.51563 z m 60.2246,0 11.5176,27.80274 -27.8028,-11.51563 4.7695,-11.51562 z m -46.3985,5.72852 13.9746,5.78906 -9.8808,4.0918 z m 32.5723,0 -4.0938,9.88086 -9.8808,-4.0918 z m -16.2871,6.74609 11.5156,4.76953 -11.5137,27.80078 -11.5175,-27.80078 z"
         style="color:#000000;font-style:normal;font-variant:normal;font-weight:normal;font-stretch:normal;font-size:medium;line-height:normal;font-family:sans-serif;font-variant-ligatures:normal;font-variant-position:normal;font-variant-caps:normal;font-variant-numeric:normal;font-variant-alternates:normal;font-feature-settings:normal;text-indent:0;text-align:start;text-decoration:none;text-decoration-line:none;text-decoration-style:solid;text-decoration-color:#000000;letter-spacing:normal;word-spacing:normal;text-transform:none;writing-mode:lr-tb;direction:ltr;text-orientation:mixed;dominant-baseline:auto;baseline-shift:baseline;text-anchor:start;white-space:normal;shape-padding:0;clip-rule:nonzero;display:inline;overflow:visible;visibility:visible;opacity:1;isolation:auto;mix-blend-mode:normal;color-interpolation:sRGB;color-interpolation-filters:linearRGB;solid-color:#000000;solid-opacity:1;vector-effect:none;fill:#ffffff;fill-opacity:1;fill-rule:nonzero;stroke:none;stroke-width:1.76814425;stroke-linecap:butt;stroke-linejoin:miter;stroke-miterlimit:4;stroke-dasharray:none;stroke-dashoffset:0;stroke-opacity:1;color-rendering:auto;image-rendering:auto;shape-rendering:auto;text-rendering:auto;enable-background:accumulate" />
      <g
         id="text2221"
         style="font-style:normal;font-weight:normal;font-size:40.53442383px;line-height:1.12;font-family:sans-serif;letter-spacing:0px;word-spacing:0px;fill:#191919;fill-opacity:1;stroke:none;stroke-width:1.01336062"
         transform="scale(1,-1)"
         aria-label="Svenska astronomiska sällskapet">
        <path
           inkscape:connector-curvature="0"
           id="path1702"
           style="font-style:normal;font-variant:normal;font-weight:500;font-stretch:normal;line-height:1.12;font-family:'Bw Glenn Slab';-inkscape-font-specification:'Bw Glenn Slab Medium';letter-spacing:0.40913576px;fill:#191919;fill-opacity:1;stroke-width:1.01336062"
           d="m 1719.023,341.90113 -4.6615,-1.33763 c -3.0401,-0.85122 -5.4316,-2.18886 -5.4316,-5.14787 0,-3.20222 3.0401,-5.35055 7.6205,-5.35055 2.0672,0 4.2561,0.24321 6.1612,0.68909 v 5.1884 h 2.959 v -6.89085 c -2.4726,-0.93229 -6.1612,-1.54031 -9.2823,-1.54031 -6.4045,0 -10.6606,3.24276 -10.6606,8.10689 0,4.49932 3.2428,6.52604 7.0935,7.57994 l 4.7831,1.33763 c 3.4049,0.93229 6.2828,2.351 6.2828,5.71536 0,3.28328 -3.3238,5.51268 -8.3095,5.51268 -2.1484,0 -4.5399,-0.24321 -6.6882,-0.64855 v -5.14788 h -2.959 v 7.01246 c 2.3104,0.81069 6.3639,1.33764 10.093,1.33764 6.6477,0 11.0659,-3.32383 11.0659,-8.30956 0,-4.9452 -3.8913,-6.89085 -8.0663,-8.10689 z" />
        <path
           inkscape:connector-curvature="0"
           id="path1704"
           style="font-style:normal;font-variant:normal;font-weight:500;font-stretch:normal;line-height:1.12;font-family:'Bw Glenn Slab';-inkscape-font-specification:'Bw Glenn Slab Medium';letter-spacing:0.40913576px;fill:#191919;fill-opacity:1;stroke-width:1.01336062"
           d="m 1752.6704,336.46952 h -9.4851 v 2.43207 h 3.4049 l -5.5127,15.76789 -5.5127,-15.76789 h 3.4049 v -2.43207 h -9.485 v 2.43207 h 3.04 l 7.0936,19.01064 h 2.9184 l 7.0936,-19.01064 h 3.0401 z" />
        <path
           inkscape:connector-curvature="0"
           id="path1706"
           style="font-style:normal;font-variant:normal;font-weight:500;font-stretch:normal;line-height:1.12;font-family:'Bw Glenn Slab';-inkscape-font-specification:'Bw Glenn Slab Medium';letter-spacing:0.40913576px;fill:#191919;fill-opacity:1;stroke-width:1.01336062"
           d="m 1772.3903,346.6842 c 0,-6.36391 -3.3643,-10.62002 -8.4311,-10.62002 -5.7559,0 -9.5661,4.37771 -9.5661,10.90376 0,7.29619 3.6481,11.34964 10.093,11.34964 2.7158,0 5.229,-0.52695 7.0936,-1.37817 v -2.4726 c -1.7025,0.85122 -4.013,1.37817 -6.364,1.37817 -4.9046,0 -7.5799,-2.75634 -7.8231,-8.10689 h 14.9977 z m -8.5527,-8.14742 c 3.2833,0 5.5127,2.79687 5.6343,7.09352 h -12.0388 c 0.4054,-4.37772 2.8374,-7.09352 6.4045,-7.09352 z" />
        <path
           inkscape:connector-curvature="0"
           id="path1708"
           style="font-style:normal;font-variant:normal;font-weight:500;font-stretch:normal;line-height:1.12;font-family:'Bw Glenn Slab';-inkscape-font-specification:'Bw Glenn Slab Medium';letter-spacing:0.40913576px;fill:#191919;fill-opacity:1;stroke-width:1.01336062"
           d="m 1797.0473,355.48017 v -11.0659 c 0,-5.47215 -2.351,-8.35009 -6.9314,-8.35009 -3.8913,0 -6.6476,1.82405 -8.0258,4.90466 l -0.2432,-3.97237 0.041,-0.52695 h -5.9585 v 2.43207 h 3.4049 v 16.57858 h -3.4049 v 2.43206 h 10.3362 v -2.43206 h -4.0129 v -9.56613 c 0,-4.41825 2.7158,-7.29619 6.7693,-7.29619 3.3643,0 5.1073,2.14832 5.1073,6.3639 v 12.93048 h 6.3234 v -2.43206 z" />
        <path
           inkscape:connector-curvature="0"
           id="path1710"
           style="font-style:normal;font-variant:normal;font-weight:500;font-stretch:normal;line-height:1.12;font-family:'Bw Glenn Slab';-inkscape-font-specification:'Bw Glenn Slab Medium';letter-spacing:0.40913576px;fill:#191919;fill-opacity:1;stroke-width:1.01336062"
           d="m 1813.5201,346.11671 -2.8374,-0.68908 c -2.1889,-0.56748 -4.0129,-1.49977 -4.0129,-3.6481 0,-2.10779 2.1888,-3.48596 5.4721,-3.48596 1.0945,0 2.4726,0.16214 3.8103,0.40534 v 3.48596 h 2.7968 V 337.037 c -2.0267,-0.56748 -4.7425,-0.97282 -6.8097,-0.97282 -4.9858,0 -8.2691,2.43206 -8.2691,6.03963 0,3.44542 2.7158,4.90466 5.7559,5.67482 l 2.9996,0.72962 c 2.5131,0.64855 4.7425,1.49977 4.7425,3.93183 0,2.2294 -2.2699,3.68864 -5.7154,3.68864 -1.5808,0 -3.4049,-0.20268 -5.0668,-0.56749 V 351.751 h -2.7968 v 5.31001 c 1.7835,0.72962 4.9857,1.25657 8.0258,1.25657 5.1073,0 8.5527,-2.4726 8.5527,-6.24231 0,-3.68863 -3.0806,-5.0668 -6.6476,-5.95856 z" />
        <path
           inkscape:connector-curvature="0"
           id="path1712"
           style="font-style:normal;font-variant:normal;font-weight:500;font-stretch:normal;line-height:1.12;font-family:'Bw Glenn Slab';-inkscape-font-specification:'Bw Glenn Slab Medium';letter-spacing:0.40913576px;fill:#191919;fill-opacity:1;stroke-width:1.01336062"
           d="m 1829.4925,355.48017 v -29.18479 h -6.3233 v 2.43207 h 3.4049 v 26.75272 h -3.4049 v 2.43206 h 9.7282 v -2.43206 z m 12.4441,0 -8.2285,-8.95811 7.5394,-7.62047 h 3.4455 v -2.43207 h -9.8904 v 2.43207 h 2.9995 l -7.3367,7.661 9.9714,11.34964 h 4.6615 v -2.43206 z" />
        <path
           inkscape:connector-curvature="0"
           id="path1714"
           style="font-style:normal;font-variant:normal;font-weight:500;font-stretch:normal;line-height:1.12;font-family:'Bw Glenn Slab';-inkscape-font-specification:'Bw Glenn Slab Medium';letter-spacing:0.40913576px;fill:#191919;fill-opacity:1;stroke-width:1.01336062"
           d="m 1863.4807,355.48017 v -11.75499 c 0,-5.02627 -2.6753,-7.661 -7.8637,-7.661 -2.6753,0 -4.9047,0.48641 -6.7693,1.4187 v 2.4726 c 1.7835,-0.89176 3.6887,-1.4187 6.0802,-1.4187 3.6886,0 5.6343,1.94565 5.6343,5.67482 v 1.5403 l -6.0802,-0.0405 c -4.6614,0 -7.3772,2.39153 -7.3772,6.60711 0,3.93184 2.1077,5.9991 6.2017,5.9991 3.2428,0 6.0802,-1.94566 7.4178,-5.18841 l 0.2838,4.78306 h 5.8369 v -2.43206 z m -9.1608,0.64855 c -2.7564,0 -4.1345,-1.37817 -4.1345,-4.05345 0,-2.75634 1.6619,-4.25611 4.783,-4.25611 h 5.5938 v 0.52695 c 0,5.02627 -3.2833,7.78261 -6.2423,7.78261 z" />
        <path
           inkscape:connector-curvature="0"
           id="path1716"
           style="font-style:normal;font-variant:normal;font-weight:500;font-stretch:normal;line-height:1.12;font-family:'Bw Glenn Slab';-inkscape-font-specification:'Bw Glenn Slab Medium';letter-spacing:0.40913576px;fill:#191919;fill-opacity:1;stroke-width:1.01336062"
           d="m 1721.2929,401.69891 v -11.75498 c 0,-5.02627 -2.6753,-7.66101 -7.8637,-7.66101 -2.6752,0 -4.9046,0.48641 -6.7692,1.41871 v 2.4726 c 1.7835,-0.89176 3.6886,-1.41871 6.0802,-1.41871 3.6886,0 5.6342,1.94565 5.6342,5.67482 v 1.54031 l -6.0801,-0.0405 c -4.6615,0 -7.3773,2.39153 -7.3773,6.60711 0,3.93184 2.1078,5.9991 6.2018,5.9991 3.2427,0 6.0801,-1.94565 7.4178,-5.18841 l 0.2837,4.78307 h 5.837 v -2.43207 z m -9.1608,0.64855 c -2.7563,0 -4.1345,-1.37817 -4.1345,-4.05344 0,-2.75634 1.6619,-4.25612 4.7831,-4.25612 h 5.5937 v 0.52695 c 0,5.02627 -3.2832,7.78261 -6.2423,7.78261 z" />
        <path
           inkscape:connector-curvature="0"
           id="path1718"
           style="font-style:normal;font-variant:normal;font-weight:500;font-stretch:normal;line-height:1.12;font-family:'Bw Glenn Slab';-inkscape-font-specification:'Bw Glenn Slab Medium';letter-spacing:0.40913576px;fill:#191919;fill-opacity:1;stroke-width:1.01336062"
           d="m 1737.7157,392.33546 -2.8374,-0.68909 c -2.1889,-0.56748 -4.0129,-1.49977 -4.0129,-3.6481 0,-2.10779 2.1888,-3.48596 5.4721,-3.48596 1.0944,0 2.4726,0.16214 3.8102,0.40535 v 3.48596 h 2.7969 v -5.14787 c -2.0267,-0.56749 -4.7425,-0.97283 -6.8098,-0.97283 -4.9857,0 -8.269,2.43207 -8.269,6.03963 0,3.44543 2.7158,4.90467 5.7559,5.67482 l 2.9996,0.72962 c 2.5131,0.64855 4.7425,1.49977 4.7425,3.93184 0,2.22939 -2.2699,3.68863 -5.7154,3.68863 -1.5808,0 -3.4049,-0.20267 -5.0668,-0.56748 v -3.81024 h -2.7968 v 5.31001 c 1.7835,0.72962 4.9857,1.25657 8.0258,1.25657 5.1073,0 8.5527,-2.4726 8.5527,-6.2423 0,-3.68863 -3.0806,-5.0668 -6.6476,-5.95856 z" />
        <path
           inkscape:connector-curvature="0"
           id="path1720"
           style="font-style:normal;font-variant:normal;font-weight:500;font-stretch:normal;line-height:1.12;font-family:'Bw Glenn Slab';-inkscape-font-specification:'Bw Glenn Slab Medium';letter-spacing:0.40913576px;fill:#191919;fill-opacity:1;stroke-width:1.01336062"
           d="m 1757.012,402.02319 c -1.9052,0 -3.1617,-1.21604 -3.1617,-2.99955 v -13.90331 h 7.0124 v -2.43207 h -7.0124 v -5.67481 h -2.878 v 5.67481 h -3.8102 v 2.43207 h 3.7697 v 14.47079 c 0,2.95901 2.0673,4.9452 5.1884,4.9452 1.9457,0 3.7292,-0.28374 5.0263,-0.85122 v -2.43207 c -1.2566,0.52695 -2.6753,0.77016 -4.1345,0.77016 z" />
        <path
           inkscape:connector-curvature="0"
           id="path1722"
           style="font-style:normal;font-variant:normal;font-weight:500;font-stretch:normal;line-height:1.12;font-family:'Bw Glenn Slab';-inkscape-font-specification:'Bw Glenn Slab Medium';letter-spacing:0.40913576px;fill:#191919;fill-opacity:1;stroke-width:1.01336062"
           d="m 1778.0956,382.28292 c -4.1751,0 -7.0936,2.18886 -8.5528,5.87749 l -0.2838,-4.90466 0.041,-0.56749 h -5.9586 v 2.43207 h 3.4049 v 16.57858 h -3.4049 v 2.43207 h 10.5795 v -2.43207 h -4.2561 v -8.06635 c 0,-5.0668 3.2022,-8.39063 8.0663,-8.39063 h 1.7836 v -2.95901 z" />
        <path
           inkscape:connector-curvature="0"
           id="path1724"
           style="font-style:normal;font-variant:normal;font-weight:500;font-stretch:normal;line-height:1.12;font-family:'Bw Glenn Slab';-inkscape-font-specification:'Bw Glenn Slab Medium';letter-spacing:0.40913576px;fill:#191919;fill-opacity:1;stroke-width:1.01336062"
           d="m 1791.2642,404.53632 c 5.8775,0 9.7688,-4.45879 9.7688,-11.10643 0,-6.68818 -3.8913,-11.14697 -9.7688,-11.14697 -5.8775,0 -9.7688,4.45879 -9.7688,11.14697 0,6.64764 3.8913,11.10643 9.7688,11.10643 z m 0,-2.51313 c -4.0129,0 -6.7288,-3.44543 -6.7288,-8.5933 0,-5.14787 2.7159,-8.5933 6.7288,-8.5933 4.0129,0 6.7287,3.44543 6.7287,8.5933 0,5.14787 -2.7158,8.5933 -6.7287,8.5933 z" />
        <path
           inkscape:connector-curvature="0"
           id="path1726"
           style="font-style:normal;font-variant:normal;font-weight:500;font-stretch:normal;line-height:1.12;font-family:'Bw Glenn Slab';-inkscape-font-specification:'Bw Glenn Slab Medium';letter-spacing:0.40913576px;fill:#191919;fill-opacity:1;stroke-width:1.01336062"
           d="m 1825.8121,401.69891 v -11.0659 c 0,-5.47215 -2.3509,-8.35009 -6.9313,-8.35009 -3.8913,0 -6.6477,1.82405 -8.0259,4.90467 l -0.2432,-3.97238 0.041,-0.52695 h -5.9586 v 2.43207 h 3.4049 v 16.57858 h -3.4049 v 2.43207 h 10.3363 v -2.43207 h -4.0129 v -9.56612 c 0,-4.41826 2.7158,-7.2962 6.7692,-7.2962 3.3644,0 5.1074,2.14832 5.1074,6.3639 v 12.93049 h 6.3233 v -2.43207 z" />
        <path
           inkscape:connector-curvature="0"
           id="path1728"
           style="font-style:normal;font-variant:normal;font-weight:500;font-stretch:normal;line-height:1.12;font-family:'Bw Glenn Slab';-inkscape-font-specification:'Bw Glenn Slab Medium';letter-spacing:0.40913576px;fill:#191919;fill-opacity:1;stroke-width:1.01336062"
           d="m 1841.8796,404.53632 c 5.8775,0 9.7688,-4.45879 9.7688,-11.10643 0,-6.68818 -3.8913,-11.14697 -9.7688,-11.14697 -5.8775,0 -9.7688,4.45879 -9.7688,11.14697 0,6.64764 3.8913,11.10643 9.7688,11.10643 z m 0,-2.51313 c -4.0129,0 -6.7287,-3.44543 -6.7287,-8.5933 0,-5.14787 2.7158,-8.5933 6.7287,-8.5933 4.0129,0 6.7287,3.44543 6.7287,8.5933 0,5.14787 -2.7158,8.5933 -6.7287,8.5933 z" />
        <path
           inkscape:connector-curvature="0"
           id="path1730"
           style="font-style:normal;font-variant:normal;font-weight:500;font-stretch:normal;line-height:1.12;font-family:'Bw Glenn Slab';-inkscape-font-specification:'Bw Glenn Slab Medium';letter-spacing:0.40913576px;fill:#191919;fill-opacity:1;stroke-width:1.01336062"
           d="m 1889.6013,401.69891 v -11.47124 c 0,-5.18841 -2.2699,-7.94475 -6.526,-7.94475 -3.7698,0 -6.4856,1.82405 -7.7827,4.78306 -0.8106,-3.12115 -2.8779,-4.78306 -6.2017,-4.78306 -3.6887,0 -6.2829,1.78352 -7.6205,4.8236 l -0.2432,-3.89131 0.041,-0.52695 h -5.9585 v 2.43207 h 3.4049 v 16.57858 h -3.4049 v 2.43207 h 10.3362 v -2.43207 h -4.0129 v -9.56612 c 0,-4.41826 2.5537,-7.2962 6.3639,-7.2962 3.0807,0 4.702,2.02672 4.702,5.95856 v 13.33583 h 6.3234 v -2.43207 h -3.4049 v -9.56612 c 0,-4.41826 2.5537,-7.2962 6.3639,-7.2962 3.0401,0 4.702,2.02672 4.702,5.95856 v 13.33583 h 6.3234 v -2.43207 z" />
        <path
           inkscape:connector-curvature="0"
           id="path1732"
           style="font-style:normal;font-variant:normal;font-weight:500;font-stretch:normal;line-height:1.12;font-family:'Bw Glenn Slab';-inkscape-font-specification:'Bw Glenn Slab Medium';letter-spacing:0.40913576px;fill:#191919;fill-opacity:1;stroke-width:1.01336062"
           d="m 1901.7458,372.51412 h -2.9996 v 5.67482 h 2.9996 z m 0,29.18479 v -19.01065 h -6.2829 v 2.43207 h 3.3644 v 16.57858 h -3.3644 v 2.43207 h 9.6878 v -2.43207 z" />
        <path
           inkscape:connector-curvature="0"
           id="path1734"
           style="font-style:normal;font-variant:normal;font-weight:500;font-stretch:normal;line-height:1.12;font-family:'Bw Glenn Slab';-inkscape-font-specification:'Bw Glenn Slab Medium';letter-spacing:0.40913576px;fill:#191919;fill-opacity:1;stroke-width:1.01336062"
           d="m 1918.6436,392.33546 -2.8375,-0.68909 c -2.1888,-0.56748 -4.0129,-1.49977 -4.0129,-3.6481 0,-2.10779 2.1889,-3.48596 5.4722,-3.48596 1.0944,0 2.4726,0.16214 3.8102,0.40535 v 3.48596 h 2.7969 v -5.14787 c -2.0267,-0.56749 -4.7425,-0.97283 -6.8098,-0.97283 -4.9857,0 -8.269,2.43207 -8.269,6.03963 0,3.44543 2.7158,4.90467 5.7559,5.67482 l 2.9995,0.72962 c 2.5132,0.64855 4.7425,1.49977 4.7425,3.93184 0,2.22939 -2.2699,3.68863 -5.7153,3.68863 -1.5808,0 -3.4049,-0.20267 -5.0668,-0.56748 v -3.81024 h -2.7969 v 5.31001 c 1.7835,0.72962 4.9858,1.25657 8.0258,1.25657 5.1074,0 8.5528,-2.4726 8.5528,-6.2423 0,-3.68863 -3.0806,-5.0668 -6.6476,-5.95856 z" />
        <path
           inkscape:connector-curvature="0"
           id="path1736"
           style="font-style:normal;font-variant:normal;font-weight:500;font-stretch:normal;line-height:1.12;font-family:'Bw Glenn Slab';-inkscape-font-specification:'Bw Glenn Slab Medium';letter-spacing:0.40913576px;fill:#191919;fill-opacity:1;stroke-width:1.01336062"
           d="m 1934.616,401.69891 v -29.18479 h -6.3234 v 2.43207 h 3.4049 v 26.75272 h -3.4049 v 2.43207 h 9.7283 v -2.43207 z m 12.4441,0 -8.2285,-8.95811 7.5394,-7.62047 h 3.4454 v -2.43207 h -9.8904 v 2.43207 h 2.9996 l -7.3368,7.66101 9.9715,11.34964 h 4.6615 v -2.43207 z" />
        <path
           inkscape:connector-curvature="0"
           id="path1738"
           style="font-style:normal;font-variant:normal;font-weight:500;font-stretch:normal;line-height:1.12;font-family:'Bw Glenn Slab';-inkscape-font-specification:'Bw Glenn Slab Medium';letter-spacing:0.40913576px;fill:#191919;fill-opacity:1;stroke-width:1.01336062"
           d="m 1968.6041,401.69891 v -11.75498 c 0,-5.02627 -2.6753,-7.66101 -7.8637,-7.66101 -2.6752,0 -4.9046,0.48641 -6.7692,1.41871 v 2.4726 c 1.7835,-0.89176 3.6886,-1.41871 6.0801,-1.41871 3.6887,0 5.6343,1.94565 5.6343,5.67482 v 1.54031 l -6.0801,-0.0405 c -4.6615,0 -7.3773,2.39153 -7.3773,6.60711 0,3.93184 2.1078,5.9991 6.2018,5.9991 3.2427,0 6.0801,-1.94565 7.4178,-5.18841 l 0.2837,4.78307 h 5.837 v -2.43207 z m -9.1608,0.64855 c -2.7563,0 -4.1345,-1.37817 -4.1345,-4.05344 0,-2.75634 1.6619,-4.25612 4.7831,-4.25612 h 5.5937 v 0.52695 c 0,5.02627 -3.2833,7.78261 -6.2423,7.78261 z" />
        <path
           inkscape:connector-curvature="0"
           id="path1740"
           style="font-style:normal;font-variant:normal;font-weight:500;font-stretch:normal;line-height:1.12;font-family:'Bw Glenn Slab';-inkscape-font-specification:'Bw Glenn Slab Medium';letter-spacing:0.40913576px;fill:#191919;fill-opacity:1;stroke-width:1.01336062"
           d="m 1715.456,438.5542 -2.8374,-0.68908 c -2.1889,-0.56749 -4.013,-1.49978 -4.013,-3.6481 0,-2.10779 2.1889,-3.48596 5.4722,-3.48596 1.0944,0 2.4726,0.16214 3.8102,0.40534 v 3.48596 h 2.7969 v -5.14787 c -2.0267,-0.56748 -4.7425,-0.97283 -6.8098,-0.97283 -4.9857,0 -8.269,2.43207 -8.269,6.03963 0,3.44543 2.7158,4.90467 5.7559,5.67482 l 2.9995,0.72962 c 2.5132,0.64855 4.7426,1.49978 4.7426,3.93184 0,2.22939 -2.27,3.68863 -5.7154,3.68863 -1.5808,0 -3.4049,-0.20267 -5.0668,-0.56748 v -3.81023 h -2.7969 v 5.31001 c 1.7835,0.72962 4.9858,1.25656 8.0258,1.25656 5.1074,0 8.5528,-2.4726 8.5528,-6.2423 0,-3.68863 -3.0806,-5.0668 -6.6476,-5.95856 z" />
        <path
           inkscape:connector-curvature="0"
           id="path1742"
           style="font-style:normal;font-variant:normal;font-weight:500;font-stretch:normal;line-height:1.12;font-family:'Bw Glenn Slab';-inkscape-font-specification:'Bw Glenn Slab Medium';letter-spacing:0.40913576px;fill:#191919;fill-opacity:1;stroke-width:1.01336062"
           d="m 1732.8877,418.73287 h -2.9185 v 5.67482 h 2.9185 z m 7.134,0 h -2.9185 v 5.67482 h 2.9185 z m 2.0267,29.18478 v -11.75498 c 0,-5.02627 -2.6752,-7.66101 -7.8636,-7.66101 -2.6753,0 -4.9047,0.48642 -6.7693,1.41871 v 2.4726 c 1.7835,-0.89176 3.6886,-1.41871 6.0802,-1.41871 3.6886,0 5.6343,1.94566 5.6343,5.67482 v 1.54031 l -6.0802,-0.0405 c -4.6615,0 -7.3773,2.39153 -7.3773,6.60711 0,3.93184 2.1078,5.99909 6.2018,5.99909 3.2427,0 6.0802,-1.94565 7.4178,-5.1884 l 0.2837,4.78306 h 5.837 v -2.43207 z m -9.1607,0.64855 c -2.7564,0 -4.1346,-1.37817 -4.1346,-4.05344 0,-2.75634 1.662,-4.25611 4.7831,-4.25611 h 5.5938 v 0.52694 c 0,5.02627 -3.2833,7.78261 -6.2423,7.78261 z" />
        <path
           inkscape:connector-curvature="0"
           id="path1744"
           style="font-style:normal;font-variant:normal;font-weight:500;font-stretch:normal;line-height:1.12;font-family:'Bw Glenn Slab';-inkscape-font-specification:'Bw Glenn Slab Medium';letter-spacing:0.40913576px;fill:#191919;fill-opacity:1;stroke-width:1.01336062"
           d="m 1753.7287,447.91765 v -29.18478 h -6.3234 v 2.43206 h 3.4049 v 26.75272 h -3.4049 v 2.43207 h 9.7283 v -2.43207 z" />
        <path
           inkscape:connector-curvature="0"
           id="path1746"
           style="font-style:normal;font-variant:normal;font-weight:500;font-stretch:normal;line-height:1.12;font-family:'Bw Glenn Slab';-inkscape-font-specification:'Bw Glenn Slab Medium';letter-spacing:0.40913576px;fill:#191919;fill-opacity:1;stroke-width:1.01336062"
           d="m 1765.8548,447.91765 v -29.18478 h -6.3234 v 2.43206 h 3.4049 v 26.75272 h -3.4049 v 2.43207 h 9.7283 v -2.43207 z" />
        <path
           inkscape:connector-curvature="0"
           id="path1748"
           style="font-style:normal;font-variant:normal;font-weight:500;font-stretch:normal;line-height:1.12;font-family:'Bw Glenn Slab';-inkscape-font-specification:'Bw Glenn Slab Medium';letter-spacing:0.40913576px;fill:#191919;fill-opacity:1;stroke-width:1.01336062"
           d="m 1782.7234,438.5542 -2.8374,-0.68908 c -2.1888,-0.56749 -4.0129,-1.49978 -4.0129,-3.6481 0,-2.10779 2.1889,-3.48596 5.4722,-3.48596 1.0944,0 2.4726,0.16214 3.8102,0.40534 v 3.48596 h 2.7969 v -5.14787 c -2.0267,-0.56748 -4.7426,-0.97283 -6.8098,-0.97283 -4.9857,0 -8.269,2.43207 -8.269,6.03963 0,3.44543 2.7158,4.90467 5.7559,5.67482 l 2.9995,0.72962 c 2.5131,0.64855 4.7425,1.49978 4.7425,3.93184 0,2.22939 -2.2699,3.68863 -5.7153,3.68863 -1.5809,0 -3.4049,-0.20267 -5.0668,-0.56748 v -3.81023 h -2.7969 v 5.31001 c 1.7835,0.72962 4.9857,1.25656 8.0258,1.25656 5.1074,0 8.5528,-2.4726 8.5528,-6.2423 0,-3.68863 -3.0806,-5.0668 -6.6477,-5.95856 z" />
        <path
           inkscape:connector-curvature="0"
           id="path1750"
           style="font-style:normal;font-variant:normal;font-weight:500;font-stretch:normal;line-height:1.12;font-family:'Bw Glenn Slab';-inkscape-font-specification:'Bw Glenn Slab Medium';letter-spacing:0.40913576px;fill:#191919;fill-opacity:1;stroke-width:1.01336062"
           d="m 1798.6959,447.91765 v -29.18478 h -6.3234 v 2.43206 h 3.4049 v 26.75272 h -3.4049 v 2.43207 h 9.7283 v -2.43207 z m 12.4441,0 -8.2285,-8.9581 7.5394,-7.62048 h 3.4454 v -2.43206 h -9.8904 v 2.43206 h 2.9995 l -7.3367,7.66101 9.9715,11.34964 h 4.6614 v -2.43207 z" />
        <path
           inkscape:connector-curvature="0"
           id="path1752"
           style="font-style:normal;font-variant:normal;font-weight:500;font-stretch:normal;line-height:1.12;font-family:'Bw Glenn Slab';-inkscape-font-specification:'Bw Glenn Slab Medium';letter-spacing:0.40913576px;fill:#191919;fill-opacity:1;stroke-width:1.01336062"
           d="m 1832.684,447.91765 v -11.75498 c 0,-5.02627 -2.6753,-7.66101 -7.8637,-7.66101 -2.6753,0 -4.9047,0.48642 -6.7692,1.41871 v 2.4726 c 1.7835,-0.89176 3.6886,-1.41871 6.0801,-1.41871 3.6887,0 5.6343,1.94566 5.6343,5.67482 v 1.54031 l -6.0801,-0.0405 c -4.6615,0 -7.3773,2.39153 -7.3773,6.60711 0,3.93184 2.1078,5.99909 6.2018,5.99909 3.2427,0 6.0801,-1.94565 7.4178,-5.1884 l 0.2837,4.78306 h 5.8369 v -2.43207 z m -9.1608,0.64855 c -2.7563,0 -4.1345,-1.37817 -4.1345,-4.05344 0,-2.75634 1.6619,-4.25611 4.7831,-4.25611 h 5.5937 v 0.52694 c 0,5.02627 -3.2833,7.78261 -6.2423,7.78261 z" />
        <path
           inkscape:connector-curvature="0"
           id="path1754"
           style="font-style:normal;font-variant:normal;font-weight:500;font-stretch:normal;line-height:1.12;font-family:'Bw Glenn Slab';-inkscape-font-specification:'Bw Glenn Slab Medium';letter-spacing:0.40913576px;fill:#191919;fill-opacity:1;stroke-width:1.01336062"
           d="m 1851.9847,428.50166 c -3.9724,0 -6.4855,2.02673 -7.7826,5.10734 l -0.2432,-4.70199 h -5.9586 v 2.43206 h 3.4049 v 25.49616 h -3.4049 v 2.43206 h 10.8227 v -2.43206 h -4.4993 v -10.90376 c 1.3376,2.95901 3.8102,4.82359 7.661,4.82359 5.31,0 8.8365,-4.41825 8.8365,-11.06589 0,-6.72872 -3.5265,-11.18751 -8.8365,-11.18751 z m -0.9323,19.74027 c -4.0534,0 -6.7287,-3.44543 -6.7287,-8.5933 0,-5.14787 2.6753,-8.5933 6.7287,-8.5933 4.0129,0 6.7287,3.44543 6.7287,8.63384 0,5.14787 -2.7158,8.55276 -6.7287,8.55276 z" />
        <path
           inkscape:connector-curvature="0"
           id="path1756"
           style="font-style:normal;font-variant:normal;font-weight:500;font-stretch:normal;line-height:1.12;font-family:'Bw Glenn Slab';-inkscape-font-specification:'Bw Glenn Slab Medium';letter-spacing:0.40913576px;fill:#191919;fill-opacity:1;stroke-width:1.01336062"
           d="m 1882.9897,439.12168 c 0,-6.3639 -3.3643,-10.62002 -8.4311,-10.62002 -5.7559,0 -9.5661,4.37772 -9.5661,10.90376 0,7.2962 3.6481,11.34964 10.093,11.34964 2.7158,0 5.229,-0.52694 7.0935,-1.37817 v -2.4726 c -1.7024,0.85123 -4.0129,1.37817 -6.3639,1.37817 -4.9046,0 -7.5799,-2.75634 -7.8231,-8.10688 h 14.9977 z m -8.5527,-8.14742 c 3.2833,0 5.5127,2.79688 5.6343,7.09353 h -12.0388 c 0.4054,-4.37772 2.8374,-7.09353 6.4045,-7.09353 z" />
        <path
           inkscape:connector-curvature="0"
           id="path1758"
           style="font-style:normal;font-variant:normal;font-weight:500;font-stretch:normal;line-height:1.12;font-family:'Bw Glenn Slab';-inkscape-font-specification:'Bw Glenn Slab Medium';letter-spacing:0.40913576px;fill:#191919;fill-opacity:1;stroke-width:1.01336062"
           d="m 1895.6504,448.24193 c -1.9051,0 -3.1617,-1.21603 -3.1617,-2.99955 v -13.90331 h 7.0125 v -2.43206 h -7.0125 v -5.67482 h -2.8779 v 5.67482 h -3.8103 v 2.43206 h 3.7697 v 14.47079 c 0,2.95902 2.0673,4.9452 5.1884,4.9452 1.9457,0 3.7292,-0.28374 5.0263,-0.85122 v -2.43207 c -1.2566,0.52695 -2.6753,0.77016 -4.1345,0.77016 z" />
      </g>
    </g>
  </g>
</svg>
