<?xml version="1.0" encoding="UTF-8" standalone="no"?>
<!-- Created with Inkscape (http://www.inkscape.org/) -->

<svg
   xmlns:dc="http://purl.org/dc/elements/1.1/"
   xmlns:cc="http://creativecommons.org/ns#"
   xmlns:rdf="http://www.w3.org/1999/02/22-rdf-syntax-ns#"
   xmlns:svg="http://www.w3.org/2000/svg"
   xmlns="http://www.w3.org/2000/svg"
   xmlns:sodipodi="http://sodipodi.sourceforge.net/DTD/sodipodi-0.dtd"
   xmlns:inkscape="http://www.inkscape.org/namespaces/inkscape"
   width="173.92862mm"
   height="70.095795mm"
   viewBox="0 0 173.92862 70.095795"
   version="1.1"
   id="svg995"
   inkscape:version="0.92.3 (2405546, 2018-03-11)"
   sodipodi:docname="sas-logo-white-with-text.svg">
  <defs
     id="defs989" />
  <sodipodi:namedview
     id="base"
     pagecolor="#ffffff"
     bordercolor="#666666"
     borderopacity="1.0"
     inkscape:pageopacity="0.0"
     inkscape:pageshadow="2"
     inkscape:zoom="0.98994949"
     inkscape:cx="-42.845526"
     inkscape:cy="252.8096"
     inkscape:document-units="mm"
     inkscape:current-layer="layer1"
     showgrid="false"
     fit-margin-top="5"
     fit-margin-left="5"
     fit-margin-right="5"
     fit-margin-bottom="5"
     inkscape:window-width="1920"
     inkscape:window-height="1020"
     inkscape:window-x="0"
     inkscape:window-y="34"
     inkscape:window-maximized="1" />
  <metadata
     id="metadata992">
    <rdf:RDF>
      <cc:Work
         rdf:about="">
        <dc:format>image/svg+xml</dc:format>
        <dc:type
           rdf:resource="http://purl.org/dc/dcmitype/StillImage" />
        <dc:title />
      </cc:Work>
    </rdf:RDF>
  </metadata>
  <g
     inkscape:label="Layer 1"
     inkscape:groupmode="layer"
     id="layer1"
     transform="translate(94.846944,25.320066)">
    <g
       id="g921">
      <path
         inkscape:connector-curvature="0"
         id="path2223"
         style="fill:#ffffff;fill-opacity:1;fill-rule:nonzero;stroke:none;stroke-width:0.0159939"
         d="m -59.799066,39.775727 c 16.594949,0 30.047741,-13.452968 30.047741,-30.0478817 0,-16.5949485 -13.452792,-30.0479133 -30.047741,-30.0479133 -16.594949,0 -30.047882,13.4529648 -30.047882,30.0479133 0,16.5949137 13.452933,30.0478817 30.047882,30.0478817" />
      <path
         inkscape:connector-curvature="0"
         id="path2229"
         d="m -60.110922,31.31153 v -43.167758 h 0.62357 V 31.31153 Z"
         style="color:#000000;font-style:normal;font-variant:normal;font-weight:normal;font-stretch:normal;font-size:medium;line-height:normal;font-family:sans-serif;font-variant-ligatures:normal;font-variant-position:normal;font-variant-caps:normal;font-variant-numeric:normal;font-variant-alternates:normal;font-feature-settings:normal;text-indent:0;text-align:start;text-decoration:none;text-decoration-line:none;text-decoration-style:solid;text-decoration-color:#000000;letter-spacing:normal;word-spacing:normal;text-transform:none;writing-mode:lr-tb;direction:ltr;text-orientation:mixed;dominant-baseline:auto;baseline-shift:baseline;text-anchor:start;white-space:normal;shape-padding:0;clip-rule:nonzero;display:inline;overflow:visible;visibility:visible;opacity:1;isolation:auto;mix-blend-mode:normal;color-interpolation:sRGB;color-interpolation-filters:linearRGB;solid-color:#000000;solid-opacity:1;vector-effect:none;fill:#191919;fill-opacity:1;fill-rule:nonzero;stroke:none;stroke-width:0.62376201;stroke-linecap:butt;stroke-linejoin:miter;stroke-miterlimit:4;stroke-dasharray:none;stroke-dashoffset:0;stroke-opacity:1;color-rendering:auto;image-rendering:auto;shape-rendering:auto;text-rendering:auto;enable-background:accumulate" />
      <path
         inkscape:connector-curvature="0"
         id="path2231"
         d="M -81.383033,10.039454 V 9.4158839 h 43.167758 v 0.6235701 z"
         style="color:#000000;font-style:normal;font-variant:normal;font-weight:normal;font-stretch:normal;font-size:medium;line-height:normal;font-family:sans-serif;font-variant-ligatures:normal;font-variant-position:normal;font-variant-caps:normal;font-variant-numeric:normal;font-variant-alternates:normal;font-feature-settings:normal;text-indent:0;text-align:start;text-decoration:none;text-decoration-line:none;text-decoration-style:solid;text-decoration-color:#000000;letter-spacing:normal;word-spacing:normal;text-transform:none;writing-mode:lr-tb;direction:ltr;text-orientation:mixed;dominant-baseline:auto;baseline-shift:baseline;text-anchor:start;white-space:normal;shape-padding:0;clip-rule:nonzero;display:inline;overflow:visible;visibility:visible;opacity:1;isolation:auto;mix-blend-mode:normal;color-interpolation:sRGB;color-interpolation-filters:linearRGB;solid-color:#000000;solid-opacity:1;vector-effect:none;fill:#191919;fill-opacity:1;fill-rule:nonzero;stroke:none;stroke-width:0.62376201;stroke-linecap:butt;stroke-linejoin:miter;stroke-miterlimit:4;stroke-dasharray:none;stroke-dashoffset:0;stroke-opacity:1;color-rendering:auto;image-rendering:auto;shape-rendering:auto;text-rendering:auto;enable-background:accumulate" />
      <path
         inkscape:connector-curvature="0"
         id="path2233"
         d="m -44.757504,25.210274 -30.524237,-30.5242378 0.440972,-0.4409722 30.524237,30.524238 z"
         style="color:#000000;font-style:normal;font-variant:normal;font-weight:normal;font-stretch:normal;font-size:medium;line-height:normal;font-family:sans-serif;font-variant-ligatures:normal;font-variant-position:normal;font-variant-caps:normal;font-variant-numeric:normal;font-variant-alternates:normal;font-feature-settings:normal;text-indent:0;text-align:start;text-decoration:none;text-decoration-line:none;text-decoration-style:solid;text-decoration-color:#000000;letter-spacing:normal;word-spacing:normal;text-transform:none;writing-mode:lr-tb;direction:ltr;text-orientation:mixed;dominant-baseline:auto;baseline-shift:baseline;text-anchor:start;white-space:normal;shape-padding:0;clip-rule:nonzero;display:inline;overflow:visible;visibility:visible;opacity:1;isolation:auto;mix-blend-mode:normal;color-interpolation:sRGB;color-interpolation-filters:linearRGB;solid-color:#000000;solid-opacity:1;vector-effect:none;fill:#191919;fill-opacity:1;fill-rule:nonzero;stroke:none;stroke-width:0.62376201;stroke-linecap:butt;stroke-linejoin:miter;stroke-miterlimit:4;stroke-dasharray:none;stroke-dashoffset:0;stroke-opacity:1;color-rendering:auto;image-rendering:auto;shape-rendering:auto;text-rendering:auto;enable-background:accumulate" />
      <path
         inkscape:connector-curvature="0"
         id="path2235"
         d="m -74.840769,25.210274 -0.440972,-0.440972 30.524237,-30.524238 0.440972,0.4409722 z"
         style="color:#000000;font-style:normal;font-variant:normal;font-weight:normal;font-stretch:normal;font-size:medium;line-height:normal;font-family:sans-serif;font-variant-ligatures:normal;font-variant-position:normal;font-variant-caps:normal;font-variant-numeric:normal;font-variant-alternates:normal;font-feature-settings:normal;text-indent:0;text-align:start;text-decoration:none;text-decoration-line:none;text-decoration-style:solid;text-decoration-color:#000000;letter-spacing:normal;word-spacing:normal;text-transform:none;writing-mode:lr-tb;direction:ltr;text-orientation:mixed;dominant-baseline:auto;baseline-shift:baseline;text-anchor:start;white-space:normal;shape-padding:0;clip-rule:nonzero;display:inline;overflow:visible;visibility:visible;opacity:1;isolation:auto;mix-blend-mode:normal;color-interpolation:sRGB;color-interpolation-filters:linearRGB;solid-color:#000000;solid-opacity:1;vector-effect:none;fill:#191919;fill-opacity:1;fill-rule:nonzero;stroke:none;stroke-width:0.62376201;stroke-linecap:butt;stroke-linejoin:miter;stroke-miterlimit:4;stroke-dasharray:none;stroke-dashoffset:0;stroke-opacity:1;color-rendering:auto;image-rendering:auto;shape-rendering:auto;text-rendering:auto;enable-background:accumulate" />
      <path
         inkscape:connector-curvature="0"
         id="path2237"
         d="m -59.798819,32.126623 -4.639134,-11.199318 -11.199318,4.639169 4.639169,-11.199319 -11.200024,-4.6391686 11.200024,-4.6391335 -4.639169,-11.1993183 0.695219,0.2880077 10.504099,4.3511258 4.639134,-11.1999891 4.638498,11.1993188 11.199319,-4.6384632 -4.638499,11.1993183 11.199319,4.6391335 -11.199319,4.6391686 4.638499,11.199319 -11.199319,-4.639169 z m 0,-1.630221 4.061777,-9.807469 -4.061777,-1.682609 -4.062448,1.682609 z m -14.686421,-6.082665 9.80888,-4.062448 -1.682609,-4.062447 -4.063823,-1.68328 z m 29.372207,0 -4.062483,-9.808175 -4.063153,1.68328 -1.682574,4.062447 z m -18.987311,-4.301525 3.485726,-1.443496 -4.929928,-2.042266 z m 8.60238,0 1.444201,-3.485762 -4.929928,2.042266 z m -4.300855,-1.781105 6.082665,-2.51975 2.51975,-6.0840408 -2.51975,-6.0826649 -6.082665,-2.5197505 -6.083335,2.5197505 -2.519751,6.0826649 2.519751,6.0840408 z m -6.897758,-2.857394 -2.042936,-4.931304 -1.444202,3.487138 z m 13.795551,0 3.486432,-1.444166 -1.444201,-3.487138 z M -70.75973,13.79114 -69.076451,9.7279864 -70.75973,5.6648685 -80.56861,9.7279864 Z m 21.921152,0 9.80888,-4.0624833 -9.80888,-4.0631179 -1.682574,4.0631179 z m -19.900935,-4.8775763 2.042936,-4.9306338 -3.487138,1.4442016 z m 17.880718,0 1.444201,-3.4864322 -3.486432,-1.4442016 z m -19.563292,-4.0624477 4.062448,-1.6832791 1.683279,-4.06244773 -9.80888,-4.06315327 z m 21.2459,0 4.063154,-9.8088801 -9.80821,4.06315327 1.682574,4.06311793 z m -4.877576,-2.0202172 -1.444201,-3.48713769 -3.486432,1.44420164 z m -11.490783,0 4.930634,-2.04226577 -3.486432,-1.44420164 z m 5.745057,-2.3798741 4.063153,-1.6826089 -4.062483,-9.8081748 -4.063118,9.8081748 z"
         style="color:#000000;font-style:normal;font-variant:normal;font-weight:normal;font-stretch:normal;font-size:medium;line-height:normal;font-family:sans-serif;font-variant-ligatures:normal;font-variant-position:normal;font-variant-caps:normal;font-variant-numeric:normal;font-variant-alternates:normal;font-feature-settings:normal;text-indent:0;text-align:start;text-decoration:none;text-decoration-line:none;text-decoration-style:solid;text-decoration-color:#000000;letter-spacing:normal;word-spacing:normal;text-transform:none;writing-mode:lr-tb;direction:ltr;text-orientation:mixed;dominant-baseline:auto;baseline-shift:baseline;text-anchor:start;white-space:normal;shape-padding:0;clip-rule:nonzero;display:inline;overflow:visible;visibility:visible;opacity:1;isolation:auto;mix-blend-mode:normal;color-interpolation:sRGB;color-interpolation-filters:linearRGB;solid-color:#000000;solid-opacity:1;vector-effect:none;fill:#191919;fill-opacity:1;fill-rule:nonzero;stroke:none;stroke-width:0.62376201;stroke-linecap:butt;stroke-linejoin:miter;stroke-miterlimit:4;stroke-dasharray:none;stroke-dashoffset:0;stroke-opacity:1;color-rendering:auto;image-rendering:auto;shape-rendering:auto;text-rendering:auto;enable-background:accumulate" />
      <g
         id="text2247"
         style="font-style:normal;font-weight:normal;font-size:40.53442383px;line-height:1.12;font-family:sans-serif;letter-spacing:0px;word-spacing:0px;fill:#fffff9;fill-opacity:1;stroke:none;stroke-width:1.01336062"
         transform="matrix(0.35277777,0,0,0.35277777,-621.585,-365.93416)"
         aria-label="Svenska astronomiska sällskapet">
        <path
           inkscape:connector-curvature="0"
           id="path1643"
           style="font-style:normal;font-variant:normal;font-weight:600;font-stretch:normal;line-height:1.12;font-family:'Bw Glenn Slab';-inkscape-font-specification:'Bw Glenn Slab Semi-Bold';letter-spacing:0.40913576px;fill:#fffff9;fill-opacity:1;stroke-width:1.01336062"
           d="m 1719.5905,1013.5425 -4.8642,-1.4187 c -2.7158,-0.7701 -4.8236,-1.9051 -4.8236,-4.3777 0,-2.7158 2.7969,-4.5804 7.0125,-4.5804 1.6619,0 3.486,0.2027 5.1884,0.527 v 4.702 h 4.094 v -7.1746 c -2.5537,-0.9729 -6.4045,-1.62141 -9.6472,-1.62141 -6.6882,0 -11.147,3.36441 -11.147,8.47171 0,4.5804 3.3238,6.6476 7.1341,7.7015 l 5.0263,1.3782 c 3.04,0.8107 5.5532,2.0267 5.5532,4.8641 0,2.878 -2.9996,4.8236 -7.5394,4.8236 -1.7836,0 -3.8508,-0.1621 -5.7559,-0.4864 v -4.6614 h -4.094 v 7.2962 c 2.4321,0.8512 6.6476,1.4187 10.4579,1.4187 6.8503,0 11.4307,-3.486 11.4307,-8.6744 0,-4.9857 -3.8913,-7.0125 -8.0258,-8.188 z" />
        <path
           inkscape:connector-curvature="0"
           id="path1645"
           style="font-style:normal;font-variant:normal;font-weight:600;font-stretch:normal;line-height:1.12;font-family:'Bw Glenn Slab';-inkscape-font-specification:'Bw Glenn Slab Semi-Bold';letter-spacing:0.40913576px;fill:#fffff9;fill-opacity:1;stroke-width:1.01336062"
           d="m 1753.07,1008.3541 h -10.3363 v 3.4049 h 3.2022 l -4.5398,13.7007 -4.5804,-13.7007 h 3.2427 v -3.4049 h -10.3362 v 3.4049 h 2.8779 l 6.7287,18.2405 h 4.1345 l 6.6882,-18.2405 h 2.9185 z" />
        <path
           inkscape:connector-curvature="0"
           id="path1647"
           style="font-style:normal;font-variant:normal;font-weight:600;font-stretch:normal;line-height:1.12;font-family:'Bw Glenn Slab';-inkscape-font-specification:'Bw Glenn Slab Semi-Bold';letter-spacing:0.40913576px;fill:#fffff9;fill-opacity:1;stroke-width:1.01336062"
           d="m 1773.2302,1018.6904 c 0,-6.445 -3.4455,-10.7416 -8.6339,-10.7416 -5.9991,0 -10.012,4.4588 -10.012,11.147 0,7.134 3.8508,11.3091 10.3768,11.3091 2.8375,0 5.4722,-0.527 7.4584,-1.3377 v -3.4454 c -1.7025,0.8107 -4.0129,1.3376 -6.3639,1.3376 -4.4183,0 -6.8503,-2.351 -7.1746,-6.8503 h 14.3492 z m -8.8365,-7.2557 c 2.7968,0 4.6209,2.27 4.783,5.837 h -10.2147 c 0.4865,-3.6481 2.4726,-5.837 5.4317,-5.837 z" />
        <path
           inkscape:connector-curvature="0"
           id="path1649"
           style="font-style:normal;font-variant:normal;font-weight:600;font-stretch:normal;line-height:1.12;font-family:'Bw Glenn Slab';-inkscape-font-specification:'Bw Glenn Slab Semi-Bold';letter-spacing:0.40913576px;fill:#fffff9;fill-opacity:1;stroke-width:1.01336062"
           d="m 1798.2481,1026.5946 v -10.2147 c 0,-5.5126 -2.351,-8.4311 -6.9314,-8.4311 -3.4454,0 -6.2017,1.6214 -7.7015,4.5804 l -0.2432,-2.351 -0.081,-1.8241 h -6.7287 v 3.4049 h 3.1617 v 14.8356 h -3.1617 v 3.4049 h 10.9848 v -3.4049 h -3.6886 v -8.5122 c 0,-3.9724 2.3105,-6.5666 5.837,-6.5666 2.9184,0 4.4182,1.9051 4.4182,5.5938 v 12.8899 h 7.2962 v -3.4049 z" />
        <path
           inkscape:connector-curvature="0"
           id="path1651"
           style="font-style:normal;font-variant:normal;font-weight:600;font-stretch:normal;line-height:1.12;font-family:'Bw Glenn Slab';-inkscape-font-specification:'Bw Glenn Slab Semi-Bold';letter-spacing:0.40913576px;fill:#fffff9;fill-opacity:1;stroke-width:1.01336062"
           d="m 1814.9584,1017.677 -2.9995,-0.689 c -1.9051,-0.4865 -3.4454,-1.2566 -3.4454,-3.0401 0,-1.743 1.8645,-2.9185 4.702,-2.9185 0.9728,0 2.0672,0.081 3.2022,0.2432 v 3.0806 h 3.9318 v -5.3911 c -2.1078,-0.608 -5.1073,-1.0133 -7.4178,-1.0133 -5.1884,0 -8.6744,2.5942 -8.6744,6.4855 0,3.5265 2.7969,5.0668 5.837,5.7964 l 3.2833,0.7296 c 2.1888,0.5675 4.0534,1.2971 4.0534,3.2833 0,1.9051 -2.0267,3.1212 -5.0668,3.1212 -1.2971,0 -2.7563,-0.1622 -4.175,-0.4054 v -3.3643 h -3.9724 v 5.5127 c 1.7835,0.7701 5.1479,1.2971 8.3501,1.2971 5.4316,0 9.0797,-2.6348 9.0797,-6.6477 0,-3.6886 -3.0401,-5.1884 -6.6882,-6.0802 z" />
        <path
           inkscape:connector-curvature="0"
           id="path1653"
           style="font-style:normal;font-variant:normal;font-weight:600;font-stretch:normal;line-height:1.12;font-family:'Bw Glenn Slab';-inkscape-font-specification:'Bw Glenn Slab Semi-Bold';letter-spacing:0.40913576px;fill:#fffff9;fill-opacity:1;stroke-width:1.01336062"
           d="m 1831.5718,1026.5946 v -28.21194 h -7.2962 v 3.40494 h 3.1617 v 24.807 h -3.1617 v 3.4049 h 10.4579 v -3.4049 z m 12.282,0 -6.8909,-7.9853 6.1613,-6.8503 h 3.4048 v -3.4049 h -5.1478 l -0.041,0.041 v -0.041 h -5.5126 v 3.4049 h 2.5942 l -5.9991,6.8909 9.2013,11.3496 h 5.3505 v -3.4049 z" />
        <path
           inkscape:connector-curvature="0"
           id="path1655"
           style="font-style:normal;font-variant:normal;font-weight:600;font-stretch:normal;line-height:1.12;font-family:'Bw Glenn Slab';-inkscape-font-specification:'Bw Glenn Slab Semi-Bold';letter-spacing:0.40913576px;fill:#fffff9;fill-opacity:1;stroke-width:1.01336062"
           d="m 1866.0274,1026.5946 v -10.7416 c 0,-5.1884 -2.8374,-7.9042 -8.3907,-7.9042 -2.7563,0 -5.0668,0.4864 -7.0124,1.4187 v 3.4454 c 1.7835,-0.8917 3.6886,-1.3782 5.9585,-1.3782 3.486,0 5.31,1.7025 5.31,5.0263 v 1.0134 l -5.3505,-0.041 c -4.7831,-0.041 -7.661,2.5132 -7.661,6.8504 0,4.0129 2.1078,6.1207 6.2828,6.1207 3.0807,0 5.6749,-1.743 7.0125,-4.621 l 0.4053,4.2156 h 6.6071 v -3.4049 z m -9.323,0.8107 c -2.351,0 -3.5265,-1.1755 -3.5265,-3.4454 0,-2.3105 1.4593,-3.6076 4.094,-3.6076 h 4.6209 v 0.2432 c 0,4.4183 -2.6347,6.8098 -5.1884,6.8098 z" />
        <path
           inkscape:connector-curvature="0"
           id="path1657"
           style="font-style:normal;font-variant:normal;font-weight:600;font-stretch:normal;line-height:1.12;font-family:'Bw Glenn Slab';-inkscape-font-specification:'Bw Glenn Slab Semi-Bold';letter-spacing:0.40913576px;fill:#fffff9;fill-opacity:1;stroke-width:1.01336062"
           d="m 1721.8604,1072.8134 v -10.7417 c 0,-5.1884 -2.8374,-7.9042 -8.3906,-7.9042 -2.7564,0 -5.0668,0.4864 -7.0125,1.4187 v 3.4455 c 1.7835,-0.8918 3.6887,-1.3782 5.9586,-1.3782 3.4859,0 5.31,1.7024 5.31,5.0263 v 1.0133 l -5.3506,-0.041 c -4.783,-0.041 -7.661,2.5131 -7.661,6.8503 0,4.0129 2.1078,6.1207 6.2829,6.1207 3.0806,0 5.6748,-1.743 7.0124,-4.6209 l 0.4054,4.2156 h 6.6071 v -3.4049 z m -9.3229,0.8107 c -2.351,0 -3.5265,-1.1755 -3.5265,-3.4455 0,-2.3104 1.4592,-3.6075 4.094,-3.6075 h 4.6209 v 0.2432 c 0,4.4182 -2.6347,6.8098 -5.1884,6.8098 z" />
        <path
           inkscape:connector-curvature="0"
           id="path1659"
           style="font-style:normal;font-variant:normal;font-weight:600;font-stretch:normal;line-height:1.12;font-family:'Bw Glenn Slab';-inkscape-font-specification:'Bw Glenn Slab Semi-Bold';letter-spacing:0.40913576px;fill:#fffff9;fill-opacity:1;stroke-width:1.01336062"
           d="m 1738.5207,1063.8958 -2.9996,-0.6891 c -1.9051,-0.4864 -3.4454,-1.2566 -3.4454,-3.0401 0,-1.743 1.8646,-2.9185 4.702,-2.9185 0.9728,0 2.0672,0.081 3.2022,0.2433 v 3.0806 h 3.9319 v -5.3911 c -2.1078,-0.608 -5.1074,-1.0134 -7.4178,-1.0134 -5.1885,0 -8.6744,2.5942 -8.6744,6.4855 0,3.5265 2.7969,5.0668 5.8369,5.7965 l 3.2833,0.7296 c 2.1889,0.5675 4.0535,1.2971 4.0535,3.2833 0,1.9051 -2.0267,3.1211 -5.0668,3.1211 -1.2971,0 -2.7564,-0.1621 -4.1751,-0.4053 v -3.3644 h -3.9723 v 5.5127 c 1.7835,0.7702 5.1478,1.2971 8.35,1.2971 5.4317,0 9.0798,-2.6347 9.0798,-6.6476 0,-3.6887 -3.0401,-5.1885 -6.6882,-6.0802 z" />
        <path
           inkscape:connector-curvature="0"
           id="path1661"
           style="font-style:normal;font-variant:normal;font-weight:600;font-stretch:normal;line-height:1.12;font-family:'Bw Glenn Slab';-inkscape-font-specification:'Bw Glenn Slab Semi-Bold';letter-spacing:0.40913576px;fill:#fffff9;fill-opacity:1;stroke-width:1.01336062"
           d="m 1758.3363,1073.0566 c -1.7835,0 -2.9185,-1.135 -2.9185,-2.7969 v -12.2819 h 6.7693 v -3.4049 h -6.7693 v -5.5532 h -4.0534 v 5.5532 h -3.7697 v 3.4049 h 3.6886 v 13.1331 c 0,3.3238 2.3105,5.5127 5.7559,5.5127 2.0672,0 4.0534,-0.3243 5.4316,-0.8918 v -3.4048 c -1.2566,0.4864 -2.6753,0.7296 -4.1345,0.7296 z" />
        <path
           inkscape:connector-curvature="0"
           id="path1663"
           style="font-style:normal;font-variant:normal;font-weight:600;font-stretch:normal;line-height:1.12;font-family:'Bw Glenn Slab';-inkscape-font-specification:'Bw Glenn Slab Semi-Bold';letter-spacing:0.40913576px;fill:#fffff9;fill-opacity:1;stroke-width:1.01336062"
           d="m 1779.8873,1054.1675 c -3.6886,0 -6.5666,1.9051 -8.1069,5.31 l -0.2837,-2.9184 -0.081,-1.9862 h -6.7287 v 3.4049 h 3.1617 v 14.8356 h -3.1617 v 3.4049 h 11.3496 v -3.4049 h -4.0534 v -7.053 c 0,-4.5399 2.9185,-7.5394 7.3773,-7.5394 h 1.9051 v -4.0535 z" />
        <path
           inkscape:connector-curvature="0"
           id="path1665"
           style="font-style:normal;font-variant:normal;font-weight:600;font-stretch:normal;line-height:1.12;font-family:'Bw Glenn Slab';-inkscape-font-specification:'Bw Glenn Slab Semi-Bold';letter-spacing:0.40913576px;fill:#fffff9;fill-opacity:1;stroke-width:1.01336062"
           d="m 1793.0078,1076.6236 c 6.0801,0 10.093,-4.4993 10.093,-11.228 0,-6.7288 -4.0129,-11.2281 -10.093,-11.2281 -6.0802,0 -10.1336,4.4993 -10.1336,11.2281 0,6.7287 4.0534,11.228 10.1336,11.228 z m 0,-3.567 c -3.486,0 -5.837,-3.0806 -5.837,-7.661 0,-4.5804 2.351,-7.661 5.837,-7.661 3.4859,0 5.7964,3.0806 5.7964,7.661 0,4.5804 -2.3105,7.661 -5.7964,7.661 z" />
        <path
           inkscape:connector-curvature="0"
           id="path1667"
           style="font-style:normal;font-variant:normal;font-weight:600;font-stretch:normal;line-height:1.12;font-family:'Bw Glenn Slab';-inkscape-font-specification:'Bw Glenn Slab Semi-Bold';letter-spacing:0.40913576px;fill:#fffff9;fill-opacity:1;stroke-width:1.01336062"
           d="m 1828.1213,1072.8134 v -10.2147 c 0,-5.5127 -2.351,-8.4312 -6.9313,-8.4312 -3.4455,0 -6.2018,1.6214 -7.7016,4.5804 l -0.2432,-2.351 -0.081,-1.824 h -6.7287 v 3.4049 h 3.1617 v 14.8356 h -3.1617 v 3.4049 h 10.9849 v -3.4049 h -3.6887 v -8.5123 c 0,-3.9723 2.3105,-6.5665 5.837,-6.5665 2.9185,0 4.4182,1.9051 4.4182,5.5937 v 12.89 h 7.2962 v -3.4049 z" />
        <path
           inkscape:connector-curvature="0"
           id="path1669"
           style="font-style:normal;font-variant:normal;font-weight:600;font-stretch:normal;line-height:1.12;font-family:'Bw Glenn Slab';-inkscape-font-specification:'Bw Glenn Slab Semi-Bold';letter-spacing:0.40913576px;fill:#fffff9;fill-opacity:1;stroke-width:1.01336062"
           d="m 1843.9399,1076.6236 c 6.0802,0 10.0931,-4.4993 10.0931,-11.228 0,-6.7288 -4.0129,-11.2281 -10.0931,-11.2281 -6.0802,0 -10.1336,4.4993 -10.1336,11.2281 0,6.7287 4.0534,11.228 10.1336,11.228 z m 0,-3.567 c -3.486,0 -5.837,-3.0806 -5.837,-7.661 0,-4.5804 2.351,-7.661 5.837,-7.661 3.486,0 5.7964,3.0806 5.7964,7.661 0,4.5804 -2.3104,7.661 -5.7964,7.661 z" />
        <path
           inkscape:connector-curvature="0"
           id="path1671"
           style="font-style:normal;font-variant:normal;font-weight:600;font-stretch:normal;line-height:1.12;font-family:'Bw Glenn Slab';-inkscape-font-specification:'Bw Glenn Slab Semi-Bold';letter-spacing:0.40913576px;fill:#fffff9;fill-opacity:1;stroke-width:1.01336062"
           d="m 1891.8623,1072.8134 v -10.6201 c 0,-5.2289 -2.2699,-8.0258 -6.5665,-8.0258 -3.3239,0 -6.0397,1.5809 -7.5394,4.3372 -0.8513,-2.8374 -2.9185,-4.3372 -6.0397,-4.3372 -3.2833,0 -5.8775,1.5809 -7.3367,4.4993 l -0.2027,-2.2699 -0.081,-1.824 h -6.7287 v 3.4049 h 3.1616 v 14.8356 h -3.1616 v 3.4049 h 10.9848 v -3.4049 h -3.6887 v -8.5123 c 0,-3.9723 2.1484,-6.5665 5.4317,-6.5665 2.6347,0 4.0129,1.7835 4.0129,5.1884 v 13.2953 h 7.2962 v -3.4049 h -3.1617 v -8.5123 c 0,-3.9723 2.1888,-6.5665 5.4316,-6.5665 2.6347,0 4.0534,1.7835 4.0534,5.1884 v 13.2953 h 7.2962 v -3.4049 z" />
        <path
           inkscape:connector-curvature="0"
           id="path1673"
           style="font-style:normal;font-variant:normal;font-weight:600;font-stretch:normal;line-height:1.12;font-family:'Bw Glenn Slab';-inkscape-font-specification:'Bw Glenn Slab Semi-Bold';letter-spacing:0.40913576px;fill:#fffff9;fill-opacity:1;stroke-width:1.01336062"
           d="m 1904.6978,1044.6014 h -4.2561 v 6.0802 h 4.2561 z m 0,28.212 v -18.2405 h -7.2962 v 3.4049 h 3.1617 v 14.8356 h -3.1617 v 3.4049 h 10.4579 v -3.4049 z" />
        <path
           inkscape:connector-curvature="0"
           id="path1675"
           style="font-style:normal;font-variant:normal;font-weight:600;font-stretch:normal;line-height:1.12;font-family:'Bw Glenn Slab';-inkscape-font-specification:'Bw Glenn Slab Semi-Bold';letter-spacing:0.40913576px;fill:#fffff9;fill-opacity:1;stroke-width:1.01336062"
           d="m 1921.7444,1063.8958 -2.9995,-0.6891 c -1.9051,-0.4864 -3.4454,-1.2566 -3.4454,-3.0401 0,-1.743 1.8645,-2.9185 4.702,-2.9185 0.9728,0 2.0672,0.081 3.2022,0.2433 v 3.0806 h 3.9318 v -5.3911 c -2.1078,-0.608 -5.1073,-1.0134 -7.4178,-1.0134 -5.1884,0 -8.6744,2.5942 -8.6744,6.4855 0,3.5265 2.7969,5.0668 5.837,5.7965 l 3.2833,0.7296 c 2.1889,0.5675 4.0534,1.2971 4.0534,3.2833 0,1.9051 -2.0267,3.1211 -5.0668,3.1211 -1.2971,0 -2.7563,-0.1621 -4.175,-0.4053 v -3.3644 h -3.9724 v 5.5127 c 1.7835,0.7702 5.1479,1.2971 8.3501,1.2971 5.4316,0 9.0797,-2.6347 9.0797,-6.6476 0,-3.6887 -3.0401,-5.1885 -6.6882,-6.0802 z" />
        <path
           inkscape:connector-curvature="0"
           id="path1677"
           style="font-style:normal;font-variant:normal;font-weight:600;font-stretch:normal;line-height:1.12;font-family:'Bw Glenn Slab';-inkscape-font-specification:'Bw Glenn Slab Semi-Bold';letter-spacing:0.40913576px;fill:#fffff9;fill-opacity:1;stroke-width:1.01336062"
           d="m 1938.3578,1072.8134 v -28.212 h -7.2962 v 3.4049 h 3.1617 v 24.8071 h -3.1617 v 3.4049 h 10.4579 v -3.4049 z m 12.282,0 -6.8909,-7.9853 6.1612,-6.8503 h 3.4049 v -3.4049 h -5.1478 l -0.041,0.041 v -0.041 h -5.5126 v 3.4049 h 2.5942 l -5.9991,6.8908 9.2013,11.3497 h 5.3505 v -3.4049 z" />
        <path
           inkscape:connector-curvature="0"
           id="path1679"
           style="font-style:normal;font-variant:normal;font-weight:600;font-stretch:normal;line-height:1.12;font-family:'Bw Glenn Slab';-inkscape-font-specification:'Bw Glenn Slab Semi-Bold';letter-spacing:0.40913576px;fill:#fffff9;fill-opacity:1;stroke-width:1.01336062"
           d="m 1972.8134,1072.8134 v -10.7417 c 0,-5.1884 -2.8375,-7.9042 -8.3907,-7.9042 -2.7563,0 -5.0668,0.4864 -7.0124,1.4187 v 3.4455 c 1.7835,-0.8918 3.6886,-1.3782 5.9585,-1.3782 3.486,0 5.31,1.7024 5.31,5.0263 v 1.0133 l -5.3505,-0.041 c -4.7831,-0.041 -7.661,2.5131 -7.661,6.8503 0,4.0129 2.1078,6.1207 6.2828,6.1207 3.0806,0 5.6749,-1.743 7.0125,-4.6209 l 0.4053,4.2156 h 6.6071 v -3.4049 z m -9.323,0.8107 c -2.351,0 -3.5265,-1.1755 -3.5265,-3.4455 0,-2.3104 1.4593,-3.6075 4.094,-3.6075 h 4.6209 v 0.2432 c 0,4.4182 -2.6347,6.8098 -5.1884,6.8098 z" />
        <path
           inkscape:connector-curvature="0"
           id="path1681"
           style="font-style:normal;font-variant:normal;font-weight:600;font-stretch:normal;line-height:1.12;font-family:'Bw Glenn Slab';-inkscape-font-specification:'Bw Glenn Slab Semi-Bold';letter-spacing:0.40913576px;fill:#fffff9;fill-opacity:1;stroke-width:1.01336062"
           d="m 1716.0234,1110.1145 -2.9995,-0.6891 c -1.9051,-0.4864 -3.4454,-1.2565 -3.4454,-3.04 0,-1.743 1.8646,-2.9185 4.702,-2.9185 0.9728,0 2.0672,0.081 3.2022,0.2432 v 3.0806 h 3.9318 v -5.3911 c -2.1078,-0.608 -5.1073,-1.0133 -7.4178,-1.0133 -5.1884,0 -8.6743,2.5942 -8.6743,6.4855 0,3.5265 2.7968,5.0668 5.8369,5.7964 l 3.2833,0.7296 c 2.1889,0.5675 4.0534,1.2971 4.0534,3.2833 0,1.9051 -2.0267,3.1212 -5.0668,3.1212 -1.2971,0 -2.7563,-0.1622 -4.175,-0.4054 v -3.3643 h -3.9724 v 5.5126 c 1.7835,0.7702 5.1479,1.2971 8.3501,1.2971 5.4316,0 9.0797,-2.6347 9.0797,-6.6476 0,-3.6886 -3.0401,-5.1884 -6.6882,-6.0802 z" />
        <path
           inkscape:connector-curvature="0"
           id="path1683"
           style="font-style:normal;font-variant:normal;font-weight:600;font-stretch:normal;line-height:1.12;font-family:'Bw Glenn Slab';-inkscape-font-specification:'Bw Glenn Slab Semi-Bold';letter-spacing:0.40913576px;fill:#fffff9;fill-opacity:1;stroke-width:1.01336062"
           d="m 1733.7718,1090.8201 h -4.094 v 6.0802 h 4.094 z m 7.661,0 h -4.094 v 6.0802 h 4.094 z m 1.4998,28.212 v -10.7416 c 0,-5.1884 -2.8374,-7.9042 -8.3906,-7.9042 -2.7564,0 -5.0668,0.4864 -7.0125,1.4187 v 3.4454 c 1.7835,-0.8918 3.6886,-1.3782 5.9586,-1.3782 3.4859,0 5.31,1.7025 5.31,5.0263 v 1.0134 l -5.3506,-0.041 c -4.783,-0.041 -7.661,2.5132 -7.661,6.8503 0,4.013 2.1078,6.1207 6.2829,6.1207 3.0806,0 5.6748,-1.7429 7.0124,-4.6209 l 0.4054,4.2156 h 6.6071 v -3.4049 z m -9.3229,0.8107 c -2.351,0 -3.5265,-1.1755 -3.5265,-3.4454 0,-2.3105 1.4592,-3.6076 4.094,-3.6076 h 4.6209 v 0.2432 c 0,4.4183 -2.6348,6.8098 -5.1884,6.8098 z" />
        <path
           inkscape:connector-curvature="0"
           id="path1685"
           style="font-style:normal;font-variant:normal;font-weight:600;font-stretch:normal;line-height:1.12;font-family:'Bw Glenn Slab';-inkscape-font-specification:'Bw Glenn Slab Semi-Bold';letter-spacing:0.40913576px;fill:#fffff9;fill-opacity:1;stroke-width:1.01336062"
           d="m 1755.1746,1119.0321 v -28.212 h -7.2962 v 3.4049 h 3.1617 v 24.8071 h -3.1617 v 3.4049 h 10.4579 v -3.4049 z" />
        <path
           inkscape:connector-curvature="0"
           id="path1687"
           style="font-style:normal;font-variant:normal;font-weight:600;font-stretch:normal;line-height:1.12;font-family:'Bw Glenn Slab';-inkscape-font-specification:'Bw Glenn Slab Semi-Bold';letter-spacing:0.40913576px;fill:#fffff9;fill-opacity:1;stroke-width:1.01336062"
           d="m 1767.8549,1119.0321 v -28.212 h -7.2962 v 3.4049 h 3.1617 v 24.8071 h -3.1617 v 3.4049 h 10.4579 v -3.4049 z" />
        <path
           inkscape:connector-curvature="0"
           id="path1689"
           style="font-style:normal;font-variant:normal;font-weight:600;font-stretch:normal;line-height:1.12;font-family:'Bw Glenn Slab';-inkscape-font-specification:'Bw Glenn Slab Semi-Bold';letter-spacing:0.40913576px;fill:#fffff9;fill-opacity:1;stroke-width:1.01336062"
           d="m 1784.9535,1110.1145 -2.9996,-0.6891 c -1.9051,-0.4864 -3.4454,-1.2565 -3.4454,-3.04 0,-1.743 1.8646,-2.9185 4.702,-2.9185 0.9728,0 2.0672,0.081 3.2022,0.2432 v 3.0806 h 3.9318 v -5.3911 c -2.1077,-0.608 -5.1073,-1.0133 -7.4178,-1.0133 -5.1884,0 -8.6743,2.5942 -8.6743,6.4855 0,3.5265 2.7969,5.0668 5.8369,5.7964 l 3.2833,0.7296 c 2.1889,0.5675 4.0535,1.2971 4.0535,3.2833 0,1.9051 -2.0268,3.1212 -5.0668,3.1212 -1.2971,0 -2.7564,-0.1622 -4.1751,-0.4054 v -3.3643 h -3.9724 v 5.5126 c 1.7836,0.7702 5.1479,1.2971 8.3501,1.2971 5.4316,0 9.0797,-2.6347 9.0797,-6.6476 0,-3.6886 -3.04,-5.1884 -6.6881,-6.0802 z" />
        <path
           inkscape:connector-curvature="0"
           id="path1691"
           style="font-style:normal;font-variant:normal;font-weight:600;font-stretch:normal;line-height:1.12;font-family:'Bw Glenn Slab';-inkscape-font-specification:'Bw Glenn Slab Semi-Bold';letter-spacing:0.40913576px;fill:#fffff9;fill-opacity:1;stroke-width:1.01336062"
           d="m 1801.5669,1119.0321 v -28.212 h -7.2962 v 3.4049 h 3.1617 v 24.8071 h -3.1617 v 3.4049 h 10.4579 v -3.4049 z m 12.2819,0 -6.8909,-7.9853 6.1613,-6.8503 h 3.4049 v -3.4049 h -5.1479 l -0.04,0.041 v -0.041 h -5.5127 v 3.4049 h 2.5942 l -5.9991,6.8909 9.2013,11.3496 h 5.3505 v -3.4049 z" />
        <path
           inkscape:connector-curvature="0"
           id="path1693"
           style="font-style:normal;font-variant:normal;font-weight:600;font-stretch:normal;line-height:1.12;font-family:'Bw Glenn Slab';-inkscape-font-specification:'Bw Glenn Slab Semi-Bold';letter-spacing:0.40913576px;fill:#fffff9;fill-opacity:1;stroke-width:1.01336062"
           d="m 1836.0224,1119.0321 v -10.7416 c 0,-5.1884 -2.8374,-7.9042 -8.3906,-7.9042 -2.7564,0 -5.0668,0.4864 -7.0125,1.4187 v 3.4454 c 1.7835,-0.8918 3.6886,-1.3782 5.9586,-1.3782 3.4859,0 5.31,1.7025 5.31,5.0263 v 1.0134 l -5.3506,-0.041 c -4.783,-0.041 -7.661,2.5132 -7.661,6.8503 0,4.013 2.1078,6.1207 6.2829,6.1207 3.0806,0 5.6748,-1.7429 7.0124,-4.6209 l 0.4054,4.2156 h 6.6071 v -3.4049 z m -9.3229,0.8107 c -2.351,0 -3.5265,-1.1755 -3.5265,-3.4454 0,-2.3105 1.4592,-3.6076 4.094,-3.6076 h 4.6209 v 0.2432 c 0,4.4183 -2.6348,6.8098 -5.1884,6.8098 z" />
        <path
           inkscape:connector-curvature="0"
           id="path1695"
           style="font-style:normal;font-variant:normal;font-weight:600;font-stretch:normal;line-height:1.12;font-family:'Bw Glenn Slab';-inkscape-font-specification:'Bw Glenn Slab Semi-Bold';letter-spacing:0.40913576px;fill:#fffff9;fill-opacity:1;stroke-width:1.01336062"
           d="m 1855.3985,1100.3863 c -3.6076,0 -6.0397,1.743 -7.4178,4.5398 l -0.041,-0.7296 h 0.041 l -0.3243,-3.4049 h -6.7287 v 3.4049 h 3.1617 v 23.7532 h -3.1617 v 3.4049 h 11.4712 v -3.4049 h -4.175 v -9.2013 c 1.4187,2.5131 3.7697,4.0939 7.1746,4.0939 5.31,0 8.7959,-4.4587 8.7959,-11.1469 0,-6.7693 -3.4859,-11.3091 -8.7959,-11.3091 z m -1.3377,18.889 c -3.5265,0 -5.8369,-3.0806 -5.8369,-7.661 0,-4.5804 2.3104,-7.661 5.8369,-7.661 3.486,0 5.837,3.0806 5.837,7.7015 0,4.5804 -2.351,7.6205 -5.837,7.6205 z" />
        <path
           inkscape:connector-curvature="0"
           id="path1697"
           style="font-style:normal;font-variant:normal;font-weight:600;font-stretch:normal;line-height:1.12;font-family:'Bw Glenn Slab';-inkscape-font-specification:'Bw Glenn Slab Semi-Bold';letter-spacing:0.40913576px;fill:#fffff9;fill-opacity:1;stroke-width:1.01336062"
           d="m 1886.4421,1111.1279 c 0,-6.445 -3.4454,-10.7416 -8.6338,-10.7416 -5.9991,0 -10.012,4.4588 -10.012,11.1469 0,7.1341 3.8508,11.3091 10.3768,11.3091 2.8374,0 5.4722,-0.5269 7.4583,-1.3376 v -3.4454 c -1.7024,0.8107 -4.0129,1.3376 -6.3639,1.3376 -4.4182,0 -6.8503,-2.351 -7.1746,-6.8503 h 14.3492 z m -8.8365,-7.2557 c 2.7969,0 4.621,2.27 4.7831,5.837 h -10.2147 c 0.4864,-3.6481 2.4726,-5.837 5.4316,-5.837 z" />
        <path
           inkscape:connector-curvature="0"
           id="path1699"
           style="font-style:normal;font-variant:normal;font-weight:600;font-stretch:normal;line-height:1.12;font-family:'Bw Glenn Slab';-inkscape-font-specification:'Bw Glenn Slab Semi-Bold';letter-spacing:0.40913576px;fill:#fffff9;fill-opacity:1;stroke-width:1.01336062"
           d="m 1899.5873,1119.2753 c -1.7835,0 -2.9185,-1.1349 -2.9185,-2.7969 v -12.2819 h 6.7693 v -3.4049 h -6.7693 v -5.5532 h -4.0534 v 5.5532 h -3.7697 v 3.4049 h 3.6886 v 13.1332 c 0,3.3238 2.3105,5.5126 5.7559,5.5126 2.0673,0 4.0535,-0.3242 5.4316,-0.8917 v -3.4049 c -1.2565,0.4864 -2.6753,0.7296 -4.1345,0.7296 z" />
      </g>
    </g>
  </g>
</svg>
