<?xml version="1.0" encoding="UTF-8" standalone="no"?>
<!-- Created with Inkscape (http://www.inkscape.org/) -->

<svg
   xmlns:dc="http://purl.org/dc/elements/1.1/"
   xmlns:cc="http://creativecommons.org/ns#"
   xmlns:rdf="http://www.w3.org/1999/02/22-rdf-syntax-ns#"
   xmlns:svg="http://www.w3.org/2000/svg"
   xmlns="http://www.w3.org/2000/svg"
   xmlns:sodipodi="http://sodipodi.sourceforge.net/DTD/sodipodi-0.dtd"
   xmlns:inkscape="http://www.inkscape.org/namespaces/inkscape"
   width="173.92862mm"
   height="70.095795mm"
   viewBox="0 0 173.92862 70.095795"
   version="1.1"
   id="svg995"
   inkscape:version="0.92.3 (2405546, 2018-03-11)"
   sodipodi:docname="sas-logo-colour-with-text.svg">
  <defs
     id="defs989" />
  <sodipodi:namedview
     id="base"
     pagecolor="#ffffff"
     bordercolor="#666666"
     borderopacity="1.0"
     inkscape:pageopacity="0.0"
     inkscape:pageshadow="2"
     inkscape:zoom="0.98994949"
     inkscape:cx="133.93117"
     inkscape:cy="252.8096"
     inkscape:document-units="mm"
     inkscape:current-layer="layer1"
     showgrid="false"
     fit-margin-top="5"
     fit-margin-left="5"
     fit-margin-right="5"
     fit-margin-bottom="5"
     inkscape:window-width="1920"
     inkscape:window-height="1020"
     inkscape:window-x="0"
     inkscape:window-y="34"
     inkscape:window-maximized="1" />
  <metadata
     id="metadata992">
    <rdf:RDF>
      <cc:Work
         rdf:about="">
        <dc:format>image/svg+xml</dc:format>
        <dc:type
           rdf:resource="http://purl.org/dc/dcmitype/StillImage" />
        <dc:title></dc:title>
      </cc:Work>
    </rdf:RDF>
  </metadata>
  <g
     inkscape:label="Layer 1"
     inkscape:groupmode="layer"
     id="layer1"
     transform="translate(94.846944,25.320066)">
    <g
       transform="matrix(0.35277777,0,0,-0.35277777,-621.585,-22.557253)"
       id="g3121">
      <path
         inkscape:connector-curvature="0"
         id="path2093"
         style="fill:#4d4499;fill-opacity:1;fill-rule:nonzero;stroke:none;stroke-width:0.04533703"
         d="m 1592.4641,-176.69192 c 47.0408,0 85.1747,38.13434 85.1747,85.175134 0,47.040797 -38.1339,85.1751516 -85.1747,85.1751516 -47.0408,0 -85.1751,-38.1343546 -85.1751,-85.1751516 0,-47.040794 38.1343,-85.175134 85.1751,-85.175134" />
      <path
         inkscape:connector-curvature="0"
         id="path878"
         d="m 1591.5801,-152.69922 v 122.365236 h 1.7676 V -152.69922 Z"
         style="color:#000000;font-style:normal;font-variant:normal;font-weight:normal;font-stretch:normal;font-size:medium;line-height:normal;font-family:sans-serif;font-variant-ligatures:normal;font-variant-position:normal;font-variant-caps:normal;font-variant-numeric:normal;font-variant-alternates:normal;font-feature-settings:normal;text-indent:0;text-align:start;text-decoration:none;text-decoration-line:none;text-decoration-style:solid;text-decoration-color:#000000;letter-spacing:normal;word-spacing:normal;text-transform:none;writing-mode:lr-tb;direction:ltr;text-orientation:mixed;dominant-baseline:auto;baseline-shift:baseline;text-anchor:start;white-space:normal;shape-padding:0;clip-rule:nonzero;display:inline;overflow:visible;visibility:visible;opacity:1;isolation:auto;mix-blend-mode:normal;color-interpolation:sRGB;color-interpolation-filters:linearRGB;solid-color:#000000;solid-opacity:1;vector-effect:none;fill:#ffffff;fill-opacity:1;fill-rule:nonzero;stroke:none;stroke-width:1.76814425;stroke-linecap:butt;stroke-linejoin:miter;stroke-miterlimit:4;stroke-dasharray:none;stroke-dashoffset:0;stroke-opacity:1;color-rendering:auto;image-rendering:auto;shape-rendering:auto;text-rendering:auto;enable-background:accumulate" />
      <path
         inkscape:connector-curvature="0"
         id="path880"
         d="m 1531.2812,-92.400391 v 1.767579 h 122.3653 v -1.767579 z"
         style="color:#000000;font-style:normal;font-variant:normal;font-weight:normal;font-stretch:normal;font-size:medium;line-height:normal;font-family:sans-serif;font-variant-ligatures:normal;font-variant-position:normal;font-variant-caps:normal;font-variant-numeric:normal;font-variant-alternates:normal;font-feature-settings:normal;text-indent:0;text-align:start;text-decoration:none;text-decoration-line:none;text-decoration-style:solid;text-decoration-color:#000000;letter-spacing:normal;word-spacing:normal;text-transform:none;writing-mode:lr-tb;direction:ltr;text-orientation:mixed;dominant-baseline:auto;baseline-shift:baseline;text-anchor:start;white-space:normal;shape-padding:0;clip-rule:nonzero;display:inline;overflow:visible;visibility:visible;opacity:1;isolation:auto;mix-blend-mode:normal;color-interpolation:sRGB;color-interpolation-filters:linearRGB;solid-color:#000000;solid-opacity:1;vector-effect:none;fill:#ffffff;fill-opacity:1;fill-rule:nonzero;stroke:none;stroke-width:1.76814425;stroke-linecap:butt;stroke-linejoin:miter;stroke-miterlimit:4;stroke-dasharray:none;stroke-dashoffset:0;stroke-opacity:1;color-rendering:auto;image-rendering:auto;shape-rendering:auto;text-rendering:auto;enable-background:accumulate" />
      <path
         inkscape:connector-curvature="0"
         id="path882"
         d="m 1635.1016,-135.4043 -86.5254,86.525394 1.25,1.25 86.5254,-86.525394 z"
         style="color:#000000;font-style:normal;font-variant:normal;font-weight:normal;font-stretch:normal;font-size:medium;line-height:normal;font-family:sans-serif;font-variant-ligatures:normal;font-variant-position:normal;font-variant-caps:normal;font-variant-numeric:normal;font-variant-alternates:normal;font-feature-settings:normal;text-indent:0;text-align:start;text-decoration:none;text-decoration-line:none;text-decoration-style:solid;text-decoration-color:#000000;letter-spacing:normal;word-spacing:normal;text-transform:none;writing-mode:lr-tb;direction:ltr;text-orientation:mixed;dominant-baseline:auto;baseline-shift:baseline;text-anchor:start;white-space:normal;shape-padding:0;clip-rule:nonzero;display:inline;overflow:visible;visibility:visible;opacity:1;isolation:auto;mix-blend-mode:normal;color-interpolation:sRGB;color-interpolation-filters:linearRGB;solid-color:#000000;solid-opacity:1;vector-effect:none;fill:#ffffff;fill-opacity:1;fill-rule:nonzero;stroke:none;stroke-width:1.76814425;stroke-linecap:butt;stroke-linejoin:miter;stroke-miterlimit:4;stroke-dasharray:none;stroke-dashoffset:0;stroke-opacity:1;color-rendering:auto;image-rendering:auto;shape-rendering:auto;text-rendering:auto;enable-background:accumulate" />
      <path
         inkscape:connector-curvature="0"
         id="path884"
         d="m 1549.8262,-135.4043 -1.25,1.25 86.5254,86.525394 1.25,-1.25 z"
         style="color:#000000;font-style:normal;font-variant:normal;font-weight:normal;font-stretch:normal;font-size:medium;line-height:normal;font-family:sans-serif;font-variant-ligatures:normal;font-variant-position:normal;font-variant-caps:normal;font-variant-numeric:normal;font-variant-alternates:normal;font-feature-settings:normal;text-indent:0;text-align:start;text-decoration:none;text-decoration-line:none;text-decoration-style:solid;text-decoration-color:#000000;letter-spacing:normal;word-spacing:normal;text-transform:none;writing-mode:lr-tb;direction:ltr;text-orientation:mixed;dominant-baseline:auto;baseline-shift:baseline;text-anchor:start;white-space:normal;shape-padding:0;clip-rule:nonzero;display:inline;overflow:visible;visibility:visible;opacity:1;isolation:auto;mix-blend-mode:normal;color-interpolation:sRGB;color-interpolation-filters:linearRGB;solid-color:#000000;solid-opacity:1;vector-effect:none;fill:#ffffff;fill-opacity:1;fill-rule:nonzero;stroke:none;stroke-width:1.76814425;stroke-linecap:butt;stroke-linejoin:miter;stroke-miterlimit:4;stroke-dasharray:none;stroke-dashoffset:0;stroke-opacity:1;color-rendering:auto;image-rendering:auto;shape-rendering:auto;text-rendering:auto;enable-background:accumulate" />
      <path
         inkscape:connector-curvature="0"
         id="path894"
         d="m 1592.4648,-155.00977 -13.1503,31.7461 -31.7461,-13.14844 13.1484,31.74414 -31.7461,13.150392 31.7481,13.15039 -13.1504,31.746094 1.9707,-0.816406 29.7754,-12.333984 13.1503,31.748046 13.1504,-31.746093 31.7442,13.148437 -13.1485,-31.746094 31.7461,-13.15039 -31.7461,-13.148442 13.1485,-31.74609 -31.7461,13.14844 z m 0,4.6211 11.5157,27.80273 -11.5157,4.76953 -11.5175,-4.76953 z m -41.6308,17.24219 27.8047,11.51757 -4.7696,11.51563 -11.5195,4.76953 z m 83.2598,0 -11.5157,27.80273 -11.5176,-4.76953 -4.7695,-11.51758 z m -53.8223,12.19336 9.8828,4.09374 -13.9766,5.78907 z m 24.3847,0 4.0938,9.88281 -13.9766,-5.78907 z m -12.1914,5.05078 17.2422,7.14257 7.1426,17.244145 -7.1426,17.242187 -17.2422,7.142579 -17.2441,-7.142579 -7.1426,-17.242187 7.1426,-17.244145 z m -19.5546,8.09961 -5.7891,13.976558 -4.0938,-9.882808 z m 39.1074,0 9.8828,4.09375 -4.0938,9.882808 z m -50.6231,4.76953 4.7696,11.517575 L 1561.3945,-80 1533.5918,-91.515625 Z m 62.1387,0 27.8027,11.517575 L 1623.5332,-80 l -4.7695,-11.515625 z m -56.4121,13.826169 5.7891,13.976562 -9.8829,-4.09375 z m 50.6855,0 4.0938,9.882812 -9.8828,4.09375 z m -55.455,11.515625 11.5156,4.771484 4.7715,11.515625 -27.8047,11.517578 z m 60.2246,0 11.5176,27.804687 -27.8028,-11.515625 4.7695,-11.519531 z m -13.8262,5.726562 -4.0938,9.884766 -9.8828,-4.09375 z m -32.5723,0.002 13.9766,5.789063 -9.8828,4.09375 z m 16.2852,6.746094 11.5176,4.769531 -11.5157,27.802735 -11.5175,-27.802735 z"
         style="color:#000000;font-style:normal;font-variant:normal;font-weight:normal;font-stretch:normal;font-size:medium;line-height:normal;font-family:sans-serif;font-variant-ligatures:normal;font-variant-position:normal;font-variant-caps:normal;font-variant-numeric:normal;font-variant-alternates:normal;font-feature-settings:normal;text-indent:0;text-align:start;text-decoration:none;text-decoration-line:none;text-decoration-style:solid;text-decoration-color:#000000;letter-spacing:normal;word-spacing:normal;text-transform:none;writing-mode:lr-tb;direction:ltr;text-orientation:mixed;dominant-baseline:auto;baseline-shift:baseline;text-anchor:start;white-space:normal;shape-padding:0;clip-rule:nonzero;display:inline;overflow:visible;visibility:visible;opacity:1;isolation:auto;mix-blend-mode:normal;color-interpolation:sRGB;color-interpolation-filters:linearRGB;solid-color:#000000;solid-opacity:1;vector-effect:none;fill:#ffffff;fill-opacity:1;fill-rule:nonzero;stroke:none;stroke-width:1.76814425;stroke-linecap:butt;stroke-linejoin:miter;stroke-miterlimit:4;stroke-dasharray:none;stroke-dashoffset:0;stroke-opacity:1;color-rendering:auto;image-rendering:auto;shape-rendering:auto;text-rendering:auto;enable-background:accumulate" />
      <g
         id="text2187"
         style="font-style:normal;font-weight:normal;font-size:40.53442383px;line-height:1.12;font-family:sans-serif;letter-spacing:0px;word-spacing:0px;fill:#4d4499;fill-opacity:1;stroke:none;stroke-width:1.01336062"
         transform="scale(1,-1)"
         aria-label="Svenska astronomiska sällskapet">
        <path
           inkscape:connector-curvature="0"
           id="path1761"
           style="font-style:normal;font-variant:normal;font-weight:500;font-stretch:normal;line-height:1.12;font-family:'Bw Glenn Slab';-inkscape-font-specification:'Bw Glenn Slab Medium';letter-spacing:0.40913576px;fill:#4d4499;fill-opacity:1;stroke-width:1.01336062"
           d="m 1719.023,40.636577 -4.6615,-1.337636 c -3.0401,-0.851223 -5.4316,-2.188859 -5.4316,-5.147872 0,-3.202219 3.0401,-5.350544 7.6205,-5.350544 2.0672,0 4.2561,0.243207 6.1612,0.689086 v 5.188406 h 2.959 v -6.890852 c -2.4726,-0.932292 -6.1612,-1.540308 -9.2823,-1.540308 -6.4045,0 -10.6606,3.242754 -10.6606,8.106884 0,4.499321 3.2428,6.526043 7.0935,7.579938 l 4.7831,1.337636 c 3.4049,0.932291 6.2828,2.350996 6.2828,5.715353 0,3.283289 -3.3238,5.512682 -8.3095,5.512682 -2.1484,0 -4.5399,-0.243206 -6.6882,-0.648551 v -5.147872 h -2.959 v 7.012456 c 2.3104,0.810688 6.3639,1.337636 10.093,1.337636 6.6477,0 11.0659,-3.323823 11.0659,-8.309557 0,-4.9452 -3.8913,-6.890852 -8.0663,-8.106885 z" />
        <path
           inkscape:connector-curvature="0"
           id="path1763"
           style="font-style:normal;font-variant:normal;font-weight:500;font-stretch:normal;line-height:1.12;font-family:'Bw Glenn Slab';-inkscape-font-specification:'Bw Glenn Slab Medium';letter-spacing:0.40913576px;fill:#4d4499;fill-opacity:1;stroke-width:1.01336062"
           d="m 1752.6704,35.204964 h -9.4851 v 2.432066 h 3.4049 l -5.5127,15.767891 -5.5127,-15.767891 h 3.4049 v -2.432066 h -9.485 v 2.432066 h 3.04 l 7.0936,19.010645 h 2.9184 l 7.0936,-19.010645 h 3.0401 z" />
        <path
           inkscape:connector-curvature="0"
           id="path1765"
           style="font-style:normal;font-variant:normal;font-weight:500;font-stretch:normal;line-height:1.12;font-family:'Bw Glenn Slab';-inkscape-font-specification:'Bw Glenn Slab Medium';letter-spacing:0.40913576px;fill:#4d4499;fill-opacity:1;stroke-width:1.01336062"
           d="m 1772.3903,45.419639 c 0,-6.363904 -3.3643,-10.620019 -8.4311,-10.620019 -5.7559,0 -9.5661,4.377718 -9.5661,10.90376 0,7.296196 3.6481,11.349639 10.093,11.349639 2.7158,0 5.229,-0.526948 7.0936,-1.378171 v -2.472599 c -1.7025,0.851222 -4.013,1.37817 -6.364,1.37817 -4.9046,0 -7.5799,-2.756341 -7.8231,-8.106885 h 14.9977 z m -8.5527,-8.147419 c 3.2833,0 5.5127,2.796875 5.6343,7.093524 h -12.0388 c 0.4054,-4.377718 2.8374,-7.093524 6.4045,-7.093524 z" />
        <path
           inkscape:connector-curvature="0"
           id="path1767"
           style="font-style:normal;font-variant:normal;font-weight:500;font-stretch:normal;line-height:1.12;font-family:'Bw Glenn Slab';-inkscape-font-specification:'Bw Glenn Slab Medium';letter-spacing:0.40913576px;fill:#4d4499;fill-opacity:1;stroke-width:1.01336062"
           d="M 1797.0473,54.215609 V 43.149711 c 0,-5.472147 -2.351,-8.350091 -6.9314,-8.350091 -3.8913,0 -6.6476,1.824049 -8.0258,4.904665 l -0.2432,-3.972373 0.041,-0.526948 h -5.9585 v 2.432066 h 3.4049 v 16.578579 h -3.4049 v 2.432066 h 10.3362 v -2.432066 h -4.0129 v -9.566124 c 0,-4.418252 2.7158,-7.296196 6.7693,-7.296196 3.3643,0 5.1073,2.148324 5.1073,6.363904 v 12.930482 h 6.3234 v -2.432066 z" />
        <path
           inkscape:connector-curvature="0"
           id="path1769"
           style="font-style:normal;font-variant:normal;font-weight:500;font-stretch:normal;line-height:1.12;font-family:'Bw Glenn Slab';-inkscape-font-specification:'Bw Glenn Slab Medium';letter-spacing:0.40913576px;fill:#4d4499;fill-opacity:1;stroke-width:1.01336062"
           d="m 1813.5201,44.852157 -2.8374,-0.689085 c -2.1889,-0.567482 -4.0129,-1.499774 -4.0129,-3.648098 0,-2.10779 2.1888,-3.485961 5.4721,-3.485961 1.0945,0 2.4726,0.162138 3.8103,0.405345 v 3.48596 h 2.7968 v -5.147872 c -2.0267,-0.567482 -4.7425,-0.972826 -6.8097,-0.972826 -4.9858,0 -8.2691,2.432066 -8.2691,6.039629 0,3.445426 2.7158,4.904666 5.7559,5.67482 l 2.9996,0.729619 c 2.5131,0.648551 4.7425,1.499774 4.7425,3.931839 0,2.229394 -2.2699,3.688633 -5.7154,3.688633 -1.5808,0 -3.4049,-0.202672 -5.0668,-0.567482 v -3.810236 h -2.7968 v 5.31001 c 1.7835,0.729619 4.9857,1.256567 8.0258,1.256567 5.1073,0 8.5527,-2.4726 8.5527,-6.242301 0,-3.688633 -3.0806,-5.066803 -6.6476,-5.958561 z" />
        <path
           inkscape:connector-curvature="0"
           id="path1771"
           style="font-style:normal;font-variant:normal;font-weight:500;font-stretch:normal;line-height:1.12;font-family:'Bw Glenn Slab';-inkscape-font-specification:'Bw Glenn Slab Medium';letter-spacing:0.40913576px;fill:#4d4499;fill-opacity:1;stroke-width:1.01336062"
           d="M 1829.4925,54.215609 V 25.030824 h -6.3233 v 2.432065 h 3.4049 v 26.75272 h -3.4049 v 2.432066 h 9.7282 v -2.432066 z m 12.4441,0 -8.2285,-8.958108 7.5394,-7.620471 h 3.4455 v -2.432066 h -9.8904 v 2.432066 h 2.9995 l -7.3367,7.661006 9.9714,11.349639 h 4.6615 v -2.432066 z" />
        <path
           inkscape:connector-curvature="0"
           id="path1773"
           style="font-style:normal;font-variant:normal;font-weight:500;font-stretch:normal;line-height:1.12;font-family:'Bw Glenn Slab';-inkscape-font-specification:'Bw Glenn Slab Medium';letter-spacing:0.40913576px;fill:#4d4499;fill-opacity:1;stroke-width:1.01336062"
           d="M 1863.4807,54.215609 V 42.460626 c 0,-5.026268 -2.6753,-7.661006 -7.8637,-7.661006 -2.6753,0 -4.9047,0.486413 -6.7693,1.418705 v 2.4726 c 1.7835,-0.891758 3.6887,-1.418705 6.0802,-1.418705 3.6886,0 5.6343,1.945652 5.6343,5.674819 v 1.540308 l -6.0802,-0.04053 c -4.6614,0 -7.3772,2.391531 -7.3772,6.607111 0,3.931839 2.1077,5.999095 6.2017,5.999095 3.2428,0 6.0802,-1.945653 7.4178,-5.188406 l 0.2838,4.783062 h 5.8369 v -2.432066 z m -9.1608,0.648551 c -2.7564,0 -4.1345,-1.37817 -4.1345,-4.053442 0,-2.756341 1.6619,-4.256115 4.783,-4.256115 h 5.5938 v 0.526948 c 0,5.026268 -3.2833,7.782609 -6.2423,7.782609 z" />
        <path
           inkscape:connector-curvature="0"
           id="path1775"
           style="font-style:normal;font-variant:normal;font-weight:500;font-stretch:normal;line-height:1.12;font-family:'Bw Glenn Slab';-inkscape-font-specification:'Bw Glenn Slab Medium';letter-spacing:0.40913576px;fill:#4d4499;fill-opacity:1;stroke-width:1.01336062"
           d="M 1721.2929,100.43435 V 88.67937 c 0,-5.026269 -2.6753,-7.661006 -7.8637,-7.661006 -2.6752,0 -4.9046,0.486413 -6.7692,1.418705 v 2.472599 c 1.7835,-0.891757 3.6886,-1.418704 6.0802,-1.418704 3.6886,0 5.6342,1.945652 5.6342,5.674819 v 1.540308 l -6.0801,-0.04053 c -4.6615,0 -7.3773,2.391531 -7.3773,6.607111 0,3.931838 2.1078,5.999088 6.2018,5.999088 3.2427,0 6.0801,-1.94565 7.4178,-5.1884 l 0.2837,4.78306 h 5.837 v -2.43207 z m -9.1608,0.64855 c -2.7563,0 -4.1345,-1.378167 -4.1345,-4.053439 0,-2.756341 1.6619,-4.256114 4.7831,-4.256114 h 5.5937 v 0.526947 c 0,5.026269 -3.2832,7.782606 -6.2423,7.782606 z" />
        <path
           inkscape:connector-curvature="0"
           id="path1777"
           style="font-style:normal;font-variant:normal;font-weight:500;font-stretch:normal;line-height:1.12;font-family:'Bw Glenn Slab';-inkscape-font-specification:'Bw Glenn Slab Medium';letter-spacing:0.40913576px;fill:#4d4499;fill-opacity:1;stroke-width:1.01336062"
           d="m 1737.7157,91.070901 -2.8374,-0.689085 c -2.1889,-0.567482 -4.0129,-1.499774 -4.0129,-3.648099 0,-2.10779 2.1888,-3.48596 5.4721,-3.48596 1.0944,0 2.4726,0.162138 3.8102,0.405344 v 3.485961 h 2.7969 V 81.99119 c -2.0267,-0.567482 -4.7425,-0.972826 -6.8098,-0.972826 -4.9857,0 -8.269,2.432065 -8.269,6.039629 0,3.445426 2.7158,4.904665 5.7559,5.674819 l 2.9996,0.72962 c 2.5131,0.648551 4.7425,1.499774 4.7425,3.931839 0,2.229393 -2.2699,3.688629 -5.7154,3.688629 -1.5808,0 -3.4049,-0.20267 -5.0668,-0.56748 v -3.810234 h -2.7968 v 5.310014 c 1.7835,0.72961 4.9857,1.25656 8.0258,1.25656 5.1073,0 8.5527,-2.4726 8.5527,-6.242299 0,-3.688632 -3.0806,-5.066803 -6.6476,-5.95856 z" />
        <path
           inkscape:connector-curvature="0"
           id="path1779"
           style="font-style:normal;font-variant:normal;font-weight:500;font-stretch:normal;line-height:1.12;font-family:'Bw Glenn Slab';-inkscape-font-specification:'Bw Glenn Slab Medium';letter-spacing:0.40913576px;fill:#4d4499;fill-opacity:1;stroke-width:1.01336062"
           d="m 1757.012,100.75863 c -1.9052,0 -3.1617,-1.216035 -3.1617,-2.999549 V 83.855773 h 7.0124 v -2.432065 h -7.0124 v -5.674819 h -2.878 v 5.674819 h -3.8102 v 2.432065 h 3.7697 v 14.47079 c 0,2.959017 2.0673,4.945197 5.1884,4.945197 1.9457,0 3.7292,-0.28374 5.0263,-0.85122 v -2.432066 c -1.2566,0.526946 -2.6753,0.770156 -4.1345,0.770156 z" />
        <path
           inkscape:connector-curvature="0"
           id="path1781"
           style="font-style:normal;font-variant:normal;font-weight:500;font-stretch:normal;line-height:1.12;font-family:'Bw Glenn Slab';-inkscape-font-specification:'Bw Glenn Slab Medium';letter-spacing:0.40913576px;fill:#4d4499;fill-opacity:1;stroke-width:1.01336062"
           d="m 1778.0956,81.018364 c -4.1751,0 -7.0936,2.188859 -8.5528,5.877491 l -0.2838,-4.904665 0.041,-0.567482 h -5.9586 v 2.432065 h 3.4049 v 16.578577 h -3.4049 v 2.43207 h 10.5795 v -2.43207 h -4.2561 v -8.066348 c 0,-5.066803 3.2022,-8.390625 8.0663,-8.390625 h 1.7836 v -2.959013 z" />
        <path
           inkscape:connector-curvature="0"
           id="path1783"
           style="font-style:normal;font-variant:normal;font-weight:500;font-stretch:normal;line-height:1.12;font-family:'Bw Glenn Slab';-inkscape-font-specification:'Bw Glenn Slab Medium';letter-spacing:0.40913576px;fill:#4d4499;fill-opacity:1;stroke-width:1.01336062"
           d="m 1791.2642,103.27176 c 5.8775,0 9.7688,-4.458784 9.7688,-11.10643 0,-6.68818 -3.8913,-11.146966 -9.7688,-11.146966 -5.8775,0 -9.7688,4.458786 -9.7688,11.146966 0,6.647646 3.8913,11.10643 9.7688,11.10643 z m 0,-2.51313 c -4.0129,0 -6.7288,-3.445428 -6.7288,-8.5933 0,-5.147872 2.7159,-8.593298 6.7288,-8.593298 4.0129,0 6.7287,3.445426 6.7287,8.593298 0,5.147872 -2.7158,8.5933 -6.7287,8.5933 z" />
        <path
           inkscape:connector-curvature="0"
           id="path1785"
           style="font-style:normal;font-variant:normal;font-weight:500;font-stretch:normal;line-height:1.12;font-family:'Bw Glenn Slab';-inkscape-font-specification:'Bw Glenn Slab Medium';letter-spacing:0.40913576px;fill:#4d4499;fill-opacity:1;stroke-width:1.01336062"
           d="M 1825.8121,100.43435 V 89.368455 c 0,-5.472147 -2.3509,-8.350091 -6.9313,-8.350091 -3.8913,0 -6.6477,1.824049 -8.0259,4.904665 l -0.2432,-3.972374 0.041,-0.526947 h -5.9586 v 2.432065 h 3.4049 v 16.578577 h -3.4049 v 2.43207 h 10.3363 v -2.43207 h -4.0129 v -9.566121 c 0,-4.418252 2.7158,-7.296197 6.7692,-7.296197 3.3644,0 5.1074,2.148325 5.1074,6.363905 v 12.930483 h 6.3233 v -2.43207 z" />
        <path
           inkscape:connector-curvature="0"
           id="path1787"
           style="font-style:normal;font-variant:normal;font-weight:500;font-stretch:normal;line-height:1.12;font-family:'Bw Glenn Slab';-inkscape-font-specification:'Bw Glenn Slab Medium';letter-spacing:0.40913576px;fill:#4d4499;fill-opacity:1;stroke-width:1.01336062"
           d="m 1841.8796,103.27176 c 5.8775,0 9.7688,-4.458784 9.7688,-11.10643 0,-6.68818 -3.8913,-11.146966 -9.7688,-11.146966 -5.8775,0 -9.7688,4.458786 -9.7688,11.146966 0,6.647646 3.8913,11.10643 9.7688,11.10643 z m 0,-2.51313 c -4.0129,0 -6.7287,-3.445428 -6.7287,-8.5933 0,-5.147872 2.7158,-8.593298 6.7287,-8.593298 4.0129,0 6.7287,3.445426 6.7287,8.593298 0,5.147872 -2.7158,8.5933 -6.7287,8.5933 z" />
        <path
           inkscape:connector-curvature="0"
           id="path1789"
           style="font-style:normal;font-variant:normal;font-weight:500;font-stretch:normal;line-height:1.12;font-family:'Bw Glenn Slab';-inkscape-font-specification:'Bw Glenn Slab Medium';letter-spacing:0.40913576px;fill:#4d4499;fill-opacity:1;stroke-width:1.01336062"
           d="M 1889.6013,100.43435 V 88.963111 c 0,-5.188406 -2.2699,-7.944747 -6.526,-7.944747 -3.7698,0 -6.4856,1.824049 -7.7827,4.783062 -0.8106,-3.121151 -2.8779,-4.783062 -6.2017,-4.783062 -3.6887,0 -6.2829,1.783514 -7.6205,4.823596 l -0.2432,-3.891305 0.041,-0.526947 h -5.9585 v 2.432065 h 3.4049 v 16.578577 h -3.4049 v 2.43207 h 10.3362 v -2.43207 h -4.0129 v -9.566121 c 0,-4.418252 2.5537,-7.296197 6.3639,-7.296197 3.0807,0 4.702,2.026722 4.702,5.958561 v 13.335827 h 6.3234 v -2.43207 h -3.4049 v -9.566121 c 0,-4.418252 2.5537,-7.296197 6.3639,-7.296197 3.0401,0 4.702,2.026722 4.702,5.958561 v 13.335827 h 6.3234 v -2.43207 z" />
        <path
           inkscape:connector-curvature="0"
           id="path1791"
           style="font-style:normal;font-variant:normal;font-weight:500;font-stretch:normal;line-height:1.12;font-family:'Bw Glenn Slab';-inkscape-font-specification:'Bw Glenn Slab Medium';letter-spacing:0.40913576px;fill:#4d4499;fill-opacity:1;stroke-width:1.01336062"
           d="m 1901.7458,71.249568 h -2.9996 v 5.674819 h 2.9996 z m 0,29.184782 V 81.423708 h -6.2829 v 2.432065 h 3.3644 v 16.578577 h -3.3644 v 2.43207 h 9.6878 v -2.43207 z" />
        <path
           inkscape:connector-curvature="0"
           id="path1793"
           style="font-style:normal;font-variant:normal;font-weight:500;font-stretch:normal;line-height:1.12;font-family:'Bw Glenn Slab';-inkscape-font-specification:'Bw Glenn Slab Medium';letter-spacing:0.40913576px;fill:#4d4499;fill-opacity:1;stroke-width:1.01336062"
           d="m 1918.6436,91.070901 -2.8375,-0.689085 c -2.1888,-0.567482 -4.0129,-1.499774 -4.0129,-3.648099 0,-2.10779 2.1889,-3.48596 5.4722,-3.48596 1.0944,0 2.4726,0.162138 3.8102,0.405344 v 3.485961 h 2.7969 V 81.99119 c -2.0267,-0.567482 -4.7425,-0.972826 -6.8098,-0.972826 -4.9857,0 -8.269,2.432065 -8.269,6.039629 0,3.445426 2.7158,4.904665 5.7559,5.674819 l 2.9995,0.72962 c 2.5132,0.648551 4.7425,1.499774 4.7425,3.931839 0,2.229393 -2.2699,3.688629 -5.7153,3.688629 -1.5808,0 -3.4049,-0.20267 -5.0668,-0.56748 v -3.810234 h -2.7969 v 5.310014 c 1.7835,0.72961 4.9858,1.25656 8.0258,1.25656 5.1074,0 8.5528,-2.4726 8.5528,-6.242299 0,-3.688632 -3.0806,-5.066803 -6.6476,-5.95856 z" />
        <path
           inkscape:connector-curvature="0"
           id="path1795"
           style="font-style:normal;font-variant:normal;font-weight:500;font-stretch:normal;line-height:1.12;font-family:'Bw Glenn Slab';-inkscape-font-specification:'Bw Glenn Slab Medium';letter-spacing:0.40913576px;fill:#4d4499;fill-opacity:1;stroke-width:1.01336062"
           d="M 1934.616,100.43435 V 71.249568 h -6.3234 v 2.432065 h 3.4049 v 26.752717 h -3.4049 v 2.43207 h 9.7283 v -2.43207 z m 12.4441,0 -8.2285,-8.958105 7.5394,-7.620472 h 3.4454 v -2.432065 h -9.8904 v 2.432065 h 2.9996 l -7.3368,7.661007 9.9715,11.34964 h 4.6615 v -2.43207 z" />
        <path
           inkscape:connector-curvature="0"
           id="path1797"
           style="font-style:normal;font-variant:normal;font-weight:500;font-stretch:normal;line-height:1.12;font-family:'Bw Glenn Slab';-inkscape-font-specification:'Bw Glenn Slab Medium';letter-spacing:0.40913576px;fill:#4d4499;fill-opacity:1;stroke-width:1.01336062"
           d="M 1968.6041,100.43435 V 88.67937 c 0,-5.026269 -2.6753,-7.661006 -7.8637,-7.661006 -2.6752,0 -4.9046,0.486413 -6.7692,1.418705 v 2.472599 c 1.7835,-0.891757 3.6886,-1.418704 6.0801,-1.418704 3.6887,0 5.6343,1.945652 5.6343,5.674819 v 1.540308 l -6.0801,-0.04053 c -4.6615,0 -7.3773,2.391531 -7.3773,6.607111 0,3.931838 2.1078,5.999088 6.2018,5.999088 3.2427,0 6.0801,-1.94565 7.4178,-5.1884 l 0.2837,4.78306 h 5.837 v -2.43207 z m -9.1608,0.64855 c -2.7563,0 -4.1345,-1.378167 -4.1345,-4.053439 0,-2.756341 1.6619,-4.256114 4.7831,-4.256114 h 5.5937 v 0.526947 c 0,5.026269 -3.2833,7.782606 -6.2423,7.782606 z" />
        <path
           inkscape:connector-curvature="0"
           id="path1799"
           style="font-style:normal;font-variant:normal;font-weight:500;font-stretch:normal;line-height:1.12;font-family:'Bw Glenn Slab';-inkscape-font-specification:'Bw Glenn Slab Medium';letter-spacing:0.40913576px;fill:#4d4499;fill-opacity:1;stroke-width:1.01336062"
           d="m 1715.456,137.28964 -2.8374,-0.68908 c -2.1889,-0.56748 -4.013,-1.49977 -4.013,-3.6481 0,-2.10779 2.1889,-3.48596 5.4722,-3.48596 1.0944,0 2.4726,0.16214 3.8102,0.40534 v 3.48597 h 2.7969 v -5.14788 c -2.0267,-0.56748 -4.7425,-0.97282 -6.8098,-0.97282 -4.9857,0 -8.269,2.43206 -8.269,6.03963 0,3.44542 2.7158,4.90466 5.7559,5.67482 l 2.9995,0.72962 c 2.5132,0.64855 4.7426,1.49977 4.7426,3.93183 0,2.2294 -2.27,3.68864 -5.7154,3.68864 -1.5808,0 -3.4049,-0.20267 -5.0668,-0.56748 v -3.81024 h -2.7969 v 5.31001 c 1.7835,0.72962 4.9858,1.25657 8.0258,1.25657 5.1074,0 8.5528,-2.4726 8.5528,-6.24231 0,-3.68863 -3.0806,-5.0668 -6.6476,-5.95856 z" />
        <path
           inkscape:connector-curvature="0"
           id="path1801"
           style="font-style:normal;font-variant:normal;font-weight:500;font-stretch:normal;line-height:1.12;font-family:'Bw Glenn Slab';-inkscape-font-specification:'Bw Glenn Slab Medium';letter-spacing:0.40913576px;fill:#4d4499;fill-opacity:1;stroke-width:1.01336062"
           d="m 1732.8877,117.46831 h -2.9185 v 5.67482 h 2.9185 z m 7.134,0 h -2.9185 v 5.67482 h 2.9185 z m 2.0267,29.18479 v -11.75499 c 0,-5.02627 -2.6752,-7.661 -7.8636,-7.661 -2.6753,0 -4.9047,0.48641 -6.7693,1.4187 v 2.4726 c 1.7835,-0.89176 3.6886,-1.4187 6.0802,-1.4187 3.6886,0 5.6343,1.94565 5.6343,5.67482 v 1.5403 l -6.0802,-0.0405 c -4.6615,0 -7.3773,2.39153 -7.3773,6.60711 0,3.93184 2.1078,5.9991 6.2018,5.9991 3.2427,0 6.0802,-1.94566 7.4178,-5.18841 l 0.2837,4.78306 h 5.837 v -2.43206 z m -9.1607,0.64855 c -2.7564,0 -4.1346,-1.37817 -4.1346,-4.05345 0,-2.75634 1.662,-4.25611 4.7831,-4.25611 h 5.5938 v 0.52695 c 0,5.02627 -3.2833,7.78261 -6.2423,7.78261 z" />
        <path
           inkscape:connector-curvature="0"
           id="path1803"
           style="font-style:normal;font-variant:normal;font-weight:500;font-stretch:normal;line-height:1.12;font-family:'Bw Glenn Slab';-inkscape-font-specification:'Bw Glenn Slab Medium';letter-spacing:0.40913576px;fill:#4d4499;fill-opacity:1;stroke-width:1.01336062"
           d="m 1753.7287,146.6531 v -29.18479 h -6.3234 v 2.43207 h 3.4049 v 26.75272 h -3.4049 v 2.43206 h 9.7283 v -2.43206 z" />
        <path
           inkscape:connector-curvature="0"
           id="path1805"
           style="font-style:normal;font-variant:normal;font-weight:500;font-stretch:normal;line-height:1.12;font-family:'Bw Glenn Slab';-inkscape-font-specification:'Bw Glenn Slab Medium';letter-spacing:0.40913576px;fill:#4d4499;fill-opacity:1;stroke-width:1.01336062"
           d="m 1765.8548,146.6531 v -29.18479 h -6.3234 v 2.43207 h 3.4049 v 26.75272 h -3.4049 v 2.43206 h 9.7283 v -2.43206 z" />
        <path
           inkscape:connector-curvature="0"
           id="path1807"
           style="font-style:normal;font-variant:normal;font-weight:500;font-stretch:normal;line-height:1.12;font-family:'Bw Glenn Slab';-inkscape-font-specification:'Bw Glenn Slab Medium';letter-spacing:0.40913576px;fill:#4d4499;fill-opacity:1;stroke-width:1.01336062"
           d="m 1782.7234,137.28964 -2.8374,-0.68908 c -2.1888,-0.56748 -4.0129,-1.49977 -4.0129,-3.6481 0,-2.10779 2.1889,-3.48596 5.4722,-3.48596 1.0944,0 2.4726,0.16214 3.8102,0.40534 v 3.48597 h 2.7969 v -5.14788 c -2.0267,-0.56748 -4.7426,-0.97282 -6.8098,-0.97282 -4.9857,0 -8.269,2.43206 -8.269,6.03963 0,3.44542 2.7158,4.90466 5.7559,5.67482 l 2.9995,0.72962 c 2.5131,0.64855 4.7425,1.49977 4.7425,3.93183 0,2.2294 -2.2699,3.68864 -5.7153,3.68864 -1.5809,0 -3.4049,-0.20267 -5.0668,-0.56748 v -3.81024 h -2.7969 v 5.31001 c 1.7835,0.72962 4.9857,1.25657 8.0258,1.25657 5.1074,0 8.5528,-2.4726 8.5528,-6.24231 0,-3.68863 -3.0806,-5.0668 -6.6477,-5.95856 z" />
        <path
           inkscape:connector-curvature="0"
           id="path1809"
           style="font-style:normal;font-variant:normal;font-weight:500;font-stretch:normal;line-height:1.12;font-family:'Bw Glenn Slab';-inkscape-font-specification:'Bw Glenn Slab Medium';letter-spacing:0.40913576px;fill:#4d4499;fill-opacity:1;stroke-width:1.01336062"
           d="m 1798.6959,146.6531 v -29.18479 h -6.3234 v 2.43207 h 3.4049 v 26.75272 h -3.4049 v 2.43206 h 9.7283 v -2.43206 z m 12.4441,0 -8.2285,-8.95811 7.5394,-7.62047 h 3.4454 v -2.43207 h -9.8904 v 2.43207 h 2.9995 l -7.3367,7.661 9.9715,11.34964 h 4.6614 v -2.43206 z" />
        <path
           inkscape:connector-curvature="0"
           id="path1811"
           style="font-style:normal;font-variant:normal;font-weight:500;font-stretch:normal;line-height:1.12;font-family:'Bw Glenn Slab';-inkscape-font-specification:'Bw Glenn Slab Medium';letter-spacing:0.40913576px;fill:#4d4499;fill-opacity:1;stroke-width:1.01336062"
           d="m 1832.684,146.6531 v -11.75499 c 0,-5.02627 -2.6753,-7.661 -7.8637,-7.661 -2.6753,0 -4.9047,0.48641 -6.7692,1.4187 v 2.4726 c 1.7835,-0.89176 3.6886,-1.4187 6.0801,-1.4187 3.6887,0 5.6343,1.94565 5.6343,5.67482 v 1.5403 l -6.0801,-0.0405 c -4.6615,0 -7.3773,2.39153 -7.3773,6.60711 0,3.93184 2.1078,5.9991 6.2018,5.9991 3.2427,0 6.0801,-1.94566 7.4178,-5.18841 l 0.2837,4.78306 h 5.8369 v -2.43206 z m -9.1608,0.64855 c -2.7563,0 -4.1345,-1.37817 -4.1345,-4.05345 0,-2.75634 1.6619,-4.25611 4.7831,-4.25611 h 5.5937 v 0.52695 c 0,5.02627 -3.2833,7.78261 -6.2423,7.78261 z" />
        <path
           inkscape:connector-curvature="0"
           id="path1813"
           style="font-style:normal;font-variant:normal;font-weight:500;font-stretch:normal;line-height:1.12;font-family:'Bw Glenn Slab';-inkscape-font-specification:'Bw Glenn Slab Medium';letter-spacing:0.40913576px;fill:#4d4499;fill-opacity:1;stroke-width:1.01336062"
           d="m 1851.9847,127.23711 c -3.9724,0 -6.4855,2.02672 -7.7826,5.10733 l -0.2432,-4.70199 h -5.9586 v 2.43207 h 3.4049 v 25.49615 h -3.4049 v 2.43207 h 10.8227 v -2.43207 h -4.4993 v -10.90376 c 1.3376,2.95901 3.8102,4.8236 7.661,4.8236 5.31,0 8.8365,-4.41826 8.8365,-11.0659 0,-6.72872 -3.5265,-11.1875 -8.8365,-11.1875 z m -0.9323,19.74026 c -4.0534,0 -6.7287,-3.44542 -6.7287,-8.5933 0,-5.14787 2.6753,-8.59329 6.7287,-8.59329 4.0129,0 6.7287,3.44542 6.7287,8.63383 0,5.14787 -2.7158,8.55276 -6.7287,8.55276 z" />
        <path
           inkscape:connector-curvature="0"
           id="path1815"
           style="font-style:normal;font-variant:normal;font-weight:500;font-stretch:normal;line-height:1.12;font-family:'Bw Glenn Slab';-inkscape-font-specification:'Bw Glenn Slab Medium';letter-spacing:0.40913576px;fill:#4d4499;fill-opacity:1;stroke-width:1.01336062"
           d="m 1882.9897,137.85713 c 0,-6.36391 -3.3643,-10.62002 -8.4311,-10.62002 -5.7559,0 -9.5661,4.37772 -9.5661,10.90376 0,7.29619 3.6481,11.34964 10.093,11.34964 2.7158,0 5.229,-0.52695 7.0935,-1.37817 v -2.4726 c -1.7024,0.85122 -4.0129,1.37817 -6.3639,1.37817 -4.9046,0 -7.5799,-2.75634 -7.8231,-8.10689 h 14.9977 z m -8.5527,-8.14742 c 3.2833,0 5.5127,2.79687 5.6343,7.09352 h -12.0388 c 0.4054,-4.37772 2.8374,-7.09352 6.4045,-7.09352 z" />
        <path
           inkscape:connector-curvature="0"
           id="path1817"
           style="font-style:normal;font-variant:normal;font-weight:500;font-stretch:normal;line-height:1.12;font-family:'Bw Glenn Slab';-inkscape-font-specification:'Bw Glenn Slab Medium';letter-spacing:0.40913576px;fill:#4d4499;fill-opacity:1;stroke-width:1.01336062"
           d="m 1895.6504,146.97737 c -1.9051,0 -3.1617,-1.21603 -3.1617,-2.99955 v -13.9033 h 7.0125 v -2.43207 h -7.0125 v -5.67482 h -2.8779 v 5.67482 h -3.8103 v 2.43207 h 3.7697 v 14.47079 c 0,2.95901 2.0673,4.9452 5.1884,4.9452 1.9457,0 3.7292,-0.28374 5.0263,-0.85123 v -2.43206 c -1.2566,0.52695 -2.6753,0.77015 -4.1345,0.77015 z" />
      </g>
    </g>
  </g>
</svg>
