<?xml version="1.0" encoding="UTF-8" standalone="no"?>
<!-- Created with Inkscape (http://www.inkscape.org/) -->

<svg
   xmlns:dc="http://purl.org/dc/elements/1.1/"
   xmlns:cc="http://creativecommons.org/ns#"
   xmlns:rdf="http://www.w3.org/1999/02/22-rdf-syntax-ns#"
   xmlns:svg="http://www.w3.org/2000/svg"
   xmlns="http://www.w3.org/2000/svg"
   xmlns:sodipodi="http://sodipodi.sourceforge.net/DTD/sodipodi-0.dtd"
   xmlns:inkscape="http://www.inkscape.org/namespaces/inkscape"
   width="586.57745mm"
   height="180.57611mm"
   viewBox="0 0 586.57745 180.57611"
   version="1.1"
   id="svg5430"
   inkscape:version="0.92.5 (2060ec1f9f, 2020-04-08)"
   sodipodi:docname="andes-logo-banner-funky.svg"
   inkscape:export-filename="/home/alexis/sync/perso/design/andes-logo/v1/andes-logo-banner-light.png"
   inkscape:export-xdpi="114.42"
   inkscape:export-ydpi="114.42">
  <defs
     id="defs5424" />
  <sodipodi:namedview
     id="base"
     pagecolor="#ffffff"
     bordercolor="#666666"
     borderopacity="1.0"
     inkscape:pageopacity="0.0"
     inkscape:pageshadow="2"
     inkscape:zoom="0.35"
     inkscape:cx="1374.7582"
     inkscape:cy="200.01673"
     inkscape:document-units="mm"
     inkscape:current-layer="layer1"
     showgrid="false"
     fit-margin-top="0"
     fit-margin-left="0"
     fit-margin-right="0"
     fit-margin-bottom="0"
     inkscape:window-width="1920"
     inkscape:window-height="1018"
     inkscape:window-x="0"
     inkscape:window-y="34"
     inkscape:window-maximized="1" />
  <metadata
     id="metadata5427">
    <rdf:RDF>
      <cc:Work
         rdf:about="">
        <dc:format>image/svg+xml</dc:format>
        <dc:type
           rdf:resource="http://purl.org/dc/dcmitype/StillImage" />
        <dc:title></dc:title>
      </cc:Work>
    </rdf:RDF>
  </metadata>
  <g
     inkscape:label="Layer 1"
     inkscape:groupmode="layer"
     id="layer1"
     transform="translate(233.71431,-21.178316)">
    <g
       id="g1113"
       transform="translate(-133.92685,-196.15007)">
      <g
         id="g4932"
         transform="translate(101.4039,-125.09836)">
        <path
           inkscape:connector-curvature="0"
           id="path4914"
           d="m -48.445082,439.42761 -12.380394,-21.44716 -12.380347,-21.44716 -15.60135,-15.26098 m 0,0 -12.004177,13.17436 -6.78367,14.04445 -6.78367,17.52477 -12.00418,9.69403 -13.74433,13.17437 -8.9589,14.04444 -5.47853,13.60941 -9.39395,13.6094 h 80.727024 l 34.786474,-50.71993"
           style="fill:#475056;fill-opacity:1;stroke-width:0.47419527"
           sodipodi:nodetypes="ccccccccccccccc" />
        <path
           style="opacity:1;vector-effect:none;fill:#ff9a00;fill-opacity:1;stroke:none;stroke-width:2.63153291;stroke-linecap:butt;stroke-linejoin:miter;stroke-miterlimit:4;stroke-dasharray:none;stroke-dashoffset:0;stroke-opacity:1"
           d="m -130.25772,386.58233 a 22.100315,22.100315 0 0 0 -22.10035,22.10036 22.100315,22.100315 0 0 0 22.10035,22.10036 22.100315,22.100315 0 0 0 3.02709,-0.23449 l 9.17392,-7.40877 8.53037,-22.03587 a 22.100315,22.100315 0 0 0 -20.73138,-14.52159 z"
           id="path4916"
           inkscape:connector-curvature="0" />
        <path
           sodipodi:nodetypes="ccccc"
           inkscape:connector-curvature="0"
           id="path4918"
           d="M 47.138088,490.14754 H -77.910928 l 31.262253,-45.33027 31.262257,-45.33027 z"
           style="fill:#566168;fill-opacity:1;stroke-width:0.55825454" />
        <g
           id="g4930"
           transform="matrix(1.0950427,0,0,1.0950427,-3.2820513,249.33773)">
          <path
             id="path4920"
             transform="matrix(0.26458333,0,0,0.26458333,-184.59816,72.051487)"
             d="m 740.36523,220.79492 c -7.43712,0.0569 -14.94707,2.26799 -21.57421,6.81055 -17.67238,12.1135 -22.14281,36.06003 -10.0293,53.73242 6.22456,9.081 15.57656,14.66414 25.59375,16.31445 3.78552,-8.19676 9.73955,-15.50952 17.70117,-20.96679 8.09249,-5.54699 17.22612,-8.47862 26.38672,-8.98438 2.17958,-10.02537 0.37212,-20.89175 -5.91797,-30.06836 -7.57094,-11.04524 -19.76495,-16.93266 -32.16016,-16.83789 z"
             style="opacity:1;vector-effect:none;fill:#c55262;fill-opacity:1;stroke:none;stroke-width:13.27566147;stroke-linecap:butt;stroke-linejoin:miter;stroke-miterlimit:4;stroke-dasharray:none;stroke-dashoffset:0;stroke-opacity:1"
             inkscape:connector-curvature="0" />
          <path
             transform="matrix(0.26458333,0,0,0.26458333,-184.59816,72.051487)"
             id="path4922"
             d="m 781.13867,280.82812 c -7.43712,0.0569 -14.94708,2.26799 -21.57422,6.81055 -17.67237,12.1135 -22.14085,36.06199 -10.02734,53.73438 6.22498,9.08161 15.57774,14.66506 25.5957,16.31445 3.78602,-8.19817 9.74161,-15.5141 17.70508,-20.97266 8.09191,-5.54658 17.22351,-8.47737 26.38281,-8.98437 2.17743,-10.02352 0.3672,-20.88738 -5.92187,-30.0625 -7.57095,-11.04525 -19.76495,-16.9346 -32.16016,-16.83985 z"
             style="opacity:1;vector-effect:none;fill:#ff9a00;fill-opacity:1;stroke:none;stroke-width:13.27566242;stroke-linecap:butt;stroke-linejoin:miter;stroke-miterlimit:4;stroke-dasharray:none;stroke-dashoffset:0;stroke-opacity:1"
             inkscape:connector-curvature="0" />
          <path
             id="path4924"
             transform="matrix(0.26458333,0,0,0.26458333,-184.59816,72.051487)"
             d="m 821.91602,340.85352 c -7.43713,0.0569 -14.94708,2.26798 -21.57422,6.81054 -17.67238,12.1135 -22.14086,36.06003 -10.02735,53.73242 6.22502,9.08168 15.57623,14.66655 25.59375,16.31641 3.78599,-8.19868 9.7412,-15.51383 17.70508,-20.97266 8.09134,-5.54619 17.22417,-8.47902 26.38281,-8.98632 2.17755,-10.02371 0.36892,-20.88773 -5.91992,-30.0625 -7.57094,-11.04525 -19.76494,-16.93268 -32.16015,-16.83789 z"
             style="opacity:1;vector-effect:none;fill:#ffe200;fill-opacity:1;stroke:none;stroke-width:13.27566147;stroke-linecap:butt;stroke-linejoin:miter;stroke-miterlimit:4;stroke-dasharray:none;stroke-dashoffset:0;stroke-opacity:1"
             inkscape:connector-curvature="0" />
          <path
             transform="matrix(0.26458333,0,0,0.26458333,-184.59816,72.051487)"
             id="path4926"
             d="m 862.69141,400.87695 c -7.43713,0.0569 -14.94513,2.26799 -21.57227,6.81055 -17.67237,12.11354 -22.14278,36.06202 -10.0293,53.73438 6.22539,9.08217 15.57898,14.66545 25.59766,16.31445 3.7854,-8.19889 9.73982,-15.51422 17.70312,-20.97266 8.09135,-5.5462 17.22251,-8.4767 26.38086,-8.98242 2.17845,-10.02485 0.36979,-20.89036 -5.91992,-30.06641 -7.57093,-11.04522 -19.76495,-16.93267 -32.16015,-16.83789 z"
             style="opacity:1;vector-effect:none;fill:#abc800;fill-opacity:1;stroke:none;stroke-width:13.27566147;stroke-linecap:butt;stroke-linejoin:miter;stroke-miterlimit:4;stroke-dasharray:none;stroke-dashoffset:0;stroke-opacity:1"
             inkscape:connector-curvature="0" />
          <path
             transform="matrix(0.26458333,0,0,0.26458333,-184.59816,72.051487)"
             id="path4928"
             d="m 903.47266,460.9082 c -7.43713,0.0569 -14.94708,2.26603 -21.57422,6.8086 -17.67238,12.1135 -22.14086,36.06198 -10.02735,53.73437 12.1135,17.67235 36.062,22.1428 53.73438,10.0293 17.67237,-12.1135 22.14083,-36.06202 10.02734,-53.73438 -7.57094,-11.04524 -19.76495,-16.93266 -32.16015,-16.83789 z"
             style="opacity:1;vector-effect:none;fill:#3082b9;fill-opacity:1;stroke:none;stroke-width:13.27566242;stroke-linecap:butt;stroke-linejoin:miter;stroke-miterlimit:4;stroke-dasharray:none;stroke-dashoffset:0;stroke-opacity:1"
             inkscape:connector-curvature="0" />
        </g>
      </g>
      <g
         transform="matrix(1.0873904,0,0,1.0873904,95.132663,-631.94494)"
         id="g5284">
        <path
           d="m 121.67024,908.12819 h 11.70668 L 121.2734,843.24538 H 95.875852 l -12.004311,64.88281 h 11.607475 l 2.38102,-12.79799 h 21.429184 z m -21.826017,-23.51258 5.654917,-30.65564 h 6.15097 l 5.65492,30.65564 z"
           style="font-style:normal;font-variant:normal;font-weight:bold;font-stretch:normal;font-size:99.20918274px;line-height:1.24000001;font-family:Beauchef;-inkscape-font-specification:'Beauchef Bold';font-variant-ligatures:normal;font-variant-caps:normal;font-variant-numeric:oldstyle-nums tabular-nums;font-feature-settings:normal;text-align:start;letter-spacing:0px;word-spacing:0px;writing-mode:lr-tb;text-anchor:start;fill:#c55262;fill-opacity:1;stroke:none;stroke-width:1.28287733"
           id="path4934"
           inkscape:connector-curvature="0" />
        <path
           d="m 148.95268,865.86507 18.75054,42.26312 h 15.179 v -64.88281 h -11.50826 v 45.63622 l -20.13947,-45.63622 h -13.69087 v 64.88281 h 11.40906 z"
           style="font-style:normal;font-variant:normal;font-weight:bold;font-stretch:normal;font-size:99.20918274px;line-height:1.24000001;font-family:Beauchef;-inkscape-font-specification:'Beauchef Bold';font-variant-ligatures:normal;font-variant-caps:normal;font-variant-numeric:oldstyle-nums tabular-nums;font-feature-settings:normal;text-align:start;letter-spacing:0px;word-spacing:0px;writing-mode:lr-tb;text-anchor:start;fill:#ff9a00;fill-opacity:1;stroke:none;stroke-width:1.28287733"
           id="path4936"
           inkscape:connector-curvature="0" />
        <path
           d="m 190.62052,843.24538 v 64.88281 h 18.55212 c 13.09561,0 23.21495,-10.7146 23.21495,-22.32207 v -19.74263 c 0,-11.80589 -9.82171,-22.81811 -23.21495,-22.81811 z m 11.40906,54.16821 v -43.35441 h 6.94464 c 7.24227,0 12.00431,5.85334 12.00431,12.00431 v 19.74263 c 0,6.25018 -5.25809,11.60747 -11.9051,11.60747 z"
           style="font-style:normal;font-variant:normal;font-weight:bold;font-stretch:normal;font-size:99.20918274px;line-height:1.24000001;font-family:Beauchef;-inkscape-font-specification:'Beauchef Bold';font-variant-ligatures:normal;font-variant-caps:normal;font-variant-numeric:oldstyle-nums tabular-nums;font-feature-settings:normal;text-align:start;letter-spacing:0px;word-spacing:0px;writing-mode:lr-tb;text-anchor:start;fill:#ffe200;fill-opacity:1;stroke:none;stroke-width:1.28287733"
           id="path4938"
           inkscape:connector-curvature="0" />
        <path
           d="m 273.85689,908.12819 v -10.7146 h -23.01653 v -16.86556 h 17.85765 v -10.8138 h -17.85765 v -15.77426 h 22.42128 V 843.24538 H 239.4313 v 64.88281 z"
           style="font-style:normal;font-variant:normal;font-weight:bold;font-stretch:normal;font-size:99.20918274px;line-height:1.24000001;font-family:Beauchef;-inkscape-font-specification:'Beauchef Bold';font-variant-ligatures:normal;font-variant-caps:normal;font-variant-numeric:oldstyle-nums tabular-nums;font-feature-settings:normal;text-align:start;letter-spacing:0px;word-spacing:0px;writing-mode:lr-tb;text-anchor:start;fill:#abc800;fill-opacity:1;stroke:none;stroke-width:1.28287733"
           id="path4940"
           inkscape:connector-curvature="0" />
        <path
           d="m 305.4053,861.20224 c -0.29762,-4.76204 -2.77785,-8.03594 -8.03594,-8.03594 -4.96046,0 -8.03594,2.97627 -8.03594,7.83752 0,12.10352 28.07619,6.54781 28.07619,28.86988 0,9.92091 -6.5478,19.04816 -20.04025,19.04816 -11.40906,0 -19.54421,-7.73832 -19.84184,-19.74263 h 11.40906 c 0.0992,4.76204 3.07548,9.02804 8.73041,9.02804 4.66283,0 8.33357,-2.97628 8.33357,-8.13516 0,-13.39324 -28.0762,-7.44068 -28.0762,-29.1675 0,-9.7225 7.24227,-18.4529 19.64342,-18.4529 12.40115,0 18.94895,8.43278 19.04816,18.65132 z"
           style="font-style:normal;font-variant:normal;font-weight:bold;font-stretch:normal;font-size:99.20918274px;line-height:1.24000001;font-family:Beauchef;-inkscape-font-specification:'Beauchef Bold';font-variant-ligatures:normal;font-variant-caps:normal;font-variant-numeric:oldstyle-nums tabular-nums;font-feature-settings:normal;text-align:start;letter-spacing:0px;word-spacing:0px;writing-mode:lr-tb;text-anchor:start;fill:#3082b9;fill-opacity:1;stroke:none;stroke-width:1.28287733"
           id="path4942"
           inkscape:connector-curvature="0" />
      </g>
    </g>
  </g>
</svg>
