<?xml version="1.0" encoding="UTF-8" standalone="no"?>
<!-- Created with Inkscape (http://www.inkscape.org/) -->

<svg
   xmlns:dc="http://purl.org/dc/elements/1.1/"
   xmlns:cc="http://creativecommons.org/ns#"
   xmlns:rdf="http://www.w3.org/1999/02/22-rdf-syntax-ns#"
   xmlns:svg="http://www.w3.org/2000/svg"
   xmlns="http://www.w3.org/2000/svg"
   xmlns:sodipodi="http://sodipodi.sourceforge.net/DTD/sodipodi-0.dtd"
   xmlns:inkscape="http://www.inkscape.org/namespaces/inkscape"
   width="1015"
   height="668"
   id="svg3265"
   version="1.1"
   inkscape:version="0.91 r13725"
   sodipodi:docname="logo.svg">
  <defs
     id="defs3267" />
  <sodipodi:namedview
     id="base"
     pagecolor="#ffffff"
     bordercolor="#666666"
     borderopacity="1.0"
     inkscape:pageopacity="0.0"
     inkscape:pageshadow="2"
     inkscape:zoom="0.98994949"
     inkscape:cx="144.45031"
     inkscape:cy="302.3135"
     inkscape:document-units="px"
     inkscape:current-layer="layer1"
     showgrid="false"
     inkscape:window-width="1847"
     inkscape:window-height="1053"
     inkscape:window-x="73"
     inkscape:window-y="27"
     inkscape:window-maximized="1" />
  <metadata
     id="metadata3270">
    <rdf:RDF>
      <cc:Work
         rdf:about="">
        <dc:format>image/svg+xml</dc:format>
        <dc:type
           rdf:resource="http://purl.org/dc/dcmitype/StillImage" />
        <dc:title />
      </cc:Work>
    </rdf:RDF>
  </metadata>
  <g
     inkscape:label="Layer 1"
     inkscape:groupmode="layer"
     id="layer1"
     transform="translate(0,-384.36218)">
    <path
       style="fill:#000000;fill-opacity:0.04731861;stroke:none"
       d="m 0,384.36218 1015,0 0,668.00002 -1015,0 z"
       id="rect4465" />
    <g
       id="layer1-9"
       transform="translate(261.78571,445.99999)">
      <g
         transform="matrix(1.25,0,0,-1.25,81.815536,476.2772)"
         id="g5267">
        <path
           d="m 35.488,179.003 c -8.761,0 -15.867,-7.105 -15.867,-15.867 0,-8.762 7.106,-15.867 15.867,-15.867 8.762,0 15.864,7.105 15.864,15.867 0.003,8.762 -7.102,15.867 -15.864,15.867 z m -6.898,-10.676 1.828,0 4.277,-10.394 -1.754,0 -0.964,2.418 -4.977,0 -0.98,-2.418 -1.723,0 4.293,10.394 z m 7.441,0 1.735,0 3.226,-5.761 0.043,0 3.223,5.761 1.68,0 0,-10.394 -1.633,0 0,3.965 c 0,1.886 0.031,3.714 0.031,3.73 l -0.031,0 c -0.016,-0.016 -0.446,-0.879 -1.235,-2.273 l -1.601,-2.852 -0.953,0 -1.602,2.805 c -0.82,1.441 -1.234,2.304 -1.25,2.32 l -0.027,0 c 0,-0.016 0.027,-1.844 0.027,-3.73 l 0,-3.965 -1.633,0 0,10.394 z m -6.566,-1.855 c -0.012,-0.016 -0.504,-1.203 -0.875,-2.125 l -0.996,-2.512 3.789,0 -1.012,2.512 c -0.371,0.922 -0.848,2.109 -0.859,2.125 l -0.047,0 z"
           style="fill:#ffffff;fill-opacity:1;fill-rule:nonzero;stroke:none"
           id="path4834"
           inkscape:connector-curvature="0" />
        <path
           d="m 66.941,173.663 c 6.024,0 10.598,-4.258 10.598,-10.543 0,-6.254 -4.574,-10.511 -10.598,-10.511 -5.992,0 -10.539,4.257 -10.539,10.511 0,6.285 4.547,10.543 10.539,10.543 z m 0,-18.043 c 4.172,0 7.387,2.867 7.387,7.5 0,4.664 -3.215,7.531 -7.387,7.531 -4.14,0 -7.328,-2.898 -7.328,-7.531 0,-4.605 3.188,-7.5 7.328,-7.5 z"
           style="fill:#ffffff;fill-opacity:1;fill-rule:nonzero;stroke:none"
           id="path4836"
           inkscape:connector-curvature="0" />
        <path
           d="m 82.52,159.066 c 0.261,-2.461 2.375,-3.622 5.156,-3.622 2.578,0 4.14,1.016 4.14,3.071 0,2.867 -3.039,2.926 -5.531,3.504 -2.781,0.636 -6.254,1.738 -6.254,5.879 0,3.738 2.778,5.765 7.121,5.765 3.91,0 6.719,-1.625 7.703,-5.129 l -3.039,-0.808 c -0.55,1.968 -2.027,3.097 -4.691,3.097 -2.605,0 -3.852,-1.07 -3.852,-2.808 0,-2.348 2.344,-2.84 5.243,-3.418 3.011,-0.578 6.543,-1.621 6.543,-6.082 0,-3.91 -2.75,-5.906 -7.383,-5.906 -3.446,0 -7.387,1.101 -8.227,5.617 l 3.071,0.84 z"
           style="fill:#ffffff;fill-opacity:1;fill-rule:nonzero;stroke:none"
           id="path4838"
           inkscape:connector-curvature="0" />
        <path
           d="m 101.863,157.706 -1.91,-4.719 -3.359,0 8.367,20.27 3.562,0 8.34,-20.27 -3.418,0 -1.879,4.719 -9.703,0 z m 6.575,7.789 c -0.723,1.793 -1.649,4.114 -1.68,4.141 l -0.086,0 c -0.031,-0.027 -0.984,-2.344 -1.711,-4.141 l -1.938,-4.894 7.383,0 -1.968,4.894 z"
           style="fill:#ffffff;fill-opacity:1;fill-rule:nonzero;stroke:none"
           id="path4840"
           inkscape:connector-curvature="0" />
        <path
           d="m 119.469,173.257 14.015,0 0,-2.984 -10.828,0 0,-5.301 8.313,0 0,-2.981 -8.313,0 0,-6.023 10.914,0 0,-2.984 -14.101,0 0,20.273 z"
           style="fill:#ffffff;fill-opacity:1;fill-rule:nonzero;stroke:none"
           id="path4842"
           inkscape:connector-curvature="0" />
        <path
           d="m 159.684,167.901 0.937,2.661 0.535,1.593 0.141,0 0.535,-1.578 0.953,-2.676 -3.101,0 m 2.566,5.227 -2.031,0 -3.078,-8.707 0,-0.082 1.316,0 0.871,2.457 3.801,0 0.867,-2.457 1.328,0 0,0.082 -3.074,8.707"
           style="fill:#ffffff;fill-opacity:1;fill-rule:nonzero;stroke:none"
           id="path4844"
           inkscape:connector-curvature="0" />
        <path
           d="m 168.758,170.898 c -0.774,0 -1.387,-0.172 -1.828,-0.508 -0.446,-0.336 -0.664,-0.801 -0.664,-1.395 0,-0.398 0.066,-0.715 0.207,-0.949 0.14,-0.238 0.316,-0.426 0.535,-0.555 0.219,-0.129 0.457,-0.222 0.719,-0.277 0.261,-0.059 0.519,-0.105 0.773,-0.145 0.387,-0.062 0.695,-0.164 0.918,-0.3 0.227,-0.141 0.34,-0.368 0.34,-0.684 0,-0.605 -0.446,-0.906 -1.332,-0.906 -0.332,0 -0.68,0.031 -1.051,0.09 -0.367,0.058 -0.758,0.136 -1.168,0.234 l 0,-1.012 c 0.473,-0.105 0.898,-0.175 1.27,-0.218 0.371,-0.043 0.711,-0.067 1.011,-0.067 0.821,0 1.453,0.172 1.895,0.512 0.437,0.34 0.656,0.82 0.656,1.437 0,0.325 -0.047,0.594 -0.152,0.813 -0.106,0.219 -0.246,0.398 -0.426,0.547 -0.184,0.144 -0.399,0.261 -0.649,0.344 -0.25,0.085 -0.523,0.152 -0.812,0.21 -0.215,0.04 -0.41,0.079 -0.59,0.118 -0.18,0.039 -0.332,0.093 -0.457,0.164 -0.129,0.074 -0.226,0.164 -0.297,0.269 -0.074,0.106 -0.109,0.242 -0.109,0.41 0,0.278 0.113,0.489 0.336,0.637 0.219,0.145 0.555,0.219 0.996,0.219 0.238,0 0.504,-0.024 0.801,-0.07 0.297,-0.051 0.652,-0.118 1.062,-0.204 l 0.047,1.043 c -0.242,0.051 -0.461,0.09 -0.644,0.114 -0.188,0.031 -0.36,0.054 -0.52,0.074 -0.156,0.019 -0.305,0.031 -0.445,0.043 -0.137,0.004 -0.278,0.012 -0.422,0.012"
           style="fill:#ffffff;fill-opacity:1;fill-rule:nonzero;stroke:none"
           id="path4846"
           inkscape:connector-curvature="0" />
        <path
           d="m 174.875,170.898 c -0.773,0 -1.383,-0.172 -1.828,-0.508 -0.445,-0.336 -0.664,-0.801 -0.664,-1.395 0,-0.398 0.07,-0.715 0.207,-0.949 0.14,-0.238 0.316,-0.426 0.535,-0.555 0.219,-0.129 0.457,-0.222 0.719,-0.277 0.261,-0.059 0.519,-0.105 0.773,-0.145 0.387,-0.062 0.692,-0.164 0.922,-0.3 0.223,-0.141 0.336,-0.368 0.336,-0.684 0,-0.605 -0.441,-0.906 -1.332,-0.906 -0.328,0 -0.684,0.031 -1.051,0.09 -0.367,0.058 -0.758,0.136 -1.168,0.234 l 0,-1.012 c 0.473,-0.105 0.899,-0.175 1.27,-0.218 0.371,-0.043 0.711,-0.067 1.011,-0.067 0.821,0 1.454,0.172 1.895,0.512 0.438,0.34 0.656,0.82 0.656,1.437 0,0.325 -0.051,0.594 -0.152,0.813 -0.106,0.219 -0.246,0.398 -0.43,0.547 -0.179,0.144 -0.394,0.261 -0.644,0.344 -0.25,0.085 -0.524,0.152 -0.817,0.21 -0.211,0.04 -0.406,0.079 -0.586,0.118 -0.179,0.039 -0.332,0.093 -0.457,0.164 -0.129,0.074 -0.226,0.164 -0.297,0.269 -0.074,0.106 -0.109,0.242 -0.109,0.41 0,0.278 0.109,0.489 0.332,0.637 0.223,0.145 0.555,0.219 1,0.219 0.238,0 0.504,-0.024 0.801,-0.07 0.297,-0.051 0.652,-0.118 1.062,-0.204 l 0.047,1.043 c -0.246,0.051 -0.461,0.09 -0.644,0.114 -0.188,0.031 -0.36,0.054 -0.52,0.074 -0.156,0.019 -0.304,0.031 -0.445,0.043 -0.137,0.004 -0.277,0.012 -0.422,0.012"
           style="fill:#ffffff;fill-opacity:1;fill-rule:nonzero;stroke:none"
           id="path4848"
           inkscape:connector-curvature="0" />
        <path
           d="m 181.543,165.276 c -0.617,0 -1.066,0.176 -1.344,0.528 -0.277,0.355 -0.414,0.933 -0.414,1.742 0,0.809 0.137,1.387 0.414,1.742 0.278,0.352 0.727,0.528 1.344,0.528 0.617,0 1.066,-0.176 1.348,-0.528 0.281,-0.355 0.418,-0.933 0.418,-1.742 0,-0.809 -0.137,-1.387 -0.418,-1.742 -0.282,-0.352 -0.731,-0.528 -1.348,-0.528 m 0,5.594 c -1.016,0 -1.789,-0.281 -2.316,-0.847 -0.532,-0.567 -0.797,-1.391 -0.797,-2.477 0,-1.086 0.265,-1.91 0.797,-2.477 0.531,-0.566 1.3,-0.851 2.316,-0.851 1.012,0 1.781,0.285 2.309,0.851 0.527,0.567 0.789,1.391 0.789,2.477 0,1.086 -0.262,1.91 -0.789,2.477 -0.528,0.566 -1.297,0.847 -2.309,0.847"
           style="fill:#ffffff;fill-opacity:1;fill-rule:nonzero;stroke:none"
           id="path4850"
           inkscape:connector-curvature="0" />
        <path
           d="m 189.109,170.859 c -2.086,0 -3.125,-1.11 -3.125,-3.325 0,-2.203 1.039,-3.3 3.125,-3.3 0.293,0 0.586,0.015 0.883,0.042 0.297,0.036 0.551,0.079 0.754,0.133 l 0,1.071 c -0.258,-0.055 -0.508,-0.094 -0.742,-0.114 -0.234,-0.019 -0.496,-0.031 -0.789,-0.031 -0.672,0 -1.156,0.176 -1.457,0.524 -0.297,0.347 -0.446,0.91 -0.446,1.687 0,0.766 0.153,1.328 0.461,1.68 0.305,0.355 0.793,0.531 1.465,0.531 0.239,0 0.485,-0.016 0.742,-0.043 0.258,-0.027 0.512,-0.066 0.766,-0.113 l 0,1.082 c -0.234,0.054 -0.5,0.097 -0.793,0.129 -0.293,0.031 -0.574,0.047 -0.844,0.047"
           style="fill:#ffffff;fill-opacity:1;fill-rule:nonzero;stroke:none"
           id="path4852"
           inkscape:connector-curvature="0" />
        <path
           d="m 193.742,170.753 -1.332,0 0,-6.414 1.332,0 0,6.414 m -0.664,2.734 c -0.277,0 -0.476,-0.062 -0.598,-0.183 -0.117,-0.125 -0.175,-0.317 -0.175,-0.578 0,-0.262 0.058,-0.453 0.175,-0.578 0.122,-0.122 0.321,-0.184 0.598,-0.184 0.277,0 0.477,0.062 0.598,0.191 0.125,0.125 0.183,0.317 0.183,0.571 0,0.254 -0.058,0.441 -0.183,0.57 -0.121,0.125 -0.321,0.191 -0.598,0.191"
           style="fill:#ffffff;fill-opacity:1;fill-rule:nonzero;stroke:none"
           id="path4854"
           inkscape:connector-curvature="0" />
        <path
           d="m 197.605,165.253 c -0.621,0 -0.929,0.297 -0.929,0.891 0,0.363 0.109,0.629 0.328,0.789 0.215,0.164 0.601,0.273 1.156,0.328 l 1.129,0.105 0,-1.484 c -0.269,-0.184 -0.551,-0.332 -0.844,-0.453 -0.293,-0.117 -0.574,-0.176 -0.84,-0.176 m 0.415,5.57 c -0.696,0 -1.458,-0.074 -2.282,-0.226 l 0.094,-0.973 c 0.356,0.07 0.699,0.125 1.027,0.16 0.332,0.035 0.633,0.055 0.911,0.055 0.3,0 0.55,-0.023 0.75,-0.066 0.195,-0.043 0.351,-0.118 0.468,-0.227 0.114,-0.105 0.192,-0.246 0.235,-0.414 0.047,-0.172 0.066,-0.387 0.066,-0.648 l 0,-0.344 -1.519,-0.121 c -0.848,-0.063 -1.465,-0.258 -1.852,-0.582 -0.391,-0.325 -0.586,-0.797 -0.586,-1.426 0,-0.563 0.152,-0.992 0.453,-1.289 0.301,-0.297 0.738,-0.446 1.305,-0.446 0.383,0 0.754,0.075 1.125,0.223 0.367,0.145 0.734,0.356 1.097,0.633 l 0.083,0 0.132,-0.797 1.094,0 0,4.371 c 0,0.723 -0.215,1.254 -0.637,1.598 -0.422,0.347 -1.078,0.519 -1.964,0.519"
           style="fill:#ffffff;fill-opacity:1;fill-rule:nonzero;stroke:none"
           id="path4856"
           inkscape:connector-curvature="0" />
        <path
           d="m 204.445,172.558 -1.047,-0.129 -0.199,-1.676 -1.344,0 0,-1.141 1.274,0 0,-3.503 c 0,-0.618 0.164,-1.086 0.496,-1.407 0.336,-0.324 0.82,-0.484 1.461,-0.484 0.207,0 0.418,0.016 0.633,0.043 0.211,0.027 0.41,0.066 0.593,0.113 l 0,1.035 c -0.152,-0.05 -0.296,-0.082 -0.433,-0.101 -0.141,-0.02 -0.266,-0.032 -0.375,-0.032 -0.363,0 -0.629,0.09 -0.797,0.266 -0.168,0.18 -0.25,0.465 -0.25,0.852 l 0,3.218 1.805,0 0,1.141 -1.817,0 0,1.805"
           style="fill:#ffffff;fill-opacity:1;fill-rule:nonzero;stroke:none"
           id="path4858"
           inkscape:connector-curvature="0" />
        <path
           d="m 209.043,170.753 -1.332,0 0,-6.414 1.332,0 0,6.414 m -0.664,2.734 c -0.277,0 -0.477,-0.062 -0.594,-0.183 -0.121,-0.125 -0.18,-0.317 -0.18,-0.578 0,-0.262 0.059,-0.453 0.18,-0.578 0.117,-0.122 0.317,-0.184 0.594,-0.184 0.277,0 0.476,0.062 0.598,0.191 0.125,0.125 0.183,0.317 0.183,0.571 0,0.254 -0.058,0.441 -0.183,0.57 -0.122,0.125 -0.321,0.191 -0.598,0.191"
           style="fill:#ffffff;fill-opacity:1;fill-rule:nonzero;stroke:none"
           id="path4860"
           inkscape:connector-curvature="0" />
        <path
           d="m 213.82,165.276 c -0.621,0 -1.066,0.176 -1.343,0.528 -0.278,0.355 -0.418,0.933 -0.418,1.742 0,0.809 0.14,1.387 0.418,1.742 0.277,0.352 0.722,0.528 1.343,0.528 0.618,0 1.063,-0.176 1.348,-0.528 0.277,-0.355 0.418,-0.933 0.418,-1.742 0,-0.809 -0.141,-1.387 -0.418,-1.742 -0.285,-0.352 -0.73,-0.528 -1.348,-0.528 m 0,5.594 c -1.015,0 -1.789,-0.281 -2.32,-0.847 -0.531,-0.567 -0.793,-1.391 -0.793,-2.477 0,-1.086 0.262,-1.91 0.793,-2.477 0.531,-0.566 1.305,-0.851 2.32,-0.851 1.012,0 1.782,0.285 2.309,0.851 0.527,0.567 0.789,1.391 0.789,2.477 0,1.086 -0.262,1.91 -0.789,2.477 -0.527,0.566 -1.297,0.847 -2.309,0.847"
           style="fill:#ffffff;fill-opacity:1;fill-rule:nonzero;stroke:none"
           id="path4862"
           inkscape:connector-curvature="0" />
        <path
           d="m 222.586,170.87 c -0.356,0 -0.746,-0.066 -1.172,-0.199 -0.422,-0.137 -0.941,-0.352 -1.562,-0.652 l -0.071,0 -0.082,0.734 -1.117,0 0,-6.414 1.328,0 0,4.824 c 0.406,0.188 0.793,0.34 1.16,0.457 0.368,0.114 0.692,0.172 0.969,0.172 0.324,0 0.563,-0.086 0.719,-0.262 0.152,-0.175 0.23,-0.464 0.23,-0.867 l 0,-4.324 1.321,0 0,4.766 c 0,0.593 -0.149,1.035 -0.446,1.328 -0.297,0.293 -0.722,0.437 -1.277,0.437"
           style="fill:#ffffff;fill-opacity:1;fill-rule:nonzero;stroke:none"
           id="path4864"
           inkscape:connector-curvature="0" />
        <path
           d="m 231.961,165.241 c -0.59,0 -1.012,0.176 -1.277,0.528 -0.266,0.351 -0.399,0.945 -0.399,1.777 0,0.863 0.153,1.473 0.461,1.824 0.313,0.352 0.793,0.528 1.453,0.528 0.266,0 0.52,-0.012 0.758,-0.036 0.238,-0.023 0.461,-0.054 0.664,-0.093 l 0,-3.114 c 0,-0.23 -0.043,-0.433 -0.129,-0.605 -0.086,-0.176 -0.207,-0.32 -0.355,-0.441 -0.153,-0.118 -0.328,-0.208 -0.532,-0.274 -0.203,-0.062 -0.417,-0.094 -0.644,-0.094 m 2.98,8.696 -1.32,0 0,-3.172 c -0.215,0.023 -0.433,0.047 -0.664,0.07 -0.23,0.027 -0.473,0.035 -0.723,0.035 -0.5,0 -0.953,-0.07 -1.355,-0.211 -0.406,-0.144 -0.754,-0.355 -1.039,-0.636 -0.289,-0.282 -0.512,-0.637 -0.668,-1.063 -0.152,-0.43 -0.231,-0.926 -0.231,-1.496 0,-1.109 0.227,-1.93 0.68,-2.457 0.449,-0.523 1.117,-0.789 1.992,-0.789 0.887,0 1.551,0.301 1.985,0.902 l 0.074,0 0.105,-0.781 1.164,0 0,9.598"
           style="fill:#ffffff;fill-opacity:1;fill-rule:nonzero;stroke:none"
           id="path4866"
           inkscape:connector-curvature="0" />
        <path
           d="m 242.617,170.753 -1.332,0 0,-4.777 c -0.355,-0.164 -0.723,-0.317 -1.094,-0.457 -0.371,-0.137 -0.726,-0.207 -1.066,-0.207 -0.336,0 -0.57,0.082 -0.711,0.242 -0.137,0.164 -0.207,0.441 -0.207,0.84 l 0,4.359 -1.328,0 0,-4.766 c 0,-0.578 0.141,-1.015 0.426,-1.316 0.285,-0.301 0.711,-0.453 1.273,-0.453 0.242,0 0.469,0.019 0.668,0.055 0.203,0.035 0.41,0.089 0.613,0.16 0.207,0.07 0.43,0.16 0.664,0.273 0.239,0.11 0.52,0.246 0.844,0.403 l 0.047,0 0.086,-0.77 1.117,0 0,6.414"
           style="fill:#ffffff;fill-opacity:1;fill-rule:nonzero;stroke:none"
           id="path4868"
           inkscape:connector-curvature="0" />
        <path
           d="m 167.371,161.249 -1.855,0 -2.067,-5.047 -0.687,-1.867 -0.086,0 -0.676,1.867 -2.066,5.047 -1.856,0 0,-8.793 1.223,0 0,7.164 0.074,0 0.937,-2.457 1.817,-4.347 1.18,0 1.812,4.347 0.941,2.457 0.083,0 0,-7.164 1.226,0 0,8.793"
           style="fill:#ffffff;fill-opacity:1;fill-rule:nonzero;stroke:none"
           id="path4870"
           inkscape:connector-curvature="0" />
        <path
           d="m 171.34,153.374 c -0.621,0 -0.93,0.297 -0.93,0.891 0,0.363 0.11,0.625 0.328,0.789 0.215,0.164 0.602,0.269 1.157,0.328 l 1.128,0.105 0,-1.484 c -0.269,-0.184 -0.55,-0.332 -0.843,-0.453 -0.293,-0.117 -0.571,-0.176 -0.84,-0.176 m 0.414,5.57 c -0.695,0 -1.457,-0.074 -2.281,-0.226 l 0.093,-0.973 c 0.356,0.071 0.7,0.125 1.028,0.16 0.328,0.036 0.633,0.055 0.91,0.055 0.301,0 0.551,-0.023 0.746,-0.066 0.199,-0.043 0.355,-0.118 0.469,-0.227 0.117,-0.105 0.195,-0.246 0.238,-0.414 0.047,-0.172 0.066,-0.387 0.066,-0.648 l 0,-0.344 -1.519,-0.121 c -0.848,-0.063 -1.465,-0.258 -1.852,-0.582 -0.39,-0.324 -0.582,-0.801 -0.582,-1.426 0,-0.563 0.149,-0.992 0.45,-1.289 0.3,-0.297 0.734,-0.445 1.308,-0.445 0.379,0 0.75,0.074 1.121,0.222 0.367,0.145 0.735,0.356 1.098,0.633 l 0.082,0 0.133,-0.797 1.093,0 0,4.371 c 0,0.723 -0.214,1.254 -0.636,1.602 -0.422,0.344 -1.078,0.515 -1.965,0.515"
           style="fill:#ffffff;fill-opacity:1;fill-rule:nonzero;stroke:none"
           id="path4872"
           inkscape:connector-curvature="0" />
        <path
           d="m 178.523,159.015 c -0.777,0 -1.382,-0.168 -1.828,-0.504 -0.445,-0.336 -0.664,-0.801 -0.664,-1.395 0,-0.398 0.071,-0.715 0.207,-0.949 0.137,-0.238 0.317,-0.426 0.535,-0.555 0.219,-0.128 0.457,-0.222 0.719,-0.281 0.262,-0.055 0.52,-0.101 0.774,-0.14 0.386,-0.063 0.691,-0.165 0.918,-0.305 0.226,-0.137 0.339,-0.367 0.339,-0.684 0,-0.597 -0.441,-0.902 -1.332,-0.902 -0.332,0 -0.683,0.031 -1.05,0.09 -0.368,0.058 -0.758,0.136 -1.168,0.23 l 0,-1.008 c 0.472,-0.105 0.898,-0.175 1.269,-0.218 0.371,-0.047 0.707,-0.067 1.012,-0.067 0.82,0 1.453,0.168 1.894,0.508 0.438,0.344 0.657,0.824 0.657,1.441 0,0.321 -0.051,0.594 -0.157,0.813 -0.101,0.215 -0.242,0.398 -0.425,0.547 -0.18,0.144 -0.399,0.262 -0.649,0.344 -0.246,0.082 -0.519,0.152 -0.812,0.207 -0.211,0.039 -0.41,0.078 -0.586,0.117 -0.18,0.043 -0.332,0.097 -0.457,0.168 -0.129,0.07 -0.227,0.16 -0.297,0.265 -0.074,0.11 -0.11,0.247 -0.11,0.414 0,0.278 0.114,0.489 0.336,0.633 0.219,0.145 0.551,0.219 0.997,0.219 0.238,0 0.503,-0.019 0.8,-0.07 0.297,-0.047 0.653,-0.114 1.063,-0.203 l 0.051,1.046 c -0.25,0.047 -0.465,0.086 -0.653,0.114 -0.183,0.027 -0.355,0.051 -0.515,0.07 -0.157,0.02 -0.305,0.035 -0.446,0.043 -0.136,0.008 -0.277,0.012 -0.422,0.012"
           style="fill:#ffffff;fill-opacity:1;fill-rule:nonzero;stroke:none"
           id="path4874"
           inkscape:connector-curvature="0" />
        <path
           d="m 184.359,160.679 -1.047,-0.129 -0.199,-1.676 -1.343,0 0,-1.14 1.269,0 0,-3.504 c 0,-0.621 0.168,-1.09 0.5,-1.411 0.332,-0.32 0.82,-0.48 1.461,-0.48 0.207,0 0.414,0.016 0.629,0.043 0.215,0.027 0.414,0.066 0.594,0.113 l 0,1.031 c -0.149,-0.046 -0.293,-0.082 -0.434,-0.101 -0.137,-0.02 -0.262,-0.027 -0.375,-0.027 -0.363,0 -0.629,0.086 -0.793,0.265 -0.168,0.18 -0.25,0.461 -0.25,0.848 l 0,3.219 1.805,0 0,1.144 -1.817,0 0,1.805"
           style="fill:#ffffff;fill-opacity:1;fill-rule:nonzero;stroke:none"
           id="path4876"
           inkscape:connector-curvature="0" />
        <path
           d="m 188.621,156.069 c 0.047,0.665 0.207,1.157 0.473,1.465 0.261,0.317 0.656,0.469 1.179,0.469 0.493,0 0.844,-0.144 1.063,-0.441 0.219,-0.297 0.336,-0.793 0.352,-1.493 l -3.067,0 m 1.699,2.911 c -0.988,0 -1.738,-0.289 -2.25,-0.868 -0.511,-0.578 -0.765,-1.418 -0.765,-2.519 0,-1.074 0.254,-1.887 0.765,-2.43 0.512,-0.543 1.282,-0.812 2.313,-0.812 0.379,0 0.769,0.035 1.176,0.101 0.402,0.067 0.769,0.16 1.101,0.282 l -0.058,0.984 c -0.332,-0.106 -0.684,-0.184 -1.051,-0.238 -0.367,-0.055 -0.711,-0.082 -1.028,-0.082 -0.632,0 -1.097,0.14 -1.39,0.421 -0.293,0.282 -0.465,0.754 -0.508,1.418 l 4.18,0 c 0.054,0.215 0.082,0.508 0.082,0.879 0,1.91 -0.856,2.864 -2.567,2.864"
           style="fill:#ffffff;fill-opacity:1;fill-rule:nonzero;stroke:none"
           id="path4878"
           inkscape:connector-curvature="0" />
        <path
           d="m 198.422,158.98 -0.426,0 c -0.332,-0.063 -0.684,-0.188 -1.051,-0.368 -0.371,-0.183 -0.757,-0.394 -1.16,-0.64 l -0.047,0 -0.082,0.902 -1.117,0 0,-6.418 1.332,0 0,4.621 c 0.317,0.176 0.652,0.328 1.016,0.453 0.359,0.129 0.718,0.215 1.074,0.262 l 0.461,0 0,1.188"
           style="fill:#ffffff;fill-opacity:1;fill-rule:nonzero;stroke:none"
           id="path4880"
           inkscape:connector-curvature="0" />
        <path
           d="m 206.121,153.456 c -0.879,0 -1.527,0.27 -1.941,0.813 -0.418,0.543 -0.625,1.402 -0.625,2.57 0,1.191 0.207,2.055 0.625,2.598 0.414,0.543 1.062,0.812 1.941,0.812 0.871,0 1.52,-0.273 1.941,-0.824 0.426,-0.551 0.637,-1.414 0.637,-2.586 0,-1.172 -0.207,-2.027 -0.625,-2.57 -0.414,-0.543 -1.066,-0.813 -1.953,-0.813 m 0,7.91 c -1.277,0 -2.254,-0.382 -2.93,-1.144 -0.675,-0.766 -1.015,-1.891 -1.015,-3.383 0,-1.488 0.34,-2.609 1.015,-3.367 0.676,-0.754 1.653,-1.133 2.93,-1.133 1.277,0 2.254,0.379 2.934,1.141 0.679,0.761 1.023,1.882 1.023,3.359 0,1.492 -0.344,2.617 -1.023,3.383 -0.68,0.765 -1.657,1.144 -2.934,1.144"
           style="fill:#ffffff;fill-opacity:1;fill-rule:nonzero;stroke:none"
           id="path4882"
           inkscape:connector-curvature="0" />
        <path
           d="m 214.734,161.417 c -0.484,0 -0.922,-0.058 -1.312,-0.172 -0.395,-0.117 -0.727,-0.281 -1,-0.496 -0.274,-0.215 -0.481,-0.473 -0.629,-0.777 -0.145,-0.305 -0.219,-0.649 -0.219,-1.028 0,-0.375 0.055,-0.699 0.16,-0.976 0.11,-0.274 0.274,-0.516 0.493,-0.723 0.222,-0.203 0.503,-0.383 0.843,-0.535 0.34,-0.152 0.75,-0.285 1.223,-0.402 0.285,-0.074 0.547,-0.149 0.781,-0.227 0.231,-0.078 0.434,-0.18 0.606,-0.297 0.168,-0.121 0.3,-0.261 0.398,-0.429 0.094,-0.164 0.141,-0.371 0.141,-0.618 0,-0.871 -0.657,-1.304 -1.973,-1.304 -0.387,0 -0.828,0.031 -1.324,0.101 -0.496,0.067 -0.992,0.164 -1.492,0.289 l 0,-1.125 c 0.476,-0.113 0.976,-0.203 1.5,-0.277 0.523,-0.07 0.992,-0.105 1.414,-0.105 1.058,0 1.871,0.214 2.426,0.648 0.558,0.43 0.839,1.055 0.839,1.871 0,0.395 -0.066,0.734 -0.195,1.016 -0.133,0.281 -0.316,0.519 -0.555,0.711 -0.234,0.195 -0.519,0.359 -0.851,0.492 -0.336,0.137 -0.707,0.254 -1.121,0.359 -0.696,0.172 -1.188,0.375 -1.477,0.606 -0.289,0.226 -0.433,0.547 -0.433,0.949 0,0.422 0.164,0.75 0.5,0.984 0.332,0.242 0.789,0.36 1.375,0.36 0.332,0 0.707,-0.028 1.117,-0.082 0.414,-0.055 0.808,-0.137 1.191,-0.239 l 0,1.118 c -0.508,0.109 -0.953,0.191 -1.332,0.238 -0.383,0.043 -0.746,0.07 -1.094,0.07"
           style="fill:#ffffff;fill-opacity:1;fill-rule:nonzero;stroke:none"
           id="path4884"
           inkscape:connector-curvature="0" />
        <path
           d="m 220.875,156.023 0.937,2.66 0.536,1.593 0.144,0 0.535,-1.582 0.95,-2.671 -3.102,0 m 2.566,5.226 -2.031,0 -3.078,-8.707 0,-0.086 1.32,0 0.868,2.461 3.8,0 0.868,-2.461 1.332,0 0,0.086 -3.079,8.707"
           style="fill:#ffffff;fill-opacity:1;fill-rule:nonzero;stroke:none"
           id="path4886"
           inkscape:connector-curvature="0" />
        <path
           d="m 233.691,161.249 -5.82,0 0,-8.793 5.93,0 0,1.094 -4.574,0 0,2.805 4.136,0 0,1.093 -4.136,0 0,2.707 4.464,0 0,1.094"
           style="fill:#ffffff;fill-opacity:1;fill-rule:nonzero;stroke:none"
           id="path4888"
           inkscape:connector-curvature="0" />
        <path
           d="m 106.516,205.14 c -0.727,-0.035 -1.446,-0.074 -2.161,-0.11 -0.359,-0.023 -0.707,-0.023 -1.074,-0.07 -0.367,-0.047 -0.73,-0.094 -1.093,-0.141 -2.93,-0.308 -5.602,-1.039 -8.161,-1.839 -5.062,-1.731 -9.32,-4.262 -12.668,-6.965 -3.367,-2.699 -5.812,-5.582 -7.574,-8.09 -0.473,-0.606 -0.84,-1.234 -1.207,-1.809 -0.351,-0.586 -0.719,-1.109 -0.992,-1.64 -0.539,-1.059 -1.051,-1.93 -1.375,-2.684 -0.652,-1.496 -1.004,-2.293 -1.004,-2.293 0,0 0.406,0.77 1.168,2.211 0.379,0.719 0.949,1.551 1.563,2.555 0.304,0.504 0.707,0.992 1.093,1.543 0.395,0.547 0.793,1.14 1.297,1.707 1.879,2.359 4.449,5.008 7.828,7.465 3.375,2.449 7.582,4.656 12.461,6.132 2.445,0.661 5.074,1.258 7.758,1.43 0.336,0.031 0.672,0.063 1.008,0.094 0.34,0.031 0.707,0.023 1.062,0.035 0.715,0.016 1.434,0.035 2.16,0.051 0.688,-0.047 1.383,-0.09 2.083,-0.137 0.71,-0.059 1.433,-0.074 2.152,-0.16 5.75,-0.711 11.617,-2.801 16.894,-6.207 0.332,-0.215 0.684,-0.395 0.993,-0.637 l 0.941,-0.719 c 0.633,-0.48 1.262,-0.961 1.898,-1.445 0.582,-0.539 1.168,-1.086 1.758,-1.629 l 0.887,-0.816 c 0.289,-0.281 0.539,-0.598 0.812,-0.895 0.536,-0.597 1.075,-1.203 1.618,-1.808 0.519,-0.618 0.968,-1.301 1.461,-1.95 1.031,-1.265 1.796,-2.722 2.664,-4.117 0.23,-0.343 0.398,-0.718 0.574,-1.09 l 0.531,-1.117 0.535,-1.113 c 0.086,-0.188 0.184,-0.371 0.262,-0.563 l 0.211,-0.582 0.848,-2.336 0.211,-0.582 c 0.062,-0.199 0.105,-0.402 0.156,-0.601 l 0.308,-1.207 0.305,-1.207 c 0.102,-0.403 0.223,-0.805 0.262,-1.211 l 0.367,-2.414 c 0.047,-0.41 0.148,-0.785 0.16,-1.227 l 0.063,-1.301 0.121,-2.519 c -0.055,-6.668 -1.711,-13.332 -4.914,-19.074 -0.868,-1.395 -1.637,-2.848 -2.664,-4.117 -0.493,-0.649 -0.942,-1.332 -1.465,-1.95 -0.539,-0.605 -1.078,-1.211 -1.614,-1.812 -0.273,-0.293 -0.527,-0.613 -0.816,-0.891 l -0.883,-0.816 c -0.59,-0.547 -1.176,-1.09 -1.762,-1.633 -0.632,-0.48 -1.265,-0.965 -1.894,-1.441 l -0.941,-0.719 c -0.313,-0.242 -0.665,-0.426 -0.993,-0.641 -0.668,-0.414 -1.332,-0.824 -1.996,-1.234 -0.324,-0.223 -0.672,-0.391 -1.023,-0.559 l -1.039,-0.511 c -0.699,-0.329 -1.371,-0.711 -2.082,-0.993 -0.715,-0.273 -1.426,-0.547 -2.133,-0.816 l -1.059,-0.406 c -0.355,-0.118 -0.722,-0.203 -1.082,-0.305 -0.726,-0.199 -1.445,-0.395 -2.16,-0.59 -0.715,-0.234 -1.433,-0.285 -2.144,-0.426 -0.711,-0.121 -1.418,-0.242 -2.121,-0.359 -0.723,-0.09 -1.481,-0.109 -2.211,-0.164 -0.715,-0.047 -1.422,-0.094 -2.129,-0.137 -0.703,0.016 -1.403,0.031 -2.098,0.047 -0.348,0.012 -0.695,0.004 -1.039,0.031 -0.34,0.032 -0.684,0.063 -1.023,0.098 -2.735,0.176 -5.329,0.773 -7.786,1.434 -4.875,1.476 -9.086,3.683 -12.461,6.132 -3.378,2.461 -5.949,5.11 -7.828,7.469 -0.5,0.57 -0.898,1.164 -1.293,1.707 -0.386,0.551 -0.793,1.043 -1.093,1.547 -0.61,1 -1.18,1.828 -1.559,2.551 -0.762,1.445 -1.168,2.215 -1.168,2.215 0,0 0.348,-0.797 1.004,-2.293 0.32,-0.75 0.832,-1.621 1.375,-2.684 0.273,-0.531 0.641,-1.055 0.992,-1.641 0.367,-0.574 0.734,-1.203 1.207,-1.808 1.758,-2.508 4.207,-5.391 7.574,-8.09 3.348,-2.703 7.602,-5.234 12.668,-6.965 2.543,-0.801 5.25,-1.531 8.129,-1.836 1.43,-0.242 2.906,-0.226 4.399,-0.328 0.746,0.027 1.5,0.051 2.254,0.078 0.742,0.035 1.472,0.032 2.234,0.102 0.777,0.105 1.555,0.215 2.34,0.32 0.781,0.125 1.597,0.176 2.355,0.395 0.77,0.187 1.543,0.375 2.324,0.566 0.387,0.098 0.782,0.18 1.168,0.293 l 1.149,0.402 c 0.766,0.27 1.535,0.539 2.312,0.813 0.77,0.281 1.497,0.68 2.254,1.019 l 1.125,0.532 c 0.379,0.175 0.762,0.351 1.114,0.582 0.718,0.425 1.441,0.859 2.168,1.289 0.355,0.226 0.738,0.418 1.078,0.672 l 1.027,0.754 c 0.688,0.507 1.379,1.011 2.07,1.523 0.641,0.57 1.285,1.145 1.93,1.723 l 0.969,0.867 c 0.316,0.297 0.597,0.633 0.898,0.945 0.59,0.641 1.184,1.285 1.778,1.93 0.578,0.66 1.078,1.387 1.621,2.078 1.129,1.367 1.972,2.934 2.918,4.445 3.507,6.203 5.359,13.442 5.453,20.68 l -0.141,2.691 -0.066,1.301 c -0.016,0.43 -0.121,0.906 -0.18,1.356 l -0.422,2.734 c -0.055,0.465 -0.187,0.895 -0.297,1.332 l -0.679,2.617 c -0.059,0.219 -0.11,0.438 -0.176,0.653 l -0.235,0.632 -0.933,2.532 -0.235,0.632 c -0.085,0.204 -0.191,0.403 -0.289,0.606 l -0.582,1.207 -0.586,1.207 c -0.195,0.402 -0.382,0.809 -0.628,1.18 -0.946,1.507 -1.793,3.074 -2.915,4.445 -0.542,0.695 -1.046,1.418 -1.621,2.082 -0.593,0.645 -1.187,1.285 -1.777,1.926 -0.305,0.316 -0.582,0.648 -0.898,0.945 l -0.969,0.871 c -0.649,0.574 -1.289,1.149 -1.934,1.723 -0.691,0.508 -1.379,1.015 -2.066,1.523 l -1.027,0.754 c -0.34,0.254 -0.723,0.445 -1.079,0.668 -5.734,3.598 -12.113,5.629 -18.25,6.207 -0.765,0.074 -1.531,0.07 -2.289,0.11 -0.777,0.023 -1.543,0.05 -2.304,0.074"
           style="fill:#ffffff;fill-opacity:1;fill-rule:nonzero;stroke:none"
           id="path4890"
           inkscape:connector-curvature="0" />
        <path
           d="m 155.777,197.499 c 0,0 -0.101,-0.137 -0.23,-0.379 -0.133,-0.238 -0.297,-0.578 -0.442,-0.988 -0.144,-0.41 -0.269,-0.887 -0.355,-1.398 -0.027,-0.161 -0.043,-0.333 -0.066,-0.504 -0.168,-0.016 -0.344,-0.039 -0.508,-0.067 -0.512,-0.086 -0.988,-0.215 -1.399,-0.359 -0.41,-0.141 -0.75,-0.309 -0.988,-0.442 -0.242,-0.132 -0.375,-0.234 -0.375,-0.234 0,0 0.133,-0.102 0.375,-0.23 0.238,-0.133 0.578,-0.301 0.988,-0.442 0.411,-0.148 0.887,-0.273 1.399,-0.355 0.164,-0.032 0.332,-0.051 0.504,-0.075 0.015,-0.167 0.039,-0.335 0.066,-0.496 0.082,-0.515 0.211,-0.992 0.359,-1.402 0.141,-0.41 0.305,-0.75 0.442,-0.988 0.129,-0.239 0.23,-0.375 0.23,-0.375 0,0 0.102,0.136 0.235,0.375 0.133,0.238 0.297,0.578 0.441,0.988 0.149,0.41 0.274,0.887 0.359,1.402 0.024,0.164 0.047,0.336 0.071,0.508 0.168,0.02 0.336,0.035 0.5,0.063 0.512,0.086 0.988,0.211 1.398,0.355 0.41,0.145 0.75,0.309 0.989,0.445 0.238,0.129 0.375,0.227 0.375,0.227 0,0 -0.137,0.102 -0.375,0.231 -0.239,0.132 -0.579,0.3 -0.989,0.441 -0.41,0.144 -0.886,0.273 -1.398,0.359 -0.168,0.028 -0.34,0.043 -0.512,0.063 -0.016,0.172 -0.035,0.347 -0.062,0.512 -0.086,0.511 -0.211,0.988 -0.356,1.398 -0.144,0.41 -0.308,0.75 -0.441,0.988 -0.133,0.242 -0.235,0.379 -0.235,0.379"
           style="fill:#ffffff;fill-opacity:1;fill-rule:nonzero;stroke:none"
           id="path4892"
           inkscape:connector-curvature="0" />
      </g>
    </g>
  </g>
</svg>
