<?xml version="1.0" encoding="UTF-8" standalone="no"?>
<svg
   xmlns:dc="http://purl.org/dc/elements/1.1/"
   xmlns:cc="http://creativecommons.org/ns#"
   xmlns:rdf="http://www.w3.org/1999/02/22-rdf-syntax-ns#"
   xmlns:svg="http://www.w3.org/2000/svg"
   xmlns="http://www.w3.org/2000/svg"
   xmlns:xlink="http://www.w3.org/1999/xlink"
   version="1.1"
   id="svg2"
   viewBox="0 0 1400 600"
   height="600"
   width="1400">
  <metadata
     id="metadata181">
    <rdf:RDF>
      <cc:Work
         rdf:about="">
        <dc:format>image/svg+xml</dc:format>
        <dc:type
           rdf:resource="http://purl.org/dc/dcmitype/StillImage" />
        <dc:title>Gnuplot</dc:title>
      </cc:Work>
    </rdf:RDF>
  </metadata>
  <defs
     id="defs179" />
  <title
     id="title4">Gnuplot</title>
  <desc
     id="desc6">Produced by GNUPLOT 5.0 patchlevel 3 </desc>
  <g
     id="gnuplot_canvas">
    <path
       id="rect9"
       d="m 0,0 1400,0 0,600 -1400,0 z"
       style="fill:#ffffff" />
    <defs
       id="defs11">
      <circle
         stroke-width="0.5"
         r="0.5"
         id="gpDot" />
      <path
         d="M-1,0 h2 M0,-1 v2"
         stroke="currentColor"
         stroke-width="0.111"
         id="gpPt0" />
      <path
         d="M-1,-1 L1,1 M1,-1 L-1,1"
         stroke="currentColor"
         stroke-width="0.111"
         id="gpPt1" />
      <path
         d="M-1,0 L1,0 M0,-1 L0,1 M-1,-1 L1,1 M-1,1 L1,-1"
         stroke="currentColor"
         stroke-width="0.111"
         id="gpPt2" />
      <rect
         height="2"
         width="2"
         y="-1"
         x="-1"
         stroke="currentColor"
         stroke-width="0.111"
         id="gpPt3" />
      <rect
         height="2"
         width="2"
         y="-1"
         x="-1"
         fill="currentColor"
         stroke="currentColor"
         stroke-width="0.111"
         id="gpPt4" />
      <circle
         r="1"
         cy="0"
         cx="0"
         stroke="currentColor"
         stroke-width="0.111"
         id="gpPt5" />
      <use
         stroke="none"
         fill="currentColor"
         id="gpPt6"
         xlink:href="#gpPt5" />
      <path
         d="M0,-1.33 L-1.33,0.67 L1.33,0.67 z"
         stroke="currentColor"
         stroke-width="0.111"
         id="gpPt7" />
      <use
         stroke="none"
         fill="currentColor"
         id="gpPt8"
         xlink:href="#gpPt7" />
      <use
         transform="rotate(180)"
         stroke="currentColor"
         id="gpPt9"
         xlink:href="#gpPt7" />
      <use
         stroke="none"
         fill="currentColor"
         id="gpPt10"
         xlink:href="#gpPt9" />
      <use
         transform="rotate(45)"
         stroke="currentColor"
         id="gpPt11"
         xlink:href="#gpPt3" />
      <use
         stroke="none"
         fill="currentColor"
         id="gpPt12"
         xlink:href="#gpPt11" />
      <path
         d="M0,1.330 L1.265,0.411 L0.782,-1.067 L-0.782,-1.076 L-1.265,0.411 z"
         stroke="currentColor"
         stroke-width="0.111"
         id="gpPt13" />
      <use
         stroke="none"
         fill="currentColor"
         id="gpPt14"
         xlink:href="#gpPt13" />
      <filter
         width="1"
         height="1"
         y="0"
         x="0"
         filterUnits="objectBoundingBox"
         id="textbox">
        <feFlood
           id="feFlood30"
           result="bgnd"
           flood-opacity="1"
           flood-color="#FFFFFF" />
        <feComposite
           id="feComposite32"
           operator="atop"
           in2="bgnd"
           in="SourceGraphic" />
      </filter>
      <filter
         width="1"
         height="1"
         y="0"
         x="0"
         filterUnits="objectBoundingBox"
         id="greybox">
        <feFlood
           id="feFlood35"
           result="grey"
           flood-opacity="1"
           flood-color="lightgrey" />
        <feComposite
           id="feComposite37"
           operator="atop"
           in2="grey"
           in="SourceGraphic" />
      </filter>
    </defs>
    <g
       id="g39"
       stroke-linejoin="miter"
       stroke-linecap="butt"
       stroke-width="1.00"
       stroke="currentColor"
       color="#FFFFFF"
       fill="none" />
    <g
       id="g41"
       stroke-linejoin="miter"
       stroke-linecap="butt"
       stroke-width="1.00"
       stroke="currentColor"
       color="black"
       fill="none">
      <path
         id="path43"
         d="M111.1,499.2 L129.1,499.2 M1349.8,499.2 L1331.8,499.2  "
         stroke="black" />
      <g
         id="g45"
         text-anchor="end"
         font-size="24.00"
         font-family="Libre Franklin"
         fill="black"
         stroke="none"
         transform="translate(94.4,508.2)">
        <g
           id="text47"
           style="">
          <path
             id="path4311"
             style="font-family:'Libre Franklin'"
             d="m -37.390875,-5.88 q 0,0.336 -0.408,0.336 l -5.448,0 q -0.168,0 -0.24,-0.048 -0.072,-0.072 -0.072,-0.24 l 0,-1.056 q 0,-0.264 0.216,-0.264 l 5.712,-0.024 q 0.24,0 0.24,0.24 l 0,1.056 z" />
          <path
             id="path4313"
             style="font-family:'Libre Franklin'"
             d="m -27.62625,-18.048 q 1.92,0 3.408,1.08 1.512,1.056 2.376,3.144 0.864,2.064 0.864,4.968 0,2.88 -0.864,4.944 -0.864,2.04 -2.376,3.096 -1.488,1.032 -3.432,1.032 -1.944,0 -3.456,-1.032 -1.512,-1.056 -2.376,-3.096 -0.84,-2.04 -0.84,-4.92 0,-2.904 0.864,-4.992 0.864,-2.088 2.376,-3.144 1.536,-1.08 3.456,-1.08 z m 0,16.512 q 4.296,0 4.296,-7.32 0,-3.816 -1.152,-5.616 -1.128,-1.824 -3.168,-1.824 -2.04,0 -3.192,1.824 -1.128,1.824 -1.128,5.616 0,3.744 1.152,5.544 1.152,1.776 3.192,1.776 z" />
          <path
             id="path4315"
             style="font-family:'Libre Franklin'"
             d="m -15.68625,-0.384 q 0,0.216 -0.096,0.312 -0.096,0.072 -0.336,0.072 l -1.68,0 q -0.192,0 -0.288,-0.072 -0.072,-0.072 -0.072,-0.264 l 0,-2.064 q 0,-0.312 0.264,-0.312 l 1.968,0 q 0.24,0 0.24,0.288 l 0,2.04 z" />
          <path
             id="path4317"
             style="font-family:'Libre Franklin'"
             d="m -7.454625,-7.464 q 2.064,-1.944 2.856,-3.144 0.792,-1.224 0.792,-2.52 0,-1.464 -1.056,-2.28 -1.056,-0.84 -2.496,-0.84 -1.128,0 -2.232,0.576 -1.104,0.576 -1.872,1.8 -0.072,0.12 -0.24,0.12 -0.096,0 -0.24,-0.072 l -1.056,-0.624 q -0.192,-0.12 -0.192,-0.288 0,-0.12 0.096,-0.24 1.056,-1.536 2.592,-2.304 1.56,-0.768 3.336,-0.768 1.536,0 2.808,0.576 1.272,0.552 2.016,1.68 0.768,1.128 0.768,2.736 0,1.56 -0.864,2.904 -0.84,1.344 -3,3.384 l -4.824,4.536 q -0.12,0.072 -0.12,0.168 0,0.12 0.264,0.12 l 8.424,0 q 0.168,0 0.24,0.072 0.072,0.048 0.072,0.192 l 0,1.392 q 0,0.288 -0.312,0.288 l -11.136,0 q -0.216,0 -0.312,-0.072 -0.072,-0.096 -0.072,-0.312 l 0,-0.984 q 0,-0.264 0.12,-0.456 0.12,-0.192 0.528,-0.552 l 5.112,-5.088 z" />
        </g>
      </g>
    </g>
    <g
       id="g51"
       stroke-linejoin="miter"
       stroke-linecap="butt"
       stroke-width="1.00"
       stroke="currentColor"
       color="black"
       fill="none">
      <path
         id="path53"
         d="M111.1,477.7 L120.1,477.7 M1349.8,477.7 L1340.8,477.7 M111.1,456.2 L120.1,456.2 M1349.8,456.2 L1340.8,456.2   M111.1,434.7 L120.1,434.7 M1349.8,434.7 L1340.8,434.7 M111.1,413.3 L120.1,413.3 M1349.8,413.3 L1340.8,413.3   M111.1,391.8 L120.1,391.8 M1349.8,391.8 L1340.8,391.8 M111.1,370.3 L120.1,370.3 M1349.8,370.3 L1340.8,370.3   M111.1,348.8 L120.1,348.8 M1349.8,348.8 L1340.8,348.8 M111.1,327.3 L120.1,327.3 M1349.8,327.3 L1340.8,327.3   M111.1,305.8 L120.1,305.8 M1349.8,305.8 L1340.8,305.8 M111.1,284.3 L120.1,284.3 M1349.8,284.3 L1340.8,284.3   M111.1,284.3 L129.1,284.3 M1349.8,284.3 L1331.8,284.3  "
         stroke="black" />
      <g
         id="g55"
         text-anchor="end"
         font-size="24.00"
         font-family="Libre Franklin"
         fill="black"
         stroke="none"
         transform="translate(94.4,293.3)">
        <g
           id="text57"
           style="">
          <path
             id="path4320"
             style="font-family:'Libre Franklin'"
             d="m -8.22,-18.048 q 1.92,0 3.408,1.08 1.512,1.056 2.376,3.144 0.864,2.064 0.864,4.968 0,2.88 -0.864,4.944 -0.864,2.04 -2.376,3.096 -1.488,1.032 -3.432,1.032 -1.944,0 -3.456,-1.032 -1.512,-1.056 -2.376,-3.096 -0.84,-2.04 -0.84,-4.92 0,-2.904 0.864,-4.992 0.864,-2.088 2.376,-3.144 1.536,-1.08 3.456,-1.08 z m 0,16.512 q 4.296,0 4.296,-7.32 0,-3.816 -1.152,-5.616 -1.128,-1.824 -3.168,-1.824 -2.04,0 -3.192,1.824 -1.128,1.824 -1.128,5.616 0,3.744 1.152,5.544 1.152,1.776 3.192,1.776 z" />
        </g>
      </g>
    </g>
    <g
       id="g61"
       stroke-linejoin="miter"
       stroke-linecap="butt"
       stroke-width="1.00"
       stroke="currentColor"
       color="black"
       fill="none">
      <path
         id="path63"
         d="M111.1,262.9 L120.1,262.9 M1349.8,262.9 L1340.8,262.9 M111.1,241.4 L120.1,241.4 M1349.8,241.4 L1340.8,241.4   M111.1,219.9 L120.1,219.9 M1349.8,219.9 L1340.8,219.9 M111.1,198.4 L120.1,198.4 M1349.8,198.4 L1340.8,198.4   M111.1,176.9 L120.1,176.9 M1349.8,176.9 L1340.8,176.9 M111.1,155.4 L120.1,155.4 M1349.8,155.4 L1340.8,155.4   M111.1,134.0 L120.1,134.0 M1349.8,134.0 L1340.8,134.0 M111.1,112.5 L120.1,112.5 M1349.8,112.5 L1340.8,112.5   M111.1,91.0 L120.1,91.0 M1349.8,91.0 L1340.8,91.0 M111.1,69.5 L120.1,69.5 M1349.8,69.5 L1340.8,69.5   M111.1,69.5 L129.1,69.5 M1349.8,69.5 L1331.8,69.5  "
         stroke="black" />
      <g
         id="g65"
         text-anchor="end"
         font-size="24.00"
         font-family="Libre Franklin"
         fill="black"
         stroke="none"
         transform="translate(94.4,78.5)">
        <g
           id="text67"
           style="">
          <path
             id="path4323"
             style="font-family:'Libre Franklin'"
             d="m -27.62625,-18.048 q 1.92,0 3.408,1.08 1.512,1.056 2.376,3.144 0.864,2.064 0.864,4.968 0,2.88 -0.864,4.944 -0.864,2.04 -2.376,3.096 -1.488,1.032 -3.432,1.032 -1.944,0 -3.456,-1.032 -1.512,-1.056 -2.376,-3.096 -0.84,-2.04 -0.84,-4.92 0,-2.904 0.864,-4.992 0.864,-2.088 2.376,-3.144 1.536,-1.08 3.456,-1.08 z m 0,16.512 q 4.296,0 4.296,-7.32 0,-3.816 -1.152,-5.616 -1.128,-1.824 -3.168,-1.824 -2.04,0 -3.192,1.824 -1.128,1.824 -1.128,5.616 0,3.744 1.152,5.544 1.152,1.776 3.192,1.776 z" />
          <path
             id="path4325"
             style="font-family:'Libre Franklin'"
             d="m -15.68625,-0.384 q 0,0.216 -0.096,0.312 -0.096,0.072 -0.336,0.072 l -1.68,0 q -0.192,0 -0.288,-0.072 -0.072,-0.072 -0.072,-0.264 l 0,-2.064 q 0,-0.312 0.264,-0.312 l 1.968,0 q 0.24,0 0.24,0.288 l 0,2.04 z" />
          <path
             id="path4327"
             style="font-family:'Libre Franklin'"
             d="m -7.454625,-7.464 q 2.064,-1.944 2.856,-3.144 0.792,-1.224 0.792,-2.52 0,-1.464 -1.056,-2.28 -1.056,-0.84 -2.496,-0.84 -1.128,0 -2.232,0.576 -1.104,0.576 -1.872,1.8 -0.072,0.12 -0.24,0.12 -0.096,0 -0.24,-0.072 l -1.056,-0.624 q -0.192,-0.12 -0.192,-0.288 0,-0.12 0.096,-0.24 1.056,-1.536 2.592,-2.304 1.56,-0.768 3.336,-0.768 1.536,0 2.808,0.576 1.272,0.552 2.016,1.68 0.768,1.128 0.768,2.736 0,1.56 -0.864,2.904 -0.84,1.344 -3,3.384 l -4.824,4.536 q -0.12,0.072 -0.12,0.168 0,0.12 0.264,0.12 l 8.424,0 q 0.168,0 0.24,0.072 0.072,0.048 0.072,0.192 l 0,1.392 q 0,0.288 -0.312,0.288 l -11.136,0 q -0.216,0 -0.312,-0.072 -0.072,-0.096 -0.072,-0.312 l 0,-0.984 q 0,-0.264 0.12,-0.456 0.12,-0.192 0.528,-0.552 l 5.112,-5.088 z" />
        </g>
      </g>
    </g>
    <g
       id="g71"
       stroke-linejoin="miter"
       stroke-linecap="butt"
       stroke-width="1.00"
       stroke="currentColor"
       color="black"
       fill="none">
      <path
         id="path73"
         d="M111.1,499.2 L111.1,490.2 M111.1,69.5 L111.1,78.5 M152.4,499.2 L152.4,490.2 M152.4,69.5 L152.4,78.5   M193.7,499.2 L193.7,490.2 M193.7,69.5 L193.7,78.5 M235.0,499.2 L235.0,490.2 M235.0,69.5 L235.0,78.5   M276.3,499.2 L276.3,490.2 M276.3,69.5 L276.3,78.5 M317.6,499.2 L317.6,490.2 M317.6,69.5 L317.6,78.5   M358.8,499.2 L358.8,490.2 M358.8,69.5 L358.8,78.5 M400.1,499.2 L400.1,490.2 M400.1,69.5 L400.1,78.5   M441.4,499.2 L441.4,490.2 M441.4,69.5 L441.4,78.5 M482.7,499.2 L482.7,490.2 M482.7,69.5 L482.7,78.5   M482.7,499.2 L482.7,481.2 M482.7,69.5 L482.7,87.5  "
         stroke="black" />
      <g
         id="g75"
         text-anchor="middle"
         font-size="24.00"
         font-family="Libre Franklin"
         fill="black"
         stroke="none"
         transform="translate(482.7,544.2)">
        <g
           id="text77"
           style="">
          <path
             id="path4330"
             style="font-family:'Libre Franklin'"
             d="m -15.000187,-18.048 q 1.728,0 3.048,0.624 1.343999,0.6 2.0879995,1.728 0.744,1.104 0.744,2.544 0,1.128 -0.576,2.016 -0.5759995,0.888 -1.8480005,1.776 -0.192,0.144 -0.192,0.216 0,0.096 0.168001,0.168 3.2399995,1.272 3.2399995,4.248 0,1.512 -0.84,2.64 -0.8399995,1.104 -2.3760005,1.728 -1.512,0.6 -3.528,0.6 -2.999999,0 -4.727999,-1.224 -1.728001,-1.224 -1.728001,-3.432 0,-1.272 0.624001,-2.28 0.648,-1.032 2.112,-1.944 0.312,-0.192 0.312,-0.288 0,-0.096 -0.288,-0.24 -2.28,-1.272 -2.28,-3.72 0,-1.44 0.768,-2.616 0.768,-1.176 2.136,-1.848 1.392,-0.696 3.144,-0.696 z m 0.024,1.68 q -1.079999,0 -1.991999,0.432 -0.888,0.432 -1.392001,1.176 -0.503999,0.744 -0.503999,1.68 0,2.184 2.472,2.736 l 2.471999,0.576 q 0.456,0.12 1.104,-0.36 0.672001,-0.504 1.152001,-1.344 0.504,-0.864 0.504,-1.704 0,-1.416 -1.032,-2.304 -1.032,-0.888 -2.784001,-0.888 z m 0.024,14.928 q 1.991999,0 3.167999,-0.864 1.176,-0.864 1.176,-2.328 0,-1.128 -0.6,-1.8 -0.599999,-0.696 -1.944,-1.032 l -3.119999,-0.744 q -0.072,-0.024 -0.216,-0.024 -0.528,0 -1.248,0.48 -0.72,0.48 -1.248,1.296 -0.504001,0.816 -0.504001,1.776 0,1.536 1.152001,2.4 1.176,0.84 3.384,0.84 z" />
          <path
             id="path4332"
             style="font-family:'Libre Franklin'"
             d="m 2.3030625,-17.568 q 0.144,-0.144 0.264,-0.192 0.12,-0.048 0.336,-0.048 l 1.608,0 q 0.288,0 0.288,0.288 l 0,10.8 q 0,0.216 0.192,0.216 l 2.256,0 q 0.336,0 0.336,0.24 l 0,1.176 q 0,0.312 -0.336,0.312 l -2.232,0 q -0.216,0 -0.216,0.24 l 0,4.176 q 0,0.36 -0.384,0.36 l -1.632,0 q -0.312,0 -0.312,-0.312 l 0,-4.296 q 0,-0.168 -0.216,-0.168 l -7.776,0 q -0.36,0 -0.36,-0.312 l 0,-1.224 q 0,-0.144 0.096,-0.336 0.12,-0.216 0.288,-0.456 l 7.8,-10.464 z m -0.096,11.064 q 0.096,0 0.144,-0.048 0.072,-0.048 0.072,-0.12 l 0,-8.016 q 0,-0.288 -0.096,-0.288 -0.048,0 -0.24,0.192 l -5.856,7.968 q -0.072,0.096 -0.072,0.168 0,0.144 0.24,0.144 l 5.808,0 z" />
          <path
             id="path4334"
             style="font-family:'Libre Franklin'"
             d="m 15.537563,-7.464 q 2.063999,-1.944 2.856,-3.144 0.791999,-1.224 0.791999,-2.52 0,-1.464 -1.056,-2.28 -1.055999,-0.84 -2.495999,-0.84 -1.128,0 -2.232,0.576 -1.104,0.576 -1.872,1.8 -0.072,0.12 -0.24,0.12 -0.096,0 -0.24,-0.072 l -1.0560005,-0.624 q -0.192,-0.12 -0.192,-0.288 0,-0.12 0.096,-0.24 1.0560005,-1.536 2.5920005,-2.304 1.56,-0.768 3.336,-0.768 1.535999,0 2.807999,0.576 1.272001,0.552 2.016001,1.68 0.768,1.128 0.768,2.736 0,1.56 -0.864001,2.904 -0.839999,1.344 -3,3.384 l -4.823999,4.536 q -0.120001,0.072 -0.120001,0.168 0,0.12 0.264001,0.12 l 8.424,0 q 0.167999,0 0.239999,0.072 0.072,0.048 0.072,0.192 l 0,1.392 q 0,0.288 -0.312,0.288 l -11.136,0 q -0.2160005,0 -0.3120005,-0.072 -0.072,-0.096 -0.072,-0.312 l 0,-0.984 q 0,-0.264 0.12,-0.456 0.1200005,-0.192 0.5280005,-0.552 l 5.112,-5.088 z" />
        </g>
      </g>
    </g>
    <g
       id="g81"
       stroke-linejoin="miter"
       stroke-linecap="butt"
       stroke-width="1.00"
       stroke="currentColor"
       color="black"
       fill="none">
      <path
         id="path83"
         d="M524.0,499.2 L524.0,490.2 M524.0,69.5 L524.0,78.5 M565.3,499.2 L565.3,490.2 M565.3,69.5 L565.3,78.5   M606.6,499.2 L606.6,490.2 M606.6,69.5 L606.6,78.5 M647.9,499.2 L647.9,490.2 M647.9,69.5 L647.9,78.5   M689.2,499.2 L689.2,490.2 M689.2,69.5 L689.2,78.5 M730.5,499.2 L730.5,490.2 M730.5,69.5 L730.5,78.5   M771.7,499.2 L771.7,490.2 M771.7,69.5 L771.7,78.5 M813.0,499.2 L813.0,490.2 M813.0,69.5 L813.0,78.5   M854.3,499.2 L854.3,490.2 M854.3,69.5 L854.3,78.5 M895.6,499.2 L895.6,490.2 M895.6,69.5 L895.6,78.5   M895.6,499.2 L895.6,481.2 M895.6,69.5 L895.6,87.5  "
         stroke="black" />
      <g
         id="g85"
         text-anchor="middle"
         font-size="24.00"
         font-family="Libre Franklin"
         fill="black"
         stroke="none"
         transform="translate(895.6,544.2)">
        <g
           id="text87"
           style="">
          <path
             id="path4337"
             style="font-family:'Libre Franklin'"
             d="m -15.492375,-18.048 q 1.728,0 3.048,0.624 1.344,0.6 2.088,1.728 0.744,1.104 0.744,2.544 0,1.128 -0.576,2.016 -0.576,0.888 -1.848,1.776 -0.192,0.144 -0.192,0.216 0,0.096 0.168,0.168 3.24,1.272 3.24,4.248 0,1.512 -0.84,2.64 -0.84,1.104 -2.376,1.728 -1.512,0.6 -3.528,0.6 -3,0 -4.728,-1.224 -1.728,-1.224 -1.728,-3.432 0,-1.272 0.624,-2.28 0.648,-1.032 2.112,-1.944 0.312,-0.192 0.312,-0.288 0,-0.096 -0.288,-0.24 -2.28,-1.272 -2.28,-3.72 0,-1.44 0.768,-2.616 0.768,-1.176 2.136,-1.848 1.392,-0.696 3.144,-0.696 z m 0.024,1.68 q -1.08,0 -1.992,0.432 -0.888,0.432 -1.392,1.176 -0.504,0.744 -0.504,1.68 0,2.184 2.472,2.736 l 2.472,0.576 q 0.456,0.12 1.104,-0.36 0.672,-0.504 1.152,-1.344 0.504,-0.864 0.504,-1.704 0,-1.416 -1.032,-2.304 -1.032,-0.888 -2.784,-0.888 z m 0.024,14.928 q 1.992,0 3.168,-0.864 1.176,-0.864 1.176,-2.328 0,-1.128 -0.6,-1.8 -0.6,-0.696 -1.944,-1.032 l -3.12,-0.744 q -0.072,-0.024 -0.216,-0.024 -0.528,0 -1.248,0.48 -0.72,0.48 -1.248,1.296 -0.504,0.816 -0.504,1.776 0,1.536 1.152,2.4 1.176,0.84 3.384,0.84 z" />
          <path
             id="path4339"
             style="font-family:'Libre Franklin'"
             d="m 1.810875,-17.568 q 0.144,-0.144 0.264,-0.192 0.12,-0.048 0.336,-0.048 l 1.608,0 q 0.288,0 0.288,0.288 l 0,10.8 q 0,0.216 0.192,0.216 l 2.256,0 q 0.336,0 0.336,0.24 l 0,1.176 q 0,0.312 -0.336,0.312 l -2.232,0 q -0.216,0 -0.216,0.24 l 0,4.176 q 0,0.36 -0.384,0.36 l -1.632,0 q -0.312,0 -0.312,-0.312 l 0,-4.296 q 0,-0.168 -0.216,-0.168 l -7.776,0 q -0.36,0 -0.36,-0.312 l 0,-1.224 q 0,-0.144 0.096,-0.336 0.12,-0.216 0.288,-0.456 l 7.8,-10.464 z m -0.096,11.064 q 0.096,0 0.144,-0.048 0.072,-0.048 0.072,-0.12 l 0,-8.016 q 0,-0.288 -0.096,-0.288 -0.048,0 -0.24,0.192 l -5.856,7.968 q -0.072,0.096 -0.072,0.168 0,0.144 0.24,0.144 l 5.808,0 z" />
          <path
             id="path4341"
             style="font-family:'Libre Franklin'"
             d="m 9.957375,-15.312 q -0.072,-0.072 -0.072,-0.168 0,-0.096 0.072,-0.192 2.208,-2.376 5.544,-2.376 1.8,0 3.168,0.6 1.368,0.576 2.088,1.608 0.744,1.008 0.744,2.304 0,1.296 -0.816,2.352 -0.792,1.032 -2.232,1.536 -0.264,0.072 -0.264,0.168 0,0.048 0.264,0.168 1.56,0.432 2.568,1.608 1.032,1.152 1.032,2.784 0,1.512 -0.792,2.688 -0.768,1.152 -2.304,1.824 -1.536,0.648 -3.768,0.648 -3.672,0 -6,-2.544 -0.072,-0.12 -0.072,-0.192 0,-0.12 0.144,-0.216 l 1.032,-0.816 q 0.168,-0.12 0.216,-0.12 0.096,0 0.168,0.12 1.056,1.104 2.136,1.56 1.104,0.456 2.544,0.456 2.064,0 3.24,-0.912 1.176,-0.912 1.176,-2.424 0,-1.104 -0.648,-1.92 -0.624,-0.816 -1.656,-1.224 -1.032,-0.408 -2.208,-0.408 l -2.136,-0.024 q -0.288,0 -0.288,-0.24 l 0,-1.248 q 0,-0.192 0.288,-0.24 l 1.728,-0.024 q 1.224,0 2.232,-0.432 1.008,-0.432 1.584,-1.176 0.576,-0.744 0.576,-1.656 0,-0.792 -0.48,-1.44 -0.48,-0.672 -1.344,-1.056 -0.84,-0.384 -1.896,-0.384 -2.376,0 -4.296,1.848 -0.12,0.12 -0.216,0.12 -0.048,0 -0.216,-0.12 l -0.84,-0.84 z" />
        </g>
      </g>
    </g>
    <g
       id="g91"
       stroke-linejoin="miter"
       stroke-linecap="butt"
       stroke-width="1.00"
       stroke="currentColor"
       color="black"
       fill="none">
      <path
         id="path93"
         d="M936.9,499.2 L936.9,490.2 M936.9,69.5 L936.9,78.5 M978.2,499.2 L978.2,490.2 M978.2,69.5 L978.2,78.5   M1019.5,499.2 L1019.5,490.2 M1019.5,69.5 L1019.5,78.5 M1060.8,499.2 L1060.8,490.2 M1060.8,69.5 L1060.8,78.5   M1102.1,499.2 L1102.1,490.2 M1102.1,69.5 L1102.1,78.5 M1143.4,499.2 L1143.4,490.2 M1143.4,69.5 L1143.4,78.5   M1184.6,499.2 L1184.6,490.2 M1184.6,69.5 L1184.6,78.5 M1225.9,499.2 L1225.9,490.2 M1225.9,69.5 L1225.9,78.5   M1267.2,499.2 L1267.2,490.2 M1267.2,69.5 L1267.2,78.5 M1308.5,499.2 L1308.5,490.2 M1308.5,69.5 L1308.5,78.5   M1308.5,499.2 L1308.5,481.2 M1308.5,69.5 L1308.5,87.5  "
         stroke="black" />
      <g
         id="g95"
         text-anchor="middle"
         font-size="24.00"
         font-family="Libre Franklin"
         fill="black"
         stroke="none"
         transform="translate(1308.5,544.2)">
        <g
           id="text97"
           style="">
          <path
             id="path4344"
             style="font-family:'Libre Franklin'"
             d="m -15.586125,-18.048 q 1.728,0 3.048,0.624 1.344,0.6 2.088,1.728 0.744,1.104 0.744,2.544 0,1.128 -0.576,2.016 -0.576,0.888 -1.848,1.776 -0.192,0.144 -0.192,0.216 0,0.096 0.168,0.168 3.24,1.272 3.24,4.248 0,1.512 -0.84,2.64 -0.84,1.104 -2.376,1.728 -1.512,0.6 -3.528,0.6 -3,0 -4.728,-1.224 -1.728,-1.224 -1.728,-3.432 0,-1.272 0.624,-2.28 0.648,-1.032 2.112,-1.944 0.312,-0.192 0.312,-0.288 0,-0.096 -0.288,-0.24 -2.28,-1.272 -2.28,-3.72 0,-1.44 0.768,-2.616 0.768,-1.176 2.136,-1.848 1.392,-0.696 3.144,-0.696 z m 0.024,1.68 q -1.08,0 -1.992,0.432 -0.888,0.432 -1.392,1.176 -0.504,0.744 -0.504,1.68 0,2.184 2.472,2.736 l 2.472,0.576 q 0.456,0.12 1.104,-0.36 0.672,-0.504 1.152,-1.344 0.504,-0.864 0.504,-1.704 0,-1.416 -1.032,-2.304 -1.032,-0.888 -2.784,-0.888 z m 0.024,14.928 q 1.992,0 3.168,-0.864 1.176,-0.864 1.176,-2.328 0,-1.128 -0.6,-1.8 -0.6,-0.696 -1.944,-1.032 l -3.12,-0.744 q -0.072,-0.024 -0.216,-0.024 -0.528,0 -1.248,0.48 -0.72,0.48 -1.248,1.296 -0.504,0.816 -0.504,1.776 0,1.536 1.152,2.4 1.176,0.84 3.384,0.84 z" />
          <path
             id="path4346"
             style="font-family:'Libre Franklin'"
             d="m 1.717125,-17.568 q 0.144,-0.144 0.264,-0.192 0.12,-0.048 0.336,-0.048 l 1.608,0 q 0.288,0 0.288,0.288 l 0,10.8 q 0,0.216 0.192,0.216 l 2.256,0 q 0.336,0 0.336,0.24 l 0,1.176 q 0,0.312 -0.336,0.312 l -2.232,0 q -0.216,0 -0.216,0.24 l 0,4.176 q 0,0.36 -0.384,0.36 l -1.632,0 q -0.312,0 -0.312,-0.312 l 0,-4.296 q 0,-0.168 -0.216,-0.168 l -7.776,0 q -0.36,0 -0.36,-0.312 l 0,-1.224 q 0,-0.144 0.096,-0.336 0.12,-0.216 0.288,-0.456 l 7.8,-10.464 z m -0.096,11.064 q 0.096,0 0.144,-0.048 0.072,-0.048 0.072,-0.12 l 0,-8.016 q 0,-0.288 -0.096,-0.288 -0.048,0 -0.24,0.192 l -5.856,7.968 q -0.072,0.096 -0.072,0.168 0,0.144 0.24,0.144 l 5.808,0 z" />
          <path
             id="path4348"
             style="font-family:'Libre Franklin'"
             d="m 17.279625,-17.568 q 0.144,-0.144 0.264,-0.192 0.12,-0.048 0.336,-0.048 l 1.608,0 q 0.288,0 0.288,0.288 l 0,10.8 q 0,0.216 0.192,0.216 l 2.256,0 q 0.336,0 0.336,0.24 l 0,1.176 q 0,0.312 -0.336,0.312 l -2.232,0 q -0.216,0 -0.216,0.24 l 0,4.176 q 0,0.36 -0.384,0.36 l -1.632,0 q -0.312,0 -0.312,-0.312 l 0,-4.296 q 0,-0.168 -0.216,-0.168 l -7.776,0 q -0.36,0 -0.36,-0.312 l 0,-1.224 q 0,-0.144 0.096,-0.336 0.12,-0.216 0.288,-0.456 l 7.8,-10.464 z m -0.096,11.064 q 0.096,0 0.144,-0.048 0.072,-0.048 0.072,-0.12 l 0,-8.016 q 0,-0.288 -0.096,-0.288 -0.048,0 -0.24,0.192 l -5.856,7.968 q -0.072,0.096 -0.072,0.168 0,0.144 0.24,0.144 l 5.808,0 z" />
        </g>
      </g>
    </g>
    <g
       id="g101"
       stroke-linejoin="miter"
       stroke-linecap="butt"
       stroke-width="1.00"
       stroke="currentColor"
       color="black"
       fill="none">
      <path
         id="path103"
         d="M1349.8,499.2 L1349.8,490.2 M1349.8,69.5 L1349.8,78.5  "
         stroke="black" />
    </g>
    <g
       id="g105"
       stroke-linejoin="miter"
       stroke-linecap="butt"
       stroke-width="1.00"
       stroke="currentColor"
       color="black"
       fill="none">
      <path
         id="path107"
         d="M111.1,69.5 L111.1,499.2 L1349.8,499.2 L1349.8,69.5 L111.1,69.5 Z  "
         stroke="black" />
    </g>
    <g
       id="g109"
       stroke-linejoin="miter"
       stroke-linecap="butt"
       stroke-width="1.00"
       stroke="currentColor"
       color="black"
       fill="none">
      <g
         id="g111"
         text-anchor="middle"
         font-size="24.00"
         font-family="Libre Franklin"
         fill="black"
         stroke="none"
         transform="translate(35.3,284.4) rotate(270)">
        <g
           id="text113"
           style="">
          <path
             id="path4351"
             style="font-size:24px;font-family:'Libre Franklin'"
             d="m -36.832313,-1.824 q 0.264,0 0.264,0.24 l 0,1.344 q 0,0.096 -0.072,0.168 -0.072,0.072 -0.192,0.072 l -8.424,0 q -0.264,0 -0.264,-0.24 l 0,-1.344 q 0,-0.24 0.264,-0.24 l 3.024,0 q 0.192,0 0.192,-0.12 l 0,-13.2 q 0,-0.264 -0.216,-0.192 l -2.976,1.104 q -0.024,0 -0.048,0.024 -0.024,0 -0.048,-0.024 -0.216,0 -0.216,-0.288 l 0,-0.96 q 0,-0.168 0.048,-0.216 0.048,-0.072 0.192,-0.144 l 3.552,-1.776 q 0.408,-0.192 0.72,-0.192 l 1.032,0 q 0.264,0 0.264,0.288 l 0,15.528 q 0,0.168 0.144,0.168 l 2.76,0 z" />
          <path
             id="path4353"
             style="font-size:24px;font-family:'Libre Franklin'"
             d="m -27.284063,-18.048 q 1.92,0 3.408,1.08 1.512,1.056 2.376,3.144 0.864,2.064 0.864,4.968 0,2.88 -0.864,4.944 -0.864,2.04 -2.376,3.096 -1.488,1.032 -3.432,1.032 -1.944,0 -3.456,-1.032 -1.512,-1.056 -2.376,-3.096 -0.84,-2.04 -0.84,-4.92 0,-2.904 0.864,-4.992 0.864,-2.088 2.376,-3.144 1.536,-1.08 3.456,-1.08 z m 0,16.512 q 4.296,0 4.296,-7.32 0,-3.816 -1.152,-5.616 -1.128,-1.824 -3.168,-1.824 -2.04,0 -3.192,1.824 -1.128,1.824 -1.128,5.616 0,3.744 1.152,5.544 1.152,1.776 3.192,1.776 z" />
          <path
             id="path4355"
             style="font-size:24px;font-family:'Libre Franklin'"
             d="m -2.5798127,-5.232 q 0.168,0.144 0,0.312 l -0.744,0.744 q -0.096,0.096 -0.216,0.096 -0.144,0 -0.288,-0.144 l -3.6,-3.6 -3.6960003,3.696 q -0.144,0.168 -0.336,0.024 l -0.72,-0.744 q -0.12,-0.12 -0.12,-0.216 0,-0.144 0.144,-0.288 l 3.6000003,-3.6 -3.6720003,-3.648 q -0.096,-0.12 -0.096,-0.216 0,-0.12 0.096,-0.216 l 0.72,-0.72 q 0.192,-0.168 0.36,-0.048 l 3.7200003,3.72 3.648,-3.672 q 0.168,-0.12 0.216,-0.12 0.096,0 0.216,0.12 l 0.744,0.744 q 0.192,0.168 0.024,0.336 l -3.72,3.72 3.72,3.72 z" />
          <path
             id="path4357"
             style="font-size:24px;font-family:'Libre Franklin'"
             d="m 19.809937,-17.808 q 0.168,0 0.216,0.12 0.072,0.096 0.024,0.216 l -6.072,17.112 q -0.072,0.192 -0.192,0.288 -0.12,0.072 -0.336,0.072 l -1.632,0 q -0.48,0 -0.576,-0.336 L 5.2899373,-17.448 q -0.024,-0.048 -0.024,-0.12 0,-0.24 0.288,-0.24 l 1.656,0 q 0.288,0 0.408,0.288 l 4.9919997,14.544 q 0.072,0.216 0.168,0.216 0.096,0 0.192,-0.24 l 5.064,-14.544 q 0.072,-0.264 0.36,-0.264 l 1.416,0 z" />
          <path
             id="path4359"
             style="font-size:24px;font-family:'Libre Franklin'"
             d="m 21.658687,1.056 q -0.288,0 -0.192,-0.216 l 6,-18.432 q 0.072,-0.216 0.312,-0.216 l 1.056,0 q 0.24,0 0.24,0.168 0,0.072 -0.048,0.216 l -5.904,18.168 q -0.096,0.312 -0.432,0.312 l -1.032,0 z" />
          <path
             id="path4361"
             style="font-size:24px;font-family:'Libre Franklin'"
             d="m 33.701812,-17.808 q 0.288,0 0.288,0.312 l 0,17.088 q 0,0.24 -0.096,0.336 -0.096,0.072 -0.336,0.072 l -1.512,0 q -0.216,0 -0.288,-0.072 -0.072,-0.072 -0.072,-0.264 l 0,-17.136 q 0,-0.336 0.288,-0.336 l 1.728,0 z" />
          <path
             id="path4363"
             style="font-size:19.20000076px;font-family:'Libre Franklin'"
             d="m 41.997713,-3.1680006 q 1.4016,0 2.3808,0.6528 0.9984,0.6528 1.5936,1.72800009 l 0.0384,0.15360001 q 0,0.1152 -0.1344,0.1344 l -1.056,0.24960001 -0.0576,0.0192 q -0.096,0 -0.192,-0.1536 -0.6144,-0.82560001 -1.1904,-1.20960001 -0.5568,-0.3840001 -1.2864,-0.3840001 -1.497601,0 -2.380801,1.11360009 -0.8832,1.09440004 -0.8832,2.97600011 0,1.9008001 0.8832,2.9952001 0.9024,1.0944001 2.419201,1.0944001 0.9024,0 1.5744,-0.4416 0.6912,-0.4416001 1.248,-1.3632001 0.0576,-0.096 0.1152,-0.096 0.0576,-0.0192 0.1344,0.0192 l 0.8256,0.3072 q 0.1344,0.0576 0.0768,0.2496 -0.5952,1.1136001 -1.632,1.8240001 -1.0368,0.6912 -2.4768,0.6912 -1.401601,0 -2.496001,-0.6528 -1.0944,-0.672 -1.7088,-1.8624001 -0.6144,-1.1904 -0.6144,-2.7264001 0,-1.53600005 0.6144,-2.7456001 0.6144,-1.2288 1.7088,-1.9008001 1.1136,-0.672 2.496001,-0.672 z" />
        </g>
      </g>
    </g>
    <g
       id="g125"
       stroke-linejoin="miter"
       stroke-linecap="butt"
       stroke-width="1.00"
       stroke="currentColor"
       color="black"
       fill="none">
      <g
         id="g127"
         text-anchor="middle"
         font-size="24.00"
         font-family="Libre Franklin"
         fill="black"
         stroke="none"
         transform="translate(730.4,583.8)">
        <g
           id="text129"
           style="">
          <path
             id="path4366"
             style="font-family:'Libre Franklin'"
             d="m -71.024062,-17.808 q 0.215999,0 0.287999,0.12 0.096,0.12 0.048,0.312 l -4.944001,17.016 q -0.048,0.192 -0.167999,0.288 -0.12,0.072 -0.36,0.072 l -1.464001,0 q -0.455999,0 -0.551999,-0.336 l -3.840001,-13.608 q -0.072,-0.264 -0.167999,0.024 l -3.888,13.56 q -0.048,0.192 -0.168,0.288 -0.12,0.072 -0.360001,0.072 l -1.488,0 q -0.455999,0 -0.551999,-0.336 l -4.872,-17.04 q -0.024,-0.048 -0.024,-0.12 0,-0.312 0.36,-0.312 l 1.536,0 q 0.336,0 0.408,0.288 l 3.911999,13.968 q 0.072,0.264 0.144001,0.264 0.096,0 0.144,-0.24 l 3.984,-14.016 q 0.096,-0.264 0.432,-0.264 l 1.367999,0 q 0.192001,0 0.288001,0.072 0.096,0.048 0.144,0.216 l 3.935999,14.04 q 0.072,0.216 0.144,0.216 0.072,0 0.144001,-0.216 l 3.959999,-14.064 q 0.048,-0.264 0.408,-0.264 l 1.200001,0 z" />
          <path
             id="path4368"
             style="font-family:'Libre Franklin'"
             d="m -61.611562,-1.536 q -1.848001,1.776 -4.272,1.776 -1.872,0 -2.952,-0.936 -1.056001,-0.96 -1.056001,-2.544 0,-1.92 1.608,-3.024 1.632001,-1.104 4.704,-1.296 l 1.872,-0.144 q 0.408001,-0.048 0.408001,-0.36 l 0,-0.648 q 0,-1.296 -0.816,-2.04 -0.792,-0.768 -2.160001,-0.768 -2.112,0 -3.455999,1.92 -0.072,0.12 -0.144,0.168 -0.072,0.024 -0.192,-0.024 l -1.296,-0.432 q -0.120001,-0.048 -0.120001,-0.168 0,-0.072 0.072,-0.216 0.72,-1.272 2.040001,-1.968 1.343999,-0.72 3.167999,-0.72 2.352001,0 3.6,1.104 1.248001,1.08 1.248001,3 l 0,8.496 q 0,0.216 -0.072,0.288 Q -59.499562,0 -59.691563,0 l -1.199999,0 q -0.288001,0 -0.336,-0.384 l -0.048,-1.104 q -0.024,-0.168 -0.12,-0.168 -0.096,0 -0.216,0.12 z m 0.312,-4.56 q 0,-0.384 -0.36,-0.384 l -1.560001,0.144 q -2.231999,0.144 -3.455999,0.864 -1.2,0.72 -1.2,1.992 0,1.032 0.719999,1.632 0.744,0.6 1.968001,0.6 0.744,0 1.464,-0.264 0.72,-0.264 1.271999,-0.72 0.552,-0.432 0.840001,-0.912 0.312,-0.504 0.312,-0.96 l 0,-1.992 z" />
          <path
             id="path4370"
             style="font-family:'Libre Franklin'"
             d="m -45.487687,-12.72 q 0.168,0 0.216,0.12 0.072,0.096 0.024,0.216 l -4.872,12.024 Q -50.239688,0 -50.671688,0 l -0.864,0 q -0.455999,0 -0.6,-0.336 l -4.848,-12.024 q -0.024,-0.048 -0.024,-0.12 0,-0.24 0.288001,-0.24 l 1.488,0 q 0.264,0 0.384,0.264 l 3.768,9.432 q 0.072,0.24 0.168,0.24 0.096,0 0.216,-0.264 l 3.744,-9.408 q 0.072,-0.264 0.36,-0.264 l 1.104,0 z" />
          <path
             id="path4372"
             style="font-family:'Libre Franklin'"
             d="m -42.065812,-5.568 q 0,1.152 0.552,2.136 0.576,0.984 1.536,1.56 0.96,0.576 2.111999,0.576 2.400001,0 3.744001,-1.992 0.096,-0.096 0.168,-0.096 0.072,-0.024 0.168,0.024 l 1.008,0.504 q 0.191999,0.12 0.048,0.336 -0.935999,1.44 -2.231999,2.112 -1.296,0.648 -3.096,0.648 -1.752,0 -3.144001,-0.816 -1.391999,-0.816 -2.183999,-2.28 -0.768,-1.488 -0.768,-3.384 0,-2.04 0.792,-3.552 0.792,-1.536 2.159999,-2.352 1.392001,-0.816 3.120001,-0.816 1.727999,0 3.024,0.768 1.319999,0.768 2.04,2.256 0.72,1.464 0.72,3.48 l 0,0.096 q 0,0.216 -0.072,0.336 -0.072,0.096 -0.288,0.096 l -9.192,0 q -0.216,0 -0.216,0.36 z m 7.344,-1.68 q 0.263999,0 0.336,-0.048 0.072,-0.072 0.072,-0.288 0,-1.056 -0.456,-1.944 -0.432001,-0.912 -1.296,-1.44 -0.84,-0.552 -1.968,-0.552 -1.224,0 -2.136,0.624 -0.912,0.6 -1.392001,1.584 -0.479999,0.96 -0.455999,2.064 l 7.296,0 z" />
          <path
             id="path4374"
             style="font-family:'Libre Franklin'"
             d="m -27.447938,-0.408 q 0,0.24 -0.096,0.336 -0.096,0.072 -0.336,0.072 l -1.248001,0 q -0.215999,0 -0.287999,-0.072 -0.072,-0.072 -0.072,-0.264 l 0.024,-17.136 q 0,-0.336 0.288,-0.336 l 1.44,0 q 0.287999,0 0.287999,0.312 l 0,17.088 z" />
          <path
             id="path4376"
             style="font-family:'Libre Franklin'"
             d="m -22.425187,-5.568 q 0,1.152 0.552,2.136 0.576,0.984 1.536,1.56 0.96,0.576 2.112,0.576 2.4,0 3.744,-1.992 0.096,-0.096 0.167999,-0.096 0.072,-0.024 0.168001,0.024 l 1.007999,0.504 q 0.192001,0.12 0.048,0.336 -0.936,1.44 -2.232,2.112 -1.295999,0.648 -3.095999,0.648 -1.752,0 -3.144,-0.816 -1.392,-0.816 -2.184,-2.28 -0.768,-1.488 -0.768,-3.384 0,-2.04 0.792,-3.552 0.792,-1.536 2.16,-2.352 1.392,-0.816 3.12,-0.816 1.728,0 3.023999,0.768 1.32,0.768 2.04,2.256 0.720001,1.464 0.720001,3.48 l 0,0.096 q 0,0.216 -0.072,0.336 -0.072,0.096 -0.288,0.096 l -9.192,0 q -0.216,0 -0.216,0.36 z m 7.343999,-1.68 q 0.264001,0 0.336,-0.048 0.072,-0.072 0.072,-0.288 0,-1.056 -0.456001,-1.944 -0.432,-0.912 -1.295999,-1.44 -0.84,-0.552 -1.968,-0.552 -1.224,0 -2.136,0.624 -0.912,0.6 -1.392001,1.584 -0.479999,0.96 -0.455999,2.064 l 7.295999,0 z" />
          <path
             id="path4378"
             style="font-family:'Libre Franklin'"
             d="m -9.5113125,0 q -0.336,0 -0.336,-0.312 l 0,-12.096 q 0,-0.312 0.264,-0.312 l 1.44,0 q 0.264,0 0.264,0.264 l 0,1.392 q 0,0.264 0.216,0.072 1.344,-1.056 2.28,-1.512 0.96,-0.456 2.136,-0.456 1.824,0 2.832,0.984 1.032,0.984 1.032,2.64 l 0,8.952 q 0,0.384 -0.36,0.384 l -1.344,0 q -0.312,0 -0.312,-0.312 l 0,-8.568 q 0,-1.2 -0.624,-1.848 -0.6,-0.648 -1.872,-0.648 -1.008,0 -1.872,0.456 -0.84,0.432 -2.064,1.488 l 0,9.072 q 0,0.192 -0.096,0.288 -0.072,0.072 -0.264,0.072 l -1.32,0 z" />
          <path
             id="path4380"
             style="font-family:'Libre Franklin'"
             d="m 15.664313,-12.936 q 0.455999,0 0.455999,0.384 l 0,0.84 q 0,0.24 -0.12,0.36 -0.096,0.096 -0.359999,0.072 -0.792,0 -1.248001,0.216 -0.575999,0.24 -0.48,0.552 0.024,0.096 0.144001,0.36 0.12,0.264 0.192,0.6 0.072,0.312 0.072,0.672 0,1.704 -1.344,2.784 -1.32,1.08 -3.8640005,1.08 -1.704,0 -2.448,0.288 -0.744,0.288 -0.744,0.744 0,0.36 0.504,0.552 0.504,0.168 1.68,0.24 l 3.0959995,0.168 q 2.064001,0.12 3.072001,0.984 1.008,0.864 1.008,2.352 0,1.824 -1.608,2.856 -1.584,1.032 -4.5360005,1.032 -3.048,0 -4.656,-0.888 -1.584,-0.864 -1.584,-2.496 0,-1.608 2.256,-2.712 0.264,-0.12 0,-0.264 -1.104,-0.48 -1.104,-1.416 0,-0.528 0.48,-1.008 0.504,-0.48 1.416,-0.792 0.12,-0.024 0.12,-0.12 0,-0.12 -0.12,-0.168 -1.056,-0.552 -1.56,-1.32 -0.504,-0.792 -0.504,-1.896 0,-1.872 1.416,-2.952 1.416,-1.08 4.008,-1.08 2.2799995,0 3.6000005,1.08 0.168,0.12 0.24,0.12 0.096,0 0.264,-0.12 0.456,-0.456 1.056,-0.768 0.624,-0.336 1.2,-0.336 z m -6.5520005,6.648 q 1.6560005,0 2.4719995,-0.672 0.84,-0.672 0.84,-1.944 0,-1.296 -0.84,-2.016 -0.839999,-0.72 -2.4719995,-0.72 -1.584,0 -2.472,0.744 -0.888,0.72 -0.888,1.992 0,1.248 0.864,1.944 0.888,0.672 2.496,0.672 z m -2.112,4.728 q -0.432,-0.024 -0.984,0.264 -0.552,0.264 -0.936,0.768 -0.384,0.504 -0.384,1.104 0,1.152 1.176,1.752 1.176,0.624 3.48,0.624 4.0560005,0 4.0560005,-2.4 0,-0.84 -0.576,-1.32 -0.552,-0.48 -1.824001,-0.552 L 7.0003125,-1.56 Z" />
          <path
             id="path4382"
             style="font-family:'Libre Franklin'"
             d="m 21.965812,-11.232 q -0.192,0 -0.192,0.216 l 0,7.608 q 0,1.08 0.36,1.488 0.36,0.408 1.176,0.408 l 1.656,0 q 0.264001,0 0.264001,0.264 l -0.024,0.816 q 0,0.24 -0.288,0.312 -0.623999,0.12 -2.256,0.12 -1.512,0 -2.208,-0.696 -0.696,-0.72 -0.696,-2.256 l 0,-8.016 q 0,-0.264 -0.239999,-0.264 l -1.920001,0 q -0.264,0 -0.264,-0.24 l 0,-1.008 q 0,-0.24 0.24,-0.24 l 2.040001,0 q 0.167999,0 0.167999,-0.192 l 0.264,-3.816 q 0,-0.312 0.264,-0.312 l 1.200001,0 q 0.287999,0 0.287999,0.336 l 0,3.792 q 0,0.192 0.192,0.192 l 3.024,0 q 0.264,0 0.264,0.216 l 0,1.032 q 0,0.24 -0.264,0.24 l -3.048,0 z" />
          <path
             id="path4384"
             style="font-family:'Libre Franklin'"
             d="m 28.223062,0 q -0.312,0 -0.312,-0.312 l 0,-17.184 q 0,-0.312 0.264,-0.312 l 1.416,0 q 0.264,0 0.264,0.288 l 0,6.408 q 0,0.264 0.216,0.072 1.368,-1.056 2.328,-1.488 0.96,-0.432 2.112001,-0.432 1.847999,0 2.832,0.984 1.007999,0.984 1.007999,2.664 l 0,8.928 q 0,0.384 -0.36,0.384 l -1.343999,0 q -0.312001,0 -0.312001,-0.312 l 0,-8.568 q 0,-1.2 -0.624,-1.848 -0.599999,-0.648 -1.872,-0.648 -1.007999,0 -1.848,0.456 -0.816,0.432 -2.064,1.488 l 0,9.072 q 0,0.36 -0.384,0.36 l -1.32,0 z" />
          <path
             id="path4386"
             style="font-family:'Libre Franklin'"
             d="m 51.426937,-17.808 q 0.144,0 0.168,0.072 0.048,0.072 0,0.144 -1.271999,2.52 -2.04,5.304 -0.743999,2.76 -0.743999,5.472 0,2.64 0.647999,5.208 0.648,2.544 1.944,5.328 0.024,0.024 0.024,0.096 0,0.144 -0.192,0.144 l -0.887999,0 q -0.192,0 -0.288001,-0.168 -1.607999,-2.76 -2.424,-5.232 -0.792,-2.496 -0.792,-5.4 0,-2.88 0.912,-5.64 0.912001,-2.784 2.472,-5.136 0.144,-0.192 0.384,-0.192 l 0.816,0 z" />
          <path
             id="path4388"
             style="font-family:'Libre Franklin'"
             d="m 54.238687,0 q -0.336,0 -0.336,-0.312 l 0,-12.096 q 0,-0.312 0.264001,-0.312 l 1.439999,0 q 0.264001,0 0.264001,0.264 l 0,1.392 q 0,0.264 0.215999,0.072 1.344,-1.056 2.28,-1.512 0.96,-0.456 2.136,-0.456 1.824,0 2.832,0.984 1.032,0.984 1.032,2.64 l 0,8.952 q 0,0.384 -0.36,0.384 l -1.343999,0 q -0.312001,0 -0.312001,-0.312 l 0,-8.568 q 0,-1.2 -0.624,-1.848 -0.599999,-0.648 -1.872,-0.648 -1.007999,0 -1.872,0.456 -0.84,0.432 -2.064,1.488 l 0,9.072 q 0,0.192 -0.096,0.288 -0.072,0.072 -0.264,0.072 l -1.32,0 z" />
          <path
             id="path4390"
             style="font-family:'Libre Franklin'"
             d="m 68.254312,0 q -0.336,0 -0.336,-0.312 l 0,-12.096 q 0,-0.312 0.264,-0.312 l 1.44,0 q 0.240001,0 0.240001,0.264 l 0,1.392 q 0,0.288 0.239999,0.072 1.296001,-1.056 2.208,-1.512 0.912,-0.456 2.04,-0.456 1.344,0 2.208,0.6 0.888001,0.6 1.200001,1.512 0.048,0.072 0.096,0.072 0.072,0 0.24,-0.12 1.248001,-1.056 2.232,-1.56 1.008,-0.504 2.112,-0.504 1.728001,0 2.688,0.984 0.984,0.984 0.984,2.664 l 0,8.928 q 0,0.384 -0.359999,0.384 l -1.344001,0 q -0.312,0 -0.312,-0.312 l 0,-8.568 q 0,-1.2 -0.575999,-1.848 -0.576001,-0.648 -1.728001,-0.648 -0.959999,0 -1.799999,0.48 -0.840001,0.456 -1.632001,1.152 -0.191999,0.192 -0.264,0.336 -0.072,0.144 -0.072,0.36 l 0,8.664 q 0,0.384 -0.36,0.384 l -1.343999,0 q -0.312,0 -0.312,-0.312 l 0,-8.568 q 0,-2.496 -2.304,-2.496 -0.960001,0 -1.776001,0.456 -0.792,0.432 -1.991999,1.488 l 0,9.072 q 0,0.192 -0.096,0.288 Q 69.766312,0 69.574313,0 l -1.320001,0 z" />
          <path
             id="path4392"
             style="font-family:'Libre Franklin'"
             d="m 89.284312,-17.808 q 0.24,0 0.384,0.192 1.56,2.352 2.472,5.136 0.912,2.76 0.912,5.64 0,2.904 -0.816,5.4 -0.792,2.472 -2.399999,5.232 -0.096,0.168 -0.288001,0.168 l -0.887999,0 q -0.264001,0 -0.168001,-0.24 1.296001,-2.784 1.944,-5.328 0.648,-2.568 0.648,-5.208 0,-2.712 -0.768,-5.472 -0.744,-2.784 -2.015999,-5.304 -0.024,-0.024 -0.024,-0.072 0,-0.144 0.191999,-0.144 l 0.816,0 z" />
        </g>
      </g>
    </g>
    <g
       id="g133"
       stroke-linejoin="miter"
       stroke-linecap="butt"
       stroke-width="1.00"
       stroke="currentColor"
       color="black"
       fill="none" />
    <g
       id="gnuplot_plot_1">
      <title
         id="title136">2012</title>
      <g
         id="g138"
         stroke-linejoin="miter"
         stroke-linecap="butt"
         stroke-width="2.00"
         stroke="currentColor"
         color="#FFFFFF"
         fill="none" />
      <g
         id="g140"
         stroke-linejoin="miter"
         stroke-linecap="butt"
         stroke-width="2.00"
         stroke="currentColor"
         color="black"
         fill="none">
        <g
           id="g142"
           text-anchor="end"
           font-size="24.00"
           font-family="Libre Franklin"
           fill="black"
           stroke="none"
           transform="translate(1046.6,45.0)">
          <g
             id="text144"
             style="">
            <path
               id="path4395"
               style="font-style:normal;font-variant:normal;font-weight:normal;font-stretch:normal;font-family:'Libre Baskerville';-inkscape-font-specification:'Libre Baskerville'"
               d="m -52.695,-2.472 c 4.656,-3.456 8.448,-7.104 8.448,-11.064 0,-3.048 -2.376,-5.208 -5.76,-5.208 -3.408,0 -5.952,2.136 -5.952,4.992 0,2.088 1.32,3.6 3.096,3.6 0.984,0 1.728,-0.504 1.872,-1.272 -1.608,0 -2.64,-1.104 -2.64,-2.832 0,-1.968 1.344,-3.36 3.24,-3.36 1.992,0 3.264,1.56 3.264,4.032 0,3.36 -1.728,6.264 -9.048,12.792 l 0,0.792 11.16,0 0.912,-5.112 -0.888,0 c -0.672,2.256 -1.368,2.76 -2.904,2.76 l -4.776,0 -0.024,-0.12 z" />
            <path
               id="path4397"
               style="font-style:normal;font-variant:normal;font-weight:normal;font-stretch:normal;font-family:'Libre Baskerville';-inkscape-font-specification:'Libre Baskerville'"
               d="m -34.041375,-18.72 c -3.912,0 -7.104,4.2 -7.104,9.624 0,5.208 3.192,9.336 7.104,9.336 3.912,0 7.104,-4.128 7.104,-9.336 0,-5.424 -3.192,-9.624 -7.104,-9.624 z m 0,17.808 c -2.496,0 -3.984,-1.872 -3.984,-8.112 0,-6.504 1.488,-8.544 3.984,-8.544 2.496,0 3.984,2.04 3.984,8.544 0,6.24 -1.512,8.112 -3.984,8.112 z" />
            <path
               id="path4399"
               style="font-style:normal;font-variant:normal;font-weight:normal;font-stretch:normal;font-family:'Libre Baskerville';-inkscape-font-specification:'Libre Baskerville'"
               d="m -18.829125,-18.72 c -1.56,0.552 -3.408,0.936 -4.968,1.008 l 0,0.912 c 1.584,0 2.352,0.072 2.52,0.768 0.096,0.384 0.096,1.656 0.096,3.504 l 0,8.808 c 0,2.256 -0.36,2.712 -2.496,2.808 l 0,0.912 7.344,0 0,-0.912 c -2.16,-0.072 -2.496,-0.504 -2.496,-2.976 l 0,-14.832 z" />
            <path
               id="path4401"
               style="font-style:normal;font-variant:normal;font-weight:normal;font-stretch:normal;font-family:'Libre Baskerville';-inkscape-font-specification:'Libre Baskerville'"
               d="m -10.085625,-2.472 c 4.656,-3.456 8.448,-7.104 8.448,-11.064 0,-3.048 -2.376,-5.208 -5.76,-5.208 -3.408,0 -5.952,2.136 -5.952,4.992 0,2.088 1.32,3.6 3.096,3.6 0.984,0 1.728,-0.504 1.872,-1.272 -1.608,0 -2.64,-1.104 -2.64,-2.832 0,-1.968 1.344,-3.36 3.24,-3.36 1.992,0 3.264,1.56 3.264,4.032 0,3.36 -1.728,6.264 -9.048,12.792 l 0,0.792 11.16,0 0.912,-5.112 -0.888,0 c -0.672,2.256 -1.368,2.76 -2.904,2.76 l -4.776,0 -0.024,-0.12 z" />
          </g>
        </g>
      </g>
      <g
         id="g148"
         stroke-linejoin="miter"
         stroke-linecap="butt"
         stroke-width="2.00"
         stroke="currentColor"
         color="black"
         fill="none">
        <path
           id="path150"
           d="M1063.3,36.0 L1148.1,36.0 M111.1,288.2 L111.8,287.1 L113.8,287.0 L115.8,287.1 L117.9,287.5 L119.9,282.6   L122.0,283.9 L124.0,282.6 L126.0,281.1 L128.0,284.7 L130.1,294.4 L132.1,304.3 L134.1,288.3 L136.1,290.5   L138.2,274.0 L140.2,278.1 L142.2,283.2 L144.3,282.3 L146.3,286.4 L148.3,292.3 L150.3,294.8 L152.3,295.7   L154.4,284.9 L156.4,292.0 L158.5,299.8 L160.5,302.6 L162.5,311.8 L164.5,327.2 L166.6,344.4 L168.6,354.6   L170.6,377.2 L172.6,401.7 L174.6,424.0 L176.7,414.9 L178.7,373.7 L180.7,315.4 L182.8,237.6 L184.8,181.5   L186.8,147.9 L188.8,143.8 L190.8,153.2 L192.9,176.5 L194.9,203.9 L196.9,223.3 L199.0,251.1 L201.0,256.0   L203.0,261.2 L205.0,272.0 L207.1,271.9 L209.1,277.9 L211.1,280.6 L213.1,281.1 L215.2,278.1 L217.2,281.7   L219.2,281.3 L221.2,280.0 L223.2,284.0 L225.3,277.6 L227.3,288.2 L229.3,290.2 L231.3,291.3 L233.4,279.1   L235.4,283.3 L237.4,286.0 L239.4,290.1 L241.5,298.6 L243.5,294.8 L245.5,297.9 L247.5,295.3 L249.5,285.8   L251.6,279.8 L253.6,277.7 L255.6,273.9 L257.6,274.7 L259.7,276.2 L261.7,279.1 L263.7,284.3 L265.7,283.5   L267.8,277.8 L269.7,283.4 L271.8,280.4 L273.8,279.1 L275.8,278.0 L277.8,283.5 L279.9,277.2 L281.9,281.8   L283.9,292.5 L285.9,289.1 L287.9,285.1 L290.0,287.6 L292.0,280.2 L294.0,283.0 L296.0,281.2 L298.0,282.7   L300.0,278.5 L302.1,293.3 L304.1,292.3 L306.1,291.8 L308.1,285.3 L310.2,280.5 L312.2,284.2 L314.2,283.3   L316.2,281.6 L318.3,281.2 L320.3,285.7 L322.3,287.2 L324.3,281.9 L326.3,282.4 L328.3,291.0 L330.3,284.2   L332.4,282.9 L334.4,286.8 L336.4,286.6 L338.4,286.3 L340.4,290.9 L342.4,297.5 L344.5,301.1 L346.5,299.4   L348.5,292.3 L350.5,284.9 L352.5,273.8 L354.5,283.4 L356.6,288.7 L358.6,298.5 L360.6,308.9 L362.6,318.4   L364.6,338.5 L366.6,345.8 L368.7,338.2 L370.7,296.8 L372.7,265.1 L374.7,242.0 L376.7,232.6 L378.7,245.8   L380.8,259.0 L382.8,275.7 L384.8,286.5 L386.8,296.0 L388.8,300.1 L390.8,293.3 L392.8,291.0 L394.8,276.3   L396.9,263.8 L398.9,266.9 L400.9,264.3 L402.9,269.4 L404.9,267.6 L406.9,277.0 L409.0,276.5 L411.0,277.0   L413.0,285.6 L415.0,287.3 L417.0,279.9 L419.0,283.7 L421.0,276.4 L423.1,280.8 L425.1,281.5 L427.1,286.2   L429.1,288.2 L431.1,291.6 L433.2,291.2 L435.2,272.3 L437.2,284.0 L439.2,283.2 L441.2,282.3 L443.2,279.6   L445.2,278.9 L447.2,282.0 L449.2,289.2 L451.2,292.0 L453.3,283.0 L455.3,275.3 L457.3,278.1 L459.3,287.3   L461.3,290.8 L463.3,292.4 L465.3,291.3 L467.4,296.4 L469.4,299.3 L471.4,297.3 L473.4,291.4 L475.4,284.5   L477.4,288.6 L479.4,280.0 L481.4,275.2 L483.5,290.3 L485.4,283.8 L487.5,283.4 L489.5,291.0 L491.5,285.3   L493.5,279.7 L495.5,278.5 L497.5,277.3 L499.5,282.6 L501.5,282.1 L503.6,270.1 L505.5,276.3 L507.6,284.8   L509.6,287.3 L511.6,287.4 L513.6,283.9 L515.6,291.4 L517.6,285.9 L519.6,288.8 L521.6,284.7 L523.6,279.0   L525.6,290.6 L527.6,293.9 L529.7,290.1 L531.6,277.6 L533.7,282.1 L535.7,279.2 L537.7,279.2 L539.7,285.1   L541.7,289.9 L543.7,289.2 L545.7,284.9 L547.7,275.8 L549.7,279.9 L551.7,288.2 L553.8,287.8 L555.8,289.9   L557.8,290.2 L559.8,291.1 L561.8,285.6 L563.8,281.6 L565.8,289.7 L567.8,282.3 L569.8,286.5 L571.8,288.4   L573.8,291.5 L575.8,286.0 L577.8,272.9 L579.8,281.7 L581.8,289.9 L583.8,293.5 L585.8,294.9 L587.8,292.4   L589.9,286.8 L591.8,287.8 L593.9,277.0 L595.8,271.5 L597.9,283.0 L599.8,288.2 L601.9,297.1 L603.9,299.7   L605.9,293.6 L607.9,289.6 L609.9,309.9 L611.9,313.4 L613.9,325.6 L615.9,321.5 L617.9,307.8 L619.9,301.1   L621.9,287.9 L623.9,278.5 L625.9,248.2 L627.9,235.9 L630.0,242.1 L631.9,256.4 L634.0,259.4 L635.9,276.1   L637.9,286.1 L639.9,281.7 L641.9,278.3 L643.9,276.0 L645.9,281.9 L648.0,285.1 L649.9,283.1 L652.0,284.3   L653.9,282.5 L655.9,286.6 L657.9,288.3 L660.0,280.2 L661.9,282.5 L664.0,292.4 L666.0,290.4 L668.0,293.8   L670.0,303.9 L672.0,315.8 L674.0,329.6 L675.9,325.4 L678.0,307.5 L680.0,275.5 L682.0,249.1 L684.0,232.5   L685.9,241.9 L688.0,247.3 L689.9,254.5 L692.0,265.9 L694.0,272.9 L696.0,293.8 L698.0,287.3 L700.0,282.3   L702.0,282.3 L703.9,275.0 L706.0,269.9 L707.9,272.4 L709.9,280.4 L712.0,280.3 L714.0,289.5 L716.0,300.2   L718.0,287.7 L720.0,291.7 L721.9,294.0 L723.9,294.3 L725.9,288.5 L727.9,287.1 L729.9,290.1 L731.9,294.7   L734.0,288.7 L735.9,298.4 L737.9,301.4 L739.9,304.7 L741.9,312.4 L743.9,315.8 L745.9,325.9 L747.9,333.8   L749.9,345.9 L751.9,370.3 L753.9,396.9 L755.9,427.9 L757.9,440.2 L759.9,435.8 L761.9,396.8 L763.9,337.6   L765.9,276.5 L767.9,219.4 L769.9,166.7 L771.9,131.5 L773.8,125.8 L775.9,142.4 L777.9,173.4 L779.9,209.0   L781.9,228.1 L783.8,239.1 L785.8,251.6 L787.8,255.4 L789.8,261.9 L791.8,268.1 L793.8,281.5 L795.8,278.7   L797.8,269.6 L799.8,271.7 L801.8,279.2 L803.8,276.4 L805.8,278.4 L807.8,292.5 L809.8,288.8 L811.8,286.6   L813.8,278.2 L815.8,274.3 L817.7,275.5 L819.7,277.8 L821.7,280.7 L823.7,280.8 L825.7,282.8 L827.7,289.5   L829.7,288.7 L831.7,291.0 L833.7,288.3 L835.7,283.0 L837.7,280.6 L839.7,289.7 L841.7,294.3 L843.7,291.6   L845.6,286.6 L847.6,278.0 L849.7,284.0 L851.6,281.7 L853.6,290.2 L855.6,289.9 L857.6,284.9 L859.6,288.8   L861.6,290.2 L863.6,293.9 L865.6,279.9 L867.6,279.4 L869.6,284.4 L871.6,279.4 L873.5,291.1 L875.5,290.6   L877.5,284.8 L879.5,283.0 L881.5,282.1 L883.5,274.6 L885.5,280.4 L887.5,279.2 L889.5,290.1 L891.4,281.5   L893.4,283.0 L895.4,279.3 L897.4,287.5 L899.4,283.4 L901.4,289.3 L903.4,294.4 L905.4,288.0 L907.4,287.9   L909.4,282.2 L911.3,279.9 L913.3,288.3 L915.3,282.2 L917.3,280.0 L919.3,281.1 L921.3,289.3 L923.3,284.2   L925.3,295.0 L927.3,285.5 L929.2,279.9 L931.2,277.5 L933.2,273.8 L935.2,279.7 L937.2,278.0 L939.2,276.0   L941.2,275.8 L943.1,286.6 L945.1,289.2 L947.1,288.5 L949.1,271.7 L951.1,269.3 L953.1,272.3 L955.1,285.2   L957.0,289.5 L959.0,281.6 L961.0,276.2 L963.0,290.1 L965.0,284.7 L967.0,290.8 L969.0,293.1 L971.0,285.3   L972.9,292.7 L974.9,286.0 L976.9,289.9 L978.9,289.1 L980.9,283.8 L982.9,280.3 L984.8,270.0 L986.8,268.4   L988.8,285.7 L990.8,283.5 L992.8,285.4 L994.8,278.0 L996.8,280.8 L998.7,284.8 L1000.7,282.5 L1002.7,282.0   L1004.7,283.7 L1006.7,280.7 L1008.7,290.5 L1010.6,288.6 L1012.6,289.3 L1014.6,286.8 L1016.6,281.2 L1018.6,287.1   L1020.6,289.4 L1022.5,290.9 L1024.5,292.4 L1026.5,284.2 L1028.5,280.4 L1030.5,280.3 L1032.4,279.7 L1034.4,282.1   L1036.4,284.8 L1038.4,276.4 L1040.4,282.8 L1042.4,281.1 L1044.3,293.5 L1046.3,286.6 L1048.3,285.2 L1050.3,290.9   L1052.3,284.8 L1054.2,292.3 L1056.2,290.6 L1058.2,294.0 L1060.2,292.9 L1062.2,284.9 L1064.2,284.3 L1066.1,295.8   L1068.1,289.2 L1070.1,294.9 L1072.1,285.8 L1074.1,297.8 L1076.0,297.3 L1078.0,294.9 L1080.0,291.9 L1082.0,302.3   L1084.0,303.7 L1086.0,297.5 L1087.9,299.3 L1089.9,304.7 L1091.9,317.0 L1093.9,336.0 L1095.8,341.2 L1097.8,358.3   L1099.8,378.6 L1101.8,385.9 L1103.8,399.4 L1105.7,418.2 L1107.7,422.8 L1109.7,405.7 L1111.6,359.6 L1113.7,308.6   L1115.6,264.7 L1117.6,212.4 L1119.6,165.8 L1121.5,156.0 L1123.5,171.6 L1125.5,194.6 L1127.5,233.4 L1129.5,281.6   L1131.5,327.4 L1133.4,373.5 L1135.4,398.6 L1137.4,404.7 L1139.3,379.4 L1141.3,332.2 L1143.3,284.1 L1145.3,230.8   L1147.3,176.3 L1149.3,135.9 L1151.2,128.2 L1153.2,136.3 L1155.2,172.9 L1157.1,198.7 L1159.1,209.4 L1161.1,222.9   L1163.1,237.8 L1165.0,249.5 L1167.0,263.2 L1169.0,264.9 L1171.0,269.8 L1173.0,272.3 L1174.9,271.6 L1176.9,269.2   L1178.9,270.3 L1180.8,272.4 L1182.8,273.5 L1184.8,278.4 L1186.7,291.2 L1188.8,288.4 L1190.7,281.0 L1192.7,273.4   L1194.7,273.9 L1196.7,278.8 L1198.6,276.0 L1200.6,293.4 L1202.6,292.4 L1204.5,287.7 L1206.5,290.2 L1208.5,280.9   L1210.4,281.5 L1212.4,282.4 L1214.4,284.1 L1216.4,287.8 L1218.3,293.3 L1220.3,280.6 L1222.3,278.0 L1224.3,285.9   L1226.2,289.7 L1228.2,280.0 L1230.2,289.1 L1232.2,284.6 L1234.1,286.1 L1236.1,284.3 L1238.1,278.6 L1240.1,285.2   L1242.0,290.1 L1244.0,289.0 L1246.0,286.7 L1247.9,275.5 L1249.9,278.9 L1251.9,271.4 L1253.9,284.2 L1255.8,294.4   L1257.8,293.7 L1259.8,286.2 L1261.8,284.3 L1263.7,299.4 L1265.7,301.5 L1267.7,314.0 L1269.6,338.8 L1271.6,357.5   L1273.6,350.3 L1275.6,326.4 L1277.5,302.9 L1279.5,263.9 L1281.4,231.2 L1283.4,203.0 L1285.4,215.8 L1287.4,240.5   L1289.3,258.1 L1291.3,267.3 L1293.3,295.7 L1295.2,302.7 L1297.2,295.4 L1299.1,307.3 L1301.2,295.9 L1303.1,287.6   L1305.1,280.9 L1307.1,272.6 L1309.0,272.3 L1311.0,265.7 L1312.9,270.9 L1314.9,270.8 L1316.9,277.0 L1318.8,274.2   L1320.8,275.8 L1322.8,282.2 L1324.8,273.5 L1326.7,284.0 L1328.7,286.2 L1330.6,281.2 L1332.6,283.2 L1334.6,290.6   L1336.5,281.6 L1338.5,284.6 L1340.5,281.6 L1342.5,289.0 L1344.4,291.0 L1346.4,290.2 L1348.4,281.0 L1349.8,275.2    "
           stroke-dasharray=" 2,4"
           stroke="rgb( 69, 117, 180)" />
      </g>
    </g>
    <g
       id="gnuplot_plot_2">
      <title
         id="title153">2016</title>
      <g
         id="g155"
         stroke-linejoin="miter"
         stroke-linecap="butt"
         stroke-width="2.00"
         stroke="currentColor"
         color="black"
         fill="none">
        <g
           id="g157"
           text-anchor="end"
           font-size="24.00"
           font-family="Libre Franklin"
           fill="black"
           stroke="none"
           transform="translate(1231.6,45.0)">
          <g
             id="text159"
             style="">
            <path
               id="path4404"
               style="font-style:normal;font-variant:normal;font-weight:normal;font-stretch:normal;font-family:'Libre Baskerville';-inkscape-font-specification:'Libre Baskerville'"
               d="m -53.35125,-2.472 c 4.656,-3.456 8.448,-7.104 8.448,-11.064 0,-3.048 -2.376,-5.208 -5.76,-5.208 -3.408,0 -5.952,2.136 -5.952,4.992 0,2.088 1.32,3.6 3.096,3.6 0.984,0 1.728,-0.504 1.872,-1.272 -1.608,0 -2.64,-1.104 -2.64,-2.832 0,-1.968 1.344,-3.36 3.24,-3.36 1.992,0 3.264,1.56 3.264,4.032 0,3.36 -1.728,6.264 -9.048,12.792 l 0,0.792 11.16,0 0.912,-5.112 -0.888,0 c -0.672,2.256 -1.368,2.76 -2.904,2.76 l -4.776,0 -0.024,-0.12 z" />
            <path
               id="path4406"
               style="font-style:normal;font-variant:normal;font-weight:normal;font-stretch:normal;font-family:'Libre Baskerville';-inkscape-font-specification:'Libre Baskerville'"
               d="m -34.697625,-18.72 c -3.912,0 -7.104,4.2 -7.104,9.624 0,5.208 3.192,9.336 7.104,9.336 3.912,0 7.104,-4.128 7.104,-9.336 0,-5.424 -3.192,-9.624 -7.104,-9.624 z m 0,17.808 c -2.496,0 -3.984,-1.872 -3.984,-8.112 0,-6.504 1.488,-8.544 3.984,-8.544 2.496,0 3.984,2.04 3.984,8.544 0,6.24 -1.512,8.112 -3.984,8.112 z" />
            <path
               id="path4408"
               style="font-style:normal;font-variant:normal;font-weight:normal;font-stretch:normal;font-family:'Libre Baskerville';-inkscape-font-specification:'Libre Baskerville'"
               d="m -19.485375,-18.72 c -1.56,0.552 -3.408,0.936 -4.968,1.008 l 0,0.912 c 1.584,0 2.352,0.072 2.52,0.768 0.096,0.384 0.096,1.656 0.096,3.504 l 0,8.808 c 0,2.256 -0.36,2.712 -2.496,2.808 l 0,0.912 7.344,0 0,-0.912 c -2.16,-0.072 -2.496,-0.504 -2.496,-2.976 l 0,-14.832 z" />
            <path
               id="path4410"
               style="font-style:normal;font-variant:normal;font-weight:normal;font-stretch:normal;font-family:'Libre Baskerville';-inkscape-font-specification:'Libre Baskerville'"
               d="m -1.357875,-6.216 c 0,-3.408 -2.448,-5.976 -5.688,-5.976 -1.608,0 -2.76,0.672 -3.792,2.16 l -0.072,-0.048 c 0,-4.32 1.656,-7.56 3.864,-7.56 2.448,0 1.68,2.616 3.552,2.616 0.792,0 1.296,-0.48 1.296,-1.248 0,-1.368 -1.848,-2.448 -4.152,-2.448 -4.176,0 -7.608,4.8 -7.608,10.632 0,4.896 2.568,8.328 6.24,8.328 3.528,0 6.36,-2.856 6.36,-6.456 z m -9.6,-1.752 c 1.056,-2.136 2.112,-3.048 3.576,-3.048 1.968,0 3.024,1.704 3.024,4.896 0,3.6 -1.056,5.28 -3.264,5.28 -2.184,0 -3.336,-2.016 -3.336,-5.952 l 0,-1.176 z" />
          </g>
        </g>
      </g>
      <g
         id="g163"
         stroke-linejoin="miter"
         stroke-linecap="butt"
         stroke-width="2.00"
         stroke="currentColor"
         color="black"
         fill="none">
        <path
           id="path165"
           d="M1248.3,36.0 L1333.1,36.0 M111.1,278.5 L112.8,279.5 L114.8,283.1 L116.9,285.7 L118.9,283.5 L121.0,286.2   L123.1,283.6 L124.7,293.8 L126.8,287.7 L128.9,283.7 L130.9,285.8 L133.0,286.0 L135.0,289.4 L137.1,284.3   L139.2,277.2 L141.2,285.0 L143.3,290.0 L145.4,286.9 L147.4,290.4 L149.5,300.1 L151.2,291.1 L153.2,290.6   L155.3,286.3 L157.3,298.0 L159.4,304.0 L161.5,302.9 L163.5,311.4 L165.6,328.8 L167.7,342.4 L169.7,354.7   L171.8,360.5 L173.9,362.1 L175.5,351.8 L177.6,318.2 L179.6,295.1 L181.7,269.0 L183.8,248.2 L185.8,224.0   L187.9,207.0 L190.0,202.9 L192.0,205.3 L194.1,221.0 L195.7,238.9 L197.8,254.2 L199.9,256.7 L201.9,259.5   L204.0,269.4 L206.1,269.2 L208.1,274.4 L210.2,275.0 L212.3,277.4 L214.3,281.2 L216.4,288.2 L218.5,281.1   L220.1,288.3 L222.2,280.9 L224.2,278.9 L226.3,274.0 L228.4,292.8 L230.4,291.1 L232.5,286.2 L234.6,284.0   L236.6,284.7 L238.7,289.2 L240.8,279.0 L242.4,281.0 L244.5,280.2 L246.5,279.5 L248.6,281.4 L250.7,282.2   L252.7,288.8 L254.8,288.4 L256.9,286.1 L258.9,276.5 L261.0,280.0 L263.0,292.3 L264.7,288.2 L266.8,274.8   L268.8,280.4 L270.9,277.8 L273.0,285.4 L275.0,278.0 L277.1,284.4 L279.2,282.4 L281.2,280.9 L282.9,286.0   L284.9,284.2 L287.0,288.0 L289.1,283.2 L291.1,288.5 L293.2,280.2 L295.3,286.1 L297.3,283.3 L299.4,298.0   L301.0,286.3 L303.1,287.2 L305.2,287.8 L307.2,280.6 L309.3,289.0 L311.4,283.6 L313.4,287.9 L315.5,284.6   L317.6,282.9 L319.6,283.2 L321.3,280.3 L323.3,284.7 L325.4,274.9 L327.5,284.3 L329.5,275.5 L331.6,276.0   L333.7,274.3 L335.7,286.7 L337.8,287.6 L339.4,291.6 L341.5,288.1 L343.6,289.0 L345.6,281.4 L347.7,294.4   L349.8,293.8 L351.8,282.1 L353.9,278.0 L355.9,286.1 L358.0,292.5 L360.1,307.8 L361.7,315.2 L363.8,317.6   L365.9,310.9 L367.9,288.6 L370.0,285.0 L372.1,273.3 L374.1,282.7 L376.2,270.9 L378.2,262.1 L379.9,274.2   L382.0,280.5 L384.0,273.3 L386.1,290.7 L388.2,293.0 L390.2,286.1 L392.3,282.9 L394.3,270.3 L396.0,277.9   L398.1,290.1 L400.1,275.7 L402.2,281.7 L404.3,277.4 L406.3,285.9 L408.4,278.1 L410.5,275.8 L412.5,289.7   L414.2,277.5 L416.2,271.7 L418.3,277.0 L420.4,278.0 L422.4,281.3 L424.5,275.6 L426.6,283.2 L428.6,288.9   L430.3,282.1 L432.3,281.7 L434.4,282.4 L436.5,283.6 L438.5,278.4 L440.6,281.1 L442.7,283.8 L444.7,267.6   L446.4,290.1 L448.4,289.8 L450.5,284.4 L452.6,281.4 L454.6,272.9 L456.7,271.9 L458.8,276.5 L460.8,285.1   L462.5,288.6 L464.5,271.1 L466.6,288.3 L468.7,293.4 L470.7,286.9 L472.8,281.1 L474.9,278.8 L476.9,288.7   L478.6,273.0 L480.6,286.4 L482.7,280.5 L484.8,283.7 L486.8,285.8 L488.9,288.5 L491.0,292.6 L492.6,277.6   L494.7,280.5 L496.7,289.1 L498.8,292.3 L500.9,281.5 L502.9,278.3 L505.0,277.1 L507.1,288.2 L508.7,282.0   L510.8,288.8 L512.9,275.1 L514.9,281.2 L517.0,265.3 L519.0,287.5 L521.1,284.9 L523.2,286.3 L524.8,284.1   L526.9,289.4 L529.0,287.7 L531.0,285.1 L533.1,279.7 L535.1,271.8 L537.2,287.1 L539.3,281.8 L540.9,289.4   L543.0,276.6 L545.1,280.8 L547.1,274.3 L549.2,286.7 L551.3,273.1 L553.3,283.2 L555.0,295.0 L557.0,269.6   L559.1,283.8 L561.2,283.6 L563.2,278.2 L565.3,279.3 L567.4,276.0 L569.4,281.5 L571.1,287.2 L573.1,276.9   L575.2,290.2 L577.3,284.5 L579.3,279.8 L581.4,282.7 L583.5,295.4 L585.5,289.9 L587.2,283.8 L589.2,291.5   L591.3,285.1 L593.4,292.2 L595.4,275.3 L597.5,282.9 L599.6,293.9 L601.2,291.2 L603.3,287.7 L605.3,291.5   L607.4,293.5 L609.5,300.7 L611.5,298.3 L613.6,307.3 L615.3,295.3 L617.3,293.7 L619.4,284.5 L621.4,282.1   L623.5,275.1 L625.6,272.8 L627.6,277.1 L629.7,268.0 L631.4,273.9 L633.4,272.3 L635.5,268.6 L637.5,271.8   L639.6,276.1 L641.7,283.2 L643.7,274.4 L645.4,280.4 L647.5,296.6 L649.5,283.9 L651.6,281.8 L653.7,287.6   L655.7,280.9 L657.4,276.6 L659.4,282.2 L661.5,286.4 L663.6,285.3 L665.6,274.1 L667.7,290.6 L669.8,313.1   L671.4,304.6 L673.5,300.0 L675.5,295.0 L677.6,286.2 L679.7,276.0 L681.7,268.2 L683.8,275.0 L685.4,270.6   L687.5,269.4 L689.6,269.1 L691.6,265.7 L693.7,281.3 L695.8,285.1 L697.4,281.4 L699.5,287.4 L701.5,282.8   L703.6,279.0 L705.7,272.6 L707.7,290.3 L709.4,284.1 L711.5,283.6 L713.5,298.2 L715.6,296.8 L717.7,295.7   L719.7,283.4 L721.8,283.1 L723.4,284.1 L725.5,276.6 L727.6,284.2 L729.6,288.6 L731.7,294.5 L733.8,286.6   L735.4,288.9 L737.5,294.3 L739.5,300.9 L741.6,304.0 L743.7,313.2 L745.7,327.1 L747.4,332.5 L749.4,340.4   L751.5,361.1 L753.6,360.1 L755.6,368.3 L757.7,370.9 L759.8,348.3 L761.4,318.0 L763.5,292.3 L765.5,277.1   L767.6,262.9 L769.7,238.5 L771.7,205.8 L773.8,194.9 L775.5,191.3 L777.5,196.4 L779.6,221.2 L781.6,236.1   L783.7,241.3 L785.8,242.4 L787.4,261.2 L789.5,261.9 L791.6,266.2 L793.6,273.2 L795.7,274.2 L797.8,291.1   L799.4,277.1 L801.5,281.4 L803.5,276.4 L805.6,289.9 L807.7,273.3 L809.7,284.2 L811.4,286.0 L813.4,282.3   L815.5,278.6 L817.6,301.7 L819.6,285.6 L821.7,281.8 L823.4,272.3 L825.4,284.7 L827.5,288.3 L829.5,271.7   L831.6,292.1 L833.3,288.5 L835.3,279.6 L837.4,289.5 L839.5,285.5 L841.5,295.4 L843.6,278.1 L845.2,277.5   L847.3,286.0 L849.4,282.7 L851.4,276.4 L853.5,288.5 L855.6,288.3 L857.6,279.5 L859.3,283.2 L861.3,277.9   L863.4,285.6 L865.5,286.3 L867.5,280.9 L869.6,284.5 L871.2,282.3 L873.3,281.6 L875.4,289.7 L877.4,289.7   L879.5,281.9 L881.6,271.1 L883.2,280.2 L885.3,283.6 L887.4,275.1 L889.4,290.0 L891.5,281.3 L893.1,287.4   L895.2,281.3 L897.3,287.8 L899.3,287.5 L901.4,291.8 L903.0,285.8 L905.1,284.6 L907.2,285.3 L909.2,289.1   L911.3,285.2 L913.0,275.0 L915.0,280.4 L917.1,289.9 L919.1,295.2 L921.2,282.1 L923.3,292.1 L925.3,305.2   L927.0,294.9 L929.1,290.5 L931.1,285.1 L933.2,281.5 L935.2,289.8 L937.3,291.1 L939.0,285.6 L941.0,279.0   L943.1,288.5 L945.2,285.1 L947.2,276.7 L948.9,279.0 L950.9,289.4 L953.0,289.1 L955.1,281.4 L957.1,296.0   L958.8,283.7 L960.8,285.4 L962.9,283.0 L965.0,287.1 L967.0,280.8 L969.1,284.3 L970.8,289.5 L972.8,280.7   L974.9,280.3 L977.0,288.8 L978.6,294.6 L980.7,286.7 L982.7,284.0 L984.8,280.6 L986.9,285.3 L988.9,288.5   L991.0,288.9 L992.6,284.4 L994.7,286.5 L996.8,285.6 L998.8,283.4 L1000.9,283.0 L1002.6,294.2 L1004.6,277.9   L1006.7,280.1 L1008.7,294.0 L1010.8,284.4 L1012.5,286.4 L1014.5,292.5 L1016.6,286.4 L1018.7,285.5 L1020.7,289.3   L1022.4,283.2 L1024.4,280.5 L1026.5,285.3 L1028.6,284.6 L1030.6,290.7 L1032.3,290.1 L1034.3,290.2 L1036.4,303.1   L1038.5,289.7 L1040.5,286.0 L1042.6,291.7 L1044.3,285.2 L1046.3,284.1 L1048.4,279.0 L1050.4,291.7 L1052.5,286.5   L1054.2,289.2 L1056.2,281.2 L1058.3,288.8 L1060.4,291.4 L1062.4,275.5 L1064.1,294.2 L1066.1,288.4 L1068.2,288.6   L1070.3,295.1 L1072.3,286.1 L1074.0,282.9 L1076.0,286.9 L1078.1,293.1 L1080.2,303.3 L1081.8,292.6 L1083.9,296.5   L1086.0,284.3 L1088.0,297.9 L1090.1,309.3 L1092.2,318.7 L1093.8,322.8 L1095.9,336.4 L1097.9,345.1 L1100.0,359.6   L1102.1,356.9 L1103.7,365.3 L1105.8,368.9 L1107.8,350.3 L1109.9,316.5 L1112.0,279.9 L1113.6,276.3 L1115.7,279.6   L1117.8,271.8 L1119.8,255.1 L1121.5,230.1 L1123.5,227.5 L1125.6,233.0 L1127.7,258.2 L1129.7,302.7 L1131.8,333.4   L1133.4,341.2 L1135.5,344.1 L1137.6,327.1 L1139.6,295.2 L1141.7,285.0 L1143.4,276.0 L1145.4,274.5 L1147.5,237.2   L1149.5,218.6 L1151.2,213.8 L1153.3,192.7 L1155.3,207.2 L1157.4,215.0 L1159.5,220.8 L1161.1,235.0 L1163.2,245.5   L1165.2,249.8 L1167.3,257.1 L1168.9,262.5 L1171.0,269.3 L1173.1,278.6 L1175.1,279.0 L1177.2,273.0 L1179.3,285.7   L1180.9,280.2 L1183.0,271.2 L1185.1,276.0 L1187.1,285.6 L1188.8,282.5 L1190.8,276.6 L1192.9,268.7 L1195.0,279.1   L1197.0,274.9 L1198.7,282.2 L1200.7,281.5 L1202.8,286.3 L1204.9,287.0 L1206.5,283.4 L1208.6,283.6 L1210.7,267.6   L1212.7,281.6 L1214.8,284.5 L1216.8,286.5 L1218.5,278.6 L1220.6,278.7 L1222.6,284.0 L1224.7,284.9 L1226.8,288.3   L1228.4,288.3 L1230.5,283.9 L1232.5,282.0 L1234.6,283.3 L1236.3,290.0 L1238.3,281.4 L1240.4,278.3 L1242.4,290.8   L1244.1,288.6 L1246.2,279.5 L1248.2,285.4 L1250.3,289.0 L1252.4,290.3 L1254.0,289.9 L1256.1,287.5 L1258.1,287.4   L1260.2,282.7 L1262.3,280.8 L1263.9,291.7 L1266.0,302.3 L1268.0,324.2 L1270.1,324.9 L1271.8,317.3 L1273.8,306.2   L1275.9,284.8 L1278.0,286.3 L1279.6,284.1 L1281.7,256.0 L1283.7,256.7 L1285.8,247.6 L1287.9,253.1 L1289.5,265.4   L1291.6,268.5 L1293.6,292.7 L1295.7,283.5 L1297.4,284.0 L1299.4,302.3 L1301.5,269.5 L1303.6,285.7 L1305.6,280.0   L1307.3,284.2 L1309.3,281.3 L1311.4,266.6 L1313.5,285.5 L1315.1,277.0 L1317.2,280.2 L1319.2,268.3 L1321.3,274.7   L1323.4,287.4 L1325.0,279.5 L1327.1,283.4 L1329.2,284.0 L1331.2,281.2 L1332.9,294.0 L1334.9,279.7 L1337.0,288.3   L1339.1,271.7 L1340.7,282.2 L1342.8,284.2 L1344.8,289.1 L1346.9,282.7 L1348.6,285.0 L1349.8,289.5  "
           stroke="rgb(244, 109,  67)" />
      </g>
    </g>
    <g
       id="g167"
       stroke-linejoin="miter"
       stroke-linecap="butt"
       stroke-width="2.00"
       stroke="currentColor"
       color="black"
       fill="none" />
    <g
       id="g169"
       stroke-linejoin="miter"
       stroke-linecap="butt"
       stroke-width="1.00"
       stroke="black"
       color="black"
       fill="none" />
    <g
       id="g171"
       stroke-linejoin="miter"
       stroke-linecap="butt"
       stroke-width="1.00"
       stroke="currentColor"
       color="black"
       fill="none">
      <path
         id="path173"
         d="M111.1,69.5 L111.1,499.2 L1349.8,499.2 L1349.8,69.5 L111.1,69.5 Z  "
         stroke="black" />
    </g>
    <g
       id="g175"
       stroke-linejoin="miter"
       stroke-linecap="butt"
       stroke-width="1.00"
       stroke="currentColor"
       color="black"
       fill="none" />
  </g>
</svg>
